<?xml version="1.0" encoding="utf-8"?>
<!-- Generator: Adobe Illustrator 23.0.2, SVG Export Plug-In . SVG Version: 6.00 Build 0)  -->
<svg version="1.1" id="Layer_1" xmlns="http://www.w3.org/2000/svg" xmlns:xlink="http://www.w3.org/1999/xlink" x="0px" y="0px"
	 viewBox="0 0 225 225" style="enable-background:new 0 0 225 225;" xml:space="preserve">
<style type="text/css">
	.st0{clip-path:url(#SVGID_2_);}
	.st1{fill:#F9F7F7;}
	.st2{fill:#C6E7EE;}
	.st3{clip-path:url(#SVGID_3_);}
	.st4{fill:#86D1DB;}
	.st5{fill:#E6C100;}
	.st6{fill:#F25A29;}
	.st7{fill:#1B2C3E;}
	.st8{fill:#203F5B;}
	.st9{fill:#D6380D;}
	.st10{fill:#FE8C7F;}
	.st11{fill:#FFFFFF;}
	.st12{fill:#FFF6CF;}
	.st13{fill:#FF7166;}
	.st14{fill:#D3AA00;}
	.st15{fill:#C1A11A;}
	.st16{fill:#BA9911;}
	.st17{clip-path:url(#SVGID_4_);}
	.st18{opacity:0.8;fill:#FFD4D2;}
	.st19{fill:#F97167;}
</style>
<g>
	<defs>
		<rect id="SVGID_1_" x="0" y="0.7" width="225" height="225"/>
	</defs>
	<clipPath id="SVGID_2_">
		<use xlink:href="#SVGID_1_"  style="overflow:visible;"/>
	</clipPath>
	<title>extrovert</title>
	<g class="st0">
		<rect x="0" y="0.7" class="st1" width="225" height="225"/>
		<g>
			<g>
				<g id="Layer_1-2_1_">
					<path class="st2" d="M-4.6,143.7c2.6,5.2,6.7,9.4,10.7,13.5l7,7.2c0.8,0.9,1.6,1.6,2.6,2.3c1.5,0.9,3,1.5,4.7,1.9l41.6,12
						c4.6,1.3,9.5,2.7,14.2,2.1c7.7-1.1,14.2-6.7,14.4-14.4c0.4-22.6,0.9-45.2,1.3-67.8c0.1-3.7,1.6-15.4,1.8-18.5
						c0.3-5.5,1.2-9.1-0.2-11.6c-0.7-1.3-3.8-2.2-5.3-2.3c-3.6-0.2-59.8-1.8-84.3-1c-1.9,0.1-4,0.2-5.2,1.7
						c-0.6,0.7-0.9,1.6-1.1,2.5c-0.7,2.7-0.9,9-1.1,11.8c-1.4,19.1-2.3,38.2-2.7,57.4C-6.2,141.7-5.2,142.5-4.6,143.7z"/>
					<g>
						<defs>
							<path id="SVGID_5_" d="M-4.6,143.7c2.6,5.2,6.7,9.4,10.7,13.5l7,7.2c0.8,0.9,1.6,1.6,2.6,2.3c1.5,0.9,3,1.5,4.7,1.9l41.6,12
								c4.6,1.3,9.5,2.7,14.2,2.1c7.7-1.1,14.2-6.7,14.4-14.4c0.4-22.6,0.9-45.2,1.3-67.8c0.1-3.7,1.6-15.4,1.8-18.5
								c0.3-5.5,1.2-9.1-0.2-11.6c-0.7-1.3-3.8-2.2-5.3-2.3c-3.6-0.2-59.8-1.8-84.3-1c-1.9,0.1-4,0.2-5.2,1.7
								c-0.6,0.7-0.9,1.6-1.1,2.5c-0.7,2.7-0.9,9-1.1,11.8c-1.4,19.1-2.3,38.2-2.7,57.4C-6.2,141.7-5.2,142.5-4.6,143.7z"/>
						</defs>
						<clipPath id="SVGID_3_">
							<use xlink:href="#SVGID_5_"  style="overflow:visible;"/>
						</clipPath>
						<g class="st3">
							<path class="st4" d="M83.1,67c-2.7-0.6-5.3-1.1-8.1-1.3C50.9,63,26.6,61.1,2.5,63.2c-2.9,0.3-6.3,0.8-7.8,3.4
								c-1.7,2.8,0.3,6.8,3.3,8S4,75,6.6,73.1c-0.2,3.5,1.7,6.8,4.7,8.4c3.1,1.6,6.6,1.9,9.9,0.9c1.3-0.3,2.5-0.9,3.5-1.7
								c1-0.8,2.2-1.5,2.1-2.8c1.2,4.7,2.5,6.8,5.9,7.6c2.3,0.6,4.7,0.6,6.9-0.1c2-1,3.7-2.7,4.8-4.7c0.3-0.7,0.3-1.1,0.6-1.9
								c1.3,2.5,3.4,4.6,5.9,5.9c3,1.5,6.4,1.9,9.7,1.2c3.4-0.8,7.9-3.5,8.1-7c0.9,3,3.3,5.4,6.3,6.3c3.1,0.8,6.4-0.3,8.4-2.8
								c0.9-1.3,1.5-2.8,1.8-4.3c0.9-3.6,0.2-7.4-1.7-10.6C84.2,67.5,83.6,67.2,83.1,67z"/>
						</g>
					</g>
					<path class="st5" d="M-39,98.5c0.4,3.1,1.2,6.2,2.4,9.1c-2.3,0-4.6,0-6.9-0.2c-0.8-3.1-4.8-5.4-4.8-8.3c0-1.2,1.6-2.3,2.2-3.3
						l3-4.7c0.4-0.7,0.9-1.4,1.4-2.1c0.9-1.2,1.8-2.3,2.9-3.4c0.2-0.2,0.4-0.4,0.6-0.5c0.7-0.3,1.5,0,1.9,0.7
						c0.4,0.6,0.5,1.4,0.4,2.1c-0.1,1.1-0.4,2.2-1,3.2c-0.6,0.8-1.1,1.7-1.6,2.7c-0.8,1.9-0.2,4.1-0.4,6.1L-39,98.5z"/>
					<path class="st5" d="M-63.9,100.4c0.7,0.1,1.4,0.4,2,0.9c1.5,1.1,3,2.2,4.4,3.5l7.7,6.7c0.6,0.4,1,1,1.2,1.7
						c0,0.5,0,1.1-0.2,1.6l-1.7,5.3c-1.8-1.3-4.6-1.2-6-2.9c-1.2-1.4-1-3.6-1.6-5.4c-1.3-3.7-6.2-5.3-7.4-9.1
						c-0.2-0.4-0.2-0.9-0.1-1.4C-65.4,100.7-64.7,100.4-63.9,100.4z"/>
					<path class="st6" d="M6.3,146.4c2.3,4.4,5.4,8.3,9.1,11.5c0.2-0.4,0.4-0.8,0.4-1.3c0.5-2.4,0.9-4.7,1.4-7
						c1.5-7.3,2.5-14.7,3.7-22c0.3-1.4,0.4-2.9,0.3-4.3c-0.1-0.8-0.6-2.6-1.4-3c-0.4-0.2-0.6,0.5-1.1,0.5c-6.6-0.5-13.2-1-19.8-1
						c-1.4,7.3,0.7,12.5,2.3,18.3C2.2,141.4,4.7,143.4,6.3,146.4z"/>
					<path class="st7" d="M14.6,174.2c-0.3,0.2-0.7,0.3-1.1,0.3c-0.3,0-0.6-0.2-0.8-0.3c-7.8-4.9-11.6-14-15.6-22.3
						c-2.3-4.7-4.8-9.3-7.6-13.7c-0.7-1.3-1.6-2.4-2.7-3.4c-1.1-0.8-2.4-1.4-3.8-1.8c-11.5-4.1-20.5-12.6-32.7-12.6
						c-1.4,0-2.4-0.5-2.6-1c-0.2-0.5-0.3-1.1-0.2-1.7c0.1-2.3,1.1-4.4,2.7-6c13.2,7.9,29.5,8.1,43.9,13.7c2,0.7,3.8,1.9,5.2,3.5
						c5.5,6.4,10.9,12.9,16.2,19.4c2.3,2.9,5.4,10.1,6.7,13.5s0.7,3.2-1.1,6.4C19.6,170.7,17.3,172.8,14.6,174.2z"/>
					<path class="st8" d="M11.4,181.4c2.3-0.8,4-2.7,4.7-5c0.6-2.3,0.3-4.8-1-6.8c-0.9-1.4-2.1-2.6-3.3-3.8L-0.6,154
						c-2.4-2.2-4.7-4.6-6.8-7.1c-1.1-1.4-2.1-2.9-2.9-4.5c-0.4-1-0.9-2-1.4-2.9c-0.7-0.9-1.5-1.8-2.5-2.5
						c-9.5-8.4-22.6-30.4-22.7-30.5s-0.3-0.3-0.5-0.3c-2-0.5-4.2-0.2-6,0.8l0.5,10c0,2.6,0.4,5.2,1,7.7c0.5,1.7,1.2,3.3,2.1,4.8
						c3.6,7,9.3,12.7,16.4,16.2c1.9,0.9,3.3,2,3.8,4c1.8,7.2,4.9,14,9.1,20.1c2,3.1,4.5,5.8,7.3,8.2c2.9,2.3,6.3,3.8,10,4.3
						C8.1,181.7,10.1,181.8,11.4,181.4z"/>
					<path class="st9" d="M81,193.5c-0.6,1.9-1.4,3.7-2.5,5.4c-1.1,2.1-2.6,4-4.4,5.5c-1.8,1.3-3.8,2.1-5.9,2.5
						c-6.2,1.4-12.7,0.7-18.8-1.1s-11.9-4.5-17.6-7.2l-9.1-4.3c-7-3.3-14-7.2-18.7-13.5c0.8-5.3,3.4-8.4,7.2-12.2
						c2.2-2.1,3.5-3.1,7.8-6c1.1-0.8,2.3-1.8,3.6-1.9c3.8-0.3,8.9,1,12.7,1.7c5.5,0.9,10.6,3.2,15.9,4.4c7.4,1.7,21,0.7,25.9,6.6
						c0.1,0.1-3.5,0.1-3.6,0.1c-1.4,0.6-2.6,0.8-3.4,2.4c-0.2,0.7-0.3,1.4-0.2,2.1c0.2,2.6,1.5,5,3.6,6.5c1.1,0.8,2.3,1.4,3.6,1.8
						l3.4,1.4C81.4,189.6,81.7,191.7,81,193.5z"/>
					<path class="st10" d="M31.5,172.3c0.7,0,1.3-0.2,1.8-0.6c0.9-0.8,0.6-2.1,0.3-3.2l-0.7-2.5c-0.3-1.1-0.6-2.3-0.9-3.4
						c-0.3-1.5-0.9-2.8-1.8-4c-1-1.2-2.6-1.5-3.9-0.7c-0.8,0.7-1.2,1.6-1.3,2.6c-0.3,2.3-0.8,4.7,0.5,6.6c1.1,1.6,2,3.3,2.8,5
						C29.4,172.1,30.5,172.4,31.5,172.3z"/>
					<path class="st11" d="M37,149.9c7.3,7.4,15.7,12.3,20.7,21.6c0.2,0.3,0.4,0.6,0.7,0.9c0.9,0.7,1.8,1.1,2.6,0.3
						c0.9-1,1.7-2.3,2.2-3.6c2.9-7.6,5.1-15.5,6.7-23.5c-9.6-6.1-20.6-10.9-30.2-17.5c0,0-0.1-0.1-0.1-0.1c-0.2,0-0.4,0.1-0.4,0.3
						c-0.5,2.8-2.4,15.5-2.7,17c-0.2,0.9-0.3,2.3-0.4,3.2C35.5,148.8,36.6,149.6,37,149.9z"/>
					<path class="st12" d="M49.6,178.5c3.6-2.4,10.1-4.3,11.5-6.1c-5.5-6-20.4-19.5-21.7-20.9c-1-1-2-3.1-3.4-3.3
						c-0.8-0.1-2.1,0.7-2.8,0.9c-3.7,1.2-6.8,2.6-10.5,3.9c0.2,0.5,0.5,1,0.8,1.4c5.6,9.7,16.6,26.8,18.3,28.1
						C42,182.7,47.6,179.8,49.6,178.5z"/>
					<path class="st10" d="M81.7,180.6c0.9-2.3,1.2-4.8,1-7.2c0-0.6-0.4-1.1-1-1.2l-5.7-1.8c-0.9,1.3-2.1,2.3-3.5,2.9
						c-0.8,0.3-1.5,0.7-2.2,1.1c-1.1,1.1-1.8,2.6-1.8,4.1c-0.3,3.1,0.5,6.5,2.9,8.5c1.1,1.1,2.8,1.5,4.3,0.9
						C78.8,186.9,80.7,183.7,81.7,180.6z"/>
					<path class="st10" d="M32,171.3c0.2,0.6,0.7,0.9,1.3,1c0.6-0.1,1.2-0.5,1.6-1c1.4-1.6,2.7-3.3,3.9-5c0.4-0.5,0.6-1,0.8-1.6
						c0.3-0.8-0.1-1.7-0.9-2c-0.5-0.1-1.1,0-1.6,0.4c-1.7,1-3.6,2.1-4.6,3.8c-0.5,0.8-0.8,1.7-0.8,2.7
						C31.7,170.2,31.8,170.8,32,171.3z"/>
					<path class="st6" d="M64,208.5c1.9-0.5,3.7-1,5.5-1.7c2.9-1,5.5-2.5,7.9-4.4c2.4-1.9,4-4.6,4.5-7.6c0.5-3.3-1.4-5.9-3.3-8.6
						c-1.1-1.6-3.4-1.8-5.4-1.6c-2.3,0.3-4.5,0.8-6.6,1.6c-6.7,2.3-13,5.7-18.5,10.1c-0.5,0.5-1.2,0.9-2,1c-0.5-1-0.7-2.2-0.6-3.3
						c0.7-8.7-8-14.9-10.2-23.4c-0.7-0.5-1.6-0.7-2.4-0.6c-1.7,0-3.5,0.4-5,1.2c3.6,10.5,2.8,22.1,6.9,32.4c0.5,1.7,1.6,3.2,2.9,4.4
						c1.6,1.2,3.7,1.4,5.7,1.6C50.4,210.3,57.3,209.9,64,208.5z"/>
					<path class="st13" d="M77.2,153.7c-0.2,0.8-0.4,1.6-1.2,1.9c-0.5,0.1-1,0.1-1.5-0.1l-5.3-1.6c-0.7-0.2-1.3-0.5-1.9-0.9
						c-0.6-0.4-0.9-1.1-0.9-1.8c0-0.3,0.2-0.6,0.4-0.7c0.3-0.1,0.5-0.1,0.8-0.1l4.7,0.6c0.5,0.1,1,0.1,1.5,0.2
						c0.8,0.2,1.7,0.4,2.5,0.6c0.2,0,0.4,0.1,0.5,0.2C77.4,152.4,77.3,153.1,77.2,153.7z"/>
					<path class="st10" d="M89.5,156.5c-0.1-1.2-0.3-2.4-0.7-3.6c-1.5-3.4-5.1-5.3-8.8-4.8c-3.6,0.7-6.6,3.2-7.9,6.6
						c-0.3,1.1-0.8,2.1-1.5,2.9c-0.8,0.7-2.4,0.3-3.2,0.9s0.3,1.9,1.1,2.4c0.8,0.5,1.7,0.8,2.6,0.9c0.3,0,0.5,0.1,0.7,0.3
						c0.2,0.2,0.3,0.6,0.3,0.9l0.4,2.4c0.2,1.2,0.4,2.4,0.9,3.5c1.5,3.3,4.9,5.2,8.4,4.8c3.5-0.5,5.4-3.9,7.1-6.9
						c0.9-1.7,1.2-3.7,0.7-5.6C89.3,159.5,89.7,158.3,89.5,156.5z"/>
					<path class="st7" d="M83.7,160.4c-0.8,1.3-1.2,2.8-1.1,4.3c0.3,1.9,1.5,3.5,3.1,4.5c0.5,0.4,1.1,0.7,1.8,0.9
						c0.8,0,1.6-0.2,2.2-0.7c3.2-2.3,5.1-6,5.1-9.9c-0.1-3.9-1.6-7.6-4.3-10.5c-1.4-1.8-3.5-3.1-5.7-3.5c-1.8-0.3-3.6,0.1-5.4,0.2
						s-3.8-0.4-4.8-1.9c-0.2,0.2-0.4,0.3-0.5,0.5c-1.6,1.9-1.5,4.7,0.4,6.3c1.6,1.2,3.4,1.4,5.4,1.3c-0.7,1.1-0.6,2.5,0.1,3.5
						c0.6,0.7,1.5,1.2,2.4,1.4c0.9,0.2,1.9,0.2,2.8,0.1l2.4-0.1C86,157.8,84.7,159,83.7,160.4z"/>
					<path class="st14" d="M82.1,201.4c0.9,1.9,0.3,5.3,2.4,5c3.7-0.5,8.7-4.3,11.2-7c2.5-2.7,5-5.5,7.5-8.2c2.9-3,5.6-6.3,8-9.8
						c2.3-3.6,3-7.5,3.7-11.7c0.6-3.1,0.5-6.3-0.3-9.4c-0.9-2.7-2.1-5.3-3.6-7.8c-0.6-1.1-1.4-2-2.3-2.9c-0.8-0.8-2-1.1-3.1-0.8
						c-4.7,2-5,5.7-7.7,9c-1.3,1.6-2.9,4.4-4.4,5.8l-10,8.8c-1.2,1.1-2.5,2.2-3.9,3.1C76.4,184.3,78.4,193,82.1,201.4z"/>
					<path class="st5" d="M91.7,192.1c-0.2-4-0.9-8-2.1-11.8c-0.4-1.4-1-2.7-2-3.9c-2-1.8-4.9-2.2-7.3-0.9c-2.3,1.3-4,3.5-4.7,6
						c-0.7,2.5-0.9,5.2-0.8,7.8c0,2.7,0.3,5.3,0.7,7.9c0.3,2.2,1.1,4.3,2.3,6.2c1.2,1.9,3.3,3.1,5.5,3.3c2.9,0.1,5.3-2.1,6.7-4.6
						c0.7-1.3,2-9.6,1.5-12.2L91.7,192.1z"/>
					<path class="st14" d="M10.6,192.6c-0.1,1.8-0.8,3.5-2.1,4.7c-1.3,1.2-2.7,2.2-4.3,3c-1.6,0.9-3.4,1.6-5.3,1.8
						c-2.7,0.3-5.3-0.8-6.9-2.9c-1.6-2.1-3.7-1-4.2-3.6c-1.6-9,5.2-8.3,5.8-9.3c1-1.9,0.7-1.6-0.7-3.3c-0.2-0.2-0.4-0.4-0.7-0.6
						c-0.8-0.2-1.6-0.1-2.3,0.3c-4.5,2.1-9.3,3.7-14.2,4.7c-2.7,0.6-5.5,0.3-7.2-1.9c-1.4-1.8-2.2-4.1-2.3-6.4
						c-0.2-3.7-0.3-7.8,1.7-11c0.9-1.3,1.9-2.4,3.1-3.4c1.1-1.1,2.4-2,3.8-2.9c2.9-1.5,6.1-2.1,9.3-1.6c3.2,0.4,6.3,1.2,9.3,2.4
						c4.7,1.7,9.4,3.8,12.7,7.5c4.1,4.6,5.3,11.2,5.3,17.4c0.1,2.3-0.3,4.6-1.2,6.7L10.6,192.6z"/>
					<path class="st15" d="M-6.2,173.7c-2-1-3.1,0.4-3.9,1.7c-0.7,1.3-1.2,2.8-1.4,4.3c-0.2,1.5-0.7,3-1.5,4.3
						c-0.7,0.8-1.5,1.5-2.4,2.2c-0.8,0.6-1.2,1.5-1.1,2.5c0.4,0.8,1.1,1.4,2,1.5c2.2,0.5,4.4-0.1,6.1-1.4c1.3-1.1,2.3-2.5,3.1-4
						c0.9-1.6,1.2-3.4,0.9-5.1C-4.5,177.8-4.5,174.5-6.2,173.7z"/>
					<path class="st16" d="M-24,181.2c-0.4-0.9-1.4-1.4-2.4-1.2c-2.2,0.2-4.6,1.2-5.1,3.4c-0.2,1.3,0.2,2.5,1.1,3.4
						c0.9,0.9,1.9,1.6,3,2.2l2.5,1.5c1.6,1.1,3.3,1.9,5.1,2.4c1.7,0.3,3.5,0.4,5.2,0.2c0.6,0,1.2-0.1,1.7-0.4
						c1.7-0.8,1.9-3.3,0.7-4.7c-1.3-1.5-3.3-2.1-5.2-1.8c-1.6-0.5-3.5-0.8-4.6-2C-22.9,183.3-23.5,182.3-24,181.2z"/>
					<path class="st5" d="M-25,179.2c-0.3-0.8-1.1-1.2-1.8-1.6c-0.4-0.2-0.7-0.4-1-0.8c-0.3-0.4-0.3-0.9,0-1.2
						c0.4-0.3,0.9-0.4,1.3-0.2l1.5,0.3c0.5,0.1,1,0.1,1.6,0.1c1-0.2,1.8-0.7,2.5-1.4c0.3-0.2,0.6-0.5,0.8-0.9
						c0.9-1.4,0.2-3.6,1.5-4.6c0.4-0.1,0.9,0.1,1.1,0.5c0.2,0.4,0.3,0.8,0.3,1.3c0.2,1,0.7,2.3,1.7,2.6c2.3,0.5,4,2.4,4.3,4.8
						c0.4,2.1,0,4.3-1,6.2c-0.2,0.3-0.4,0.7-0.7,0.9c-0.5,0.5-1.2,0.8-1.9,0.9c-2.1,0.5-4.4,0.3-6.3-0.6c-2-1-3.3-2.8-3.8-5
						C-24.7,180-24.8,179.6-25,179.2z"/>
					<path class="st5" d="M-0.9,202.5c-3.8,0.8-7.6,1.1-11.5,0.8c-3.9-0.3-7.7-1.8-10.8-4.1c-1.3-1-2.4-2.2-3.4-3.4
						c-1.5-1.9-2.9-4.1-2.7-6.4c0-0.8,0.4-1.6,1-2.1c1.2-0.8,2.8-0.1,3.9,0.7c3.7,2.6,6.9,6.2,11,8.2c5.3,2.6,11.5,2.4,16.7-0.4
						c0.7-0.4,1.5-0.8,2.3-1c0.8-0.2,1.7,0,2.3,0.7c0.5,1,0.4,2.2-0.4,3C5.8,201,2.2,201.9-0.9,202.5z"/>
					<path class="st9" d="M20.5,121.3c0-0.4-0.3-0.8-0.7-1c-1.7-1.2-3.9-1.3-6-1.4c-4.5-0.2-9.1-0.1-13.6,0.2c0,0-0.1,0-0.1,0
						c-0.8,0.1-1.4,0.8-1.4,1.6c0.1,0.8,1,1.1,1.4,1.2c2.8,0.8,5.6,1.2,8.5,1.2c2.8,0,5.5,0,8.3-0.3c1,0,2.1-0.3,3-0.7
						C20.2,122,20.4,121.6,20.5,121.3z"/>
					<path class="st7" d="M8.8,122c0.7,0,1.3,0,2-0.2c0.1-0.8,0-1.7,0-2.5s-0.2-1.3,0.8-1.9c2.2-1.5,4.8-2.1,7.3-3.2
						c1.2-0.5,2.4-1.1,3.5-1.8c2.1-1.5,3.6-3.7,4.3-6.2c0.7-2.5,0.9-5.1,0.5-7.6c0-0.2-0.1-0.4-0.2-0.5c-0.2-0.1-0.4-0.1-0.4,0.1
						c-2.4,2.4-2.6,2.9-4.1,4.4c-1.5,1.4-3.1,2.6-4.7,3.8c-4.7,3.6-6.3,8.3-6.3,7c-0.2-8.1,7.5-11.9,9.1-26
						c0.5-5.1,0.3-10.2-0.5-15.2l-3.7,3.6c-1.8,1.6-3.4,3.4-4.8,5.5C9.2,85,8.8,89.6,8.7,94c-0.2,4.8-0.1,9.7,0.2,14.5
						c0.3,2.1,0.1,4.3-0.4,6.4c-1.3-0.1-1.6-1.9-1.7-3.3l-0.3-6.7c0-2.2-0.3-4.4-0.9-6.5c-0.9-2.7-3-4.9-5-7C-2,89-5,87.1-8.2,85.7
						c-0.1,4.5,0.7,8.1,1.4,12.6c0.2,2.1,0.9,4.2,2,6c2.3,4.3,6.6,9,10,12.3c1.6,1.5,0.9,4.9,1,5C7,122,7.9,122.1,8.8,122z"/>
					<path class="st4" d="M59.4,108.8c-0.8,0.9-3.2,0.7-3.5-0.5c-0.8-2.7,0.6-5.1,2.3-7.3C58.8,102.4,61,107.1,59.4,108.8z"/>
					<path class="st4" d="M47.3,93.1c-0.8,0.9-3.2,0.7-3.5-0.5c-0.8-2.7,0.6-5.1,2.3-7.3C46.8,86.7,48.9,91.4,47.3,93.1z"/>
					<path class="st4" d="M37,114.9c-0.8,0.9-3.2,0.7-3.5-0.5c-0.8-2.7,0.6-5.1,2.3-7.3C36.5,108.5,38.6,113.2,37,114.9z"/>
					<path class="st4" d="M25.1,137.5c-0.8,0.9-3.2,0.7-3.5-0.4c-0.8-2.7,0.6-5.1,2.3-7.3C24.5,131.1,26.7,135.8,25.1,137.5z"/>
					<path class="st4" d="M4.5,88.3c-0.7,0.8-2.8,0.6-3.1-0.4c-0.7-2.4,0.5-4.4,2.1-6.4C4,82.7,5.9,86.8,4.5,88.3z"/>
					<path class="st4" d="M58,131.9c-0.8,0.9-3.2,0.7-3.5-0.5c-0.8-2.7,0.6-5.1,2.3-7.3C57.5,125.5,59.6,130.2,58,131.9z"/>
					<path class="st4" d="M81.6,121c-0.8,0.9-3.2,0.7-3.5-0.5c-0.8-2.7,0.6-5.1,2.3-7.3C81.1,114.6,83.2,119.3,81.6,121z"/>
					<path class="st4" d="M77.6,97c-0.7,0.7-2.7,0.6-3-0.4c-0.6-2.3,0.5-4.3,2-6.1C77.1,91.6,79,95.5,77.6,97z"/>
					<path class="st4" d="M80.6,141.7c-0.7,0.7-2.7,0.6-3-0.4c-0.6-2.3,0.5-4.3,2-6.1C80.1,136.3,81.9,140.2,80.6,141.7z"/>
					<path class="st8" d="M18,76.5c0-0.3-0.5-0.4-0.6-0.1c-0.7,2.2-2.3,3.8-3.3,5.8c-0.9,1.9-1.6,3.9-1.9,6c-0.4,2-0.5,4-0.3,6
						c0.3,1.2,0.3,2.5,0,3.7c-0.2,0.7-0.3,1.4-0.2,2.2c0,0.2,0.1,0.4,0.3,0.5c0.3,0.1,0.6,0,0.7-0.2c1.1-1.4,1.7-3.1,1.6-4.9
						c-0.3-2.3-0.3-4.7,0-7c0.3-2.5,1.1-5,2.3-7.3C17.4,79.7,18.3,78.3,18,76.5L18,76.5z"/>
					<path class="st8" d="M-6.2,88.5c-0.1-0.1-0.2-0.1-0.2-0.1c-0.2,0-0.2,0.2-0.2,0.3c0.6,3,3.3,4.8,5.1,7.1c2.2,2.8,3,6,4.2,9.3
						c0.1,0.3,0.3,0.5,0.6,0.6c0.4,0.1,0.9-0.1,1.1-0.6c0.9-2.4-1.6-6.8-2.9-8.7C-0.9,93.5-3.4,90.9-6.2,88.5L-6.2,88.5z"/>
					<path class="st8" d="M-4.7,95.9C-5,95.9-5.3,96.2-5,96.5c1.4,1.5,2.5,3.3,3.2,5.3c0.1,0.4,0.2,0.8,0.5,1c0.2,0.2,0.5,0.2,0.7,0
						c1.1-0.9-0.4-3.3-0.9-4.2C-2.3,97.5-3.3,96.2-4.7,95.9L-4.7,95.9z"/>
					<path class="st8" d="M19.3,109.1c-0.1-0.1-0.3-0.1-0.4,0.1c-0.9,1.2-2.2,2.2-3.7,2.8c-0.6,0.3-2.2,1.4-1.3,2.1s3-1.1,3.7-1.6
						c1.1-0.7,1.8-1.8,1.9-3.1C19.4,109.2,19.4,109.2,19.3,109.1z"/>
					<path class="st7" d="M76.9,157.9c0.1-0.6-0.4-1.2-1.1-1.3c-0.6,0.1-1,0.5-1.1,1.1c-0.1,0.6,0.4,1.2,1.1,1.3
						C76.4,158.9,76.8,158.5,76.9,157.9z"/>
					<path class="st7" d="M78.6,163.3c-0.1-0.1-0.3-0.1-0.3,0.1c0.1,1.5-0.1,2.8-1.5,3.7c-0.6,0.4-1.3,0.7-2,0.9
						c-0.5,0-1,0.1-1.5,0.3c-0.3,0.1-0.2,0.5,0.1,0.6c1.3,0.5,3.5-0.8,4.3-1.7C78.9,166.2,79.2,164.6,78.6,163.3L78.6,163.3z"/>
					<path class="st13" d="M39.1,164.4C39.1,164.4,39.1,164.4,39.1,164.4c0-0.6-0.5-1.1-1.1-1.1c-0.6,0-1.1,0.5-1.1,1.1
						c0,0.6,0.5,1.1,1.1,1.1C38.6,165.5,39,165,39.1,164.4z"/>
					<path class="st7" d="M-15,175.2c-0.1,0-0.2,0.1-0.2,0.2c0,0.5,0.6,0.9,0.7,1.3s0.4,1.1,0.2,1.5c-0.4,0.6-1.4,0.3-1.9-0.1
						s-0.8-1-1.3-1.2c0,0,0,0,0,0c-0.1,0-0.2,0.1-0.2,0.2c0.2,1,0.8,1.9,1.7,2.4c0.8,0.5,1.9,0.3,2.6-0.4c0.4-0.7,0.5-1.6,0.1-2.3
						C-13.7,176.2-14.3,175-15,175.2L-15,175.2z"/>
					<path class="st7" d="M-21.2,178.8c-0.1,0.1-0.1,0.2-0.1,0.3c0.3,0.5,0.5,1,0.6,1.5c0,0.4,0,1.1-0.4,1.3
						c-1.2,0.6-1.9-1.7-2.9-1.9c0,0,0,0-0.1,0c-0.2,0-0.3,0.1-0.3,0.3c0.2,1,0.7,1.9,1.6,2.5c0.8,0.7,2,0.6,2.8-0.1
						c0.6-0.8,0.8-1.8,0.5-2.7C-19.8,179.4-20.4,178.4-21.2,178.8L-21.2,178.8z"/>
					<path class="st7" d="M-17.6,183.7c0.9,0.3,1.9,0.6,2.9,0.8c0.4-0.6,0.6-1.3,0.6-2.1l-2.8,0.7
						C-17.2,183.3-17.6,183.5-17.6,183.7z"/>
					<path class="st7" d="M-11.9,183.4c0-0.2-0.1-0.3-0.2-0.3c-0.1,0-0.2,0.1-0.2,0.2c0,0.2,0.1,0.3,0.2,0.3
						C-12,183.6-11.9,183.5-11.9,183.4z"/>
					<path class="st7" d="M-12.5,184.8c0-0.2-0.2-0.3-0.3-0.3c-0.2,0-0.3,0.2-0.3,0.3c0,0.2,0.2,0.3,0.3,0.3
						C-12.6,185.2-12.5,185-12.5,184.8z"/>
					<path class="st7" d="M-12.8,183.9c0-0.2-0.1-0.3-0.3-0.3c-0.2,0-0.3,0.1-0.3,0.3c0,0.2,0.1,0.3,0.3,0.3
						C-13,184.2-12.8,184.1-12.8,183.9z"/>
					<path class="st7" d="M-16.7,185.7c0-0.2-0.1-0.4-0.3-0.4c-0.1,0-0.3,0.1-0.3,0.3c0,0.2,0.1,0.4,0.3,0.4
						C-16.9,185.9-16.8,185.8-16.7,185.7z"/>
					<path class="st7" d="M-17.3,184.8c0-0.2-0.1-0.4-0.3-0.4c-0.1,0-0.2,0.1-0.3,0.3c0,0.2,0.1,0.4,0.3,0.4
						C-17.4,185-17.3,184.9-17.3,184.8z"/>
					<path class="st7" d="M-18.1,185.9c0-0.2-0.1-0.3-0.2-0.3c-0.1,0-0.2,0.1-0.2,0.2c0,0.2,0.1,0.3,0.2,0.3
						C-18.2,186.1-18.1,186-18.1,185.9z"/>
					<path class="st7" d="M-10.3,188.1c0,0,0-0.1,0-0.1c0-0.1-0.1-0.1-0.2-0.1c-0.4,0.1-0.7,0.2-1.1,0.3c-0.3,0-0.6,0.1-0.9,0.4
						c-0.1,0.1-0.1,0.4,0.1,0.4c0.4,0,0.8-0.1,1.1-0.2C-10.8,188.6-10.5,188.4-10.3,188.1L-10.3,188.1z"/>
					<path class="st7" d="M-10.1,189.9c0.1-0.1,0.1-0.4-0.1-0.4c-0.7,0-1.6-0.2-2.2,0.3c0,0,0,0,0,0c-0.1,0.1-0.1,0.2,0,0.3
						C-11.7,190.6-10.7,190.5-10.1,189.9L-10.1,189.9z"/>
					<path class="st7" d="M-10.4,191.7C-10.4,191.7-10.4,191.7-10.4,191.7c0.1-0.1,0.1-0.2,0-0.3c-0.4-0.2-0.8-0.3-1.3-0.3
						c-0.4-0.1-0.9,0-1.3,0.1c-0.1,0.1-0.2,0.2-0.1,0.4C-12.6,192.3-11.1,192.1-10.4,191.7L-10.4,191.7z"/>
					<path class="st5" d="M-7.6,164c-0.3-0.4-0.7-0.7-1.1-0.9c-0.4-0.2-0.9-0.3-1.3-0.1c0,0,0,0-0.1,0.1c-0.2,0.2-0.2,0.4,0,0.6
						c0.3,0.2,0.7,0.4,1.1,0.4c0.4,0.1,0.8,0.2,1.2,0.3C-7.6,164.5-7.5,164.2-7.6,164z"/>
					<path class="st5" d="M-9.3,166.3c0.2,0.1,0.4-0.2,0.3-0.4c-0.2-0.4-0.5-0.7-0.8-0.9c-0.4-0.2-0.9-0.4-1.3-0.1c0,0,0,0,0,0
						c-0.2,0.1-0.3,0.4-0.2,0.6c0.3,0.4,0.6,0.4,1,0.5L-9.3,166.3L-9.3,166.3z"/>
					<path class="st5" d="M-12.4,163.5C-12.4,163.5-12.4,163.5-12.4,163.5c0.2-0.2,0.1-0.4,0-0.5c-0.4-0.2-1.2-0.5-1.6-0.2
						c-0.1,0.1-0.2,0.2-0.1,0.4C-13.7,163.7-13,163.8-12.4,163.5L-12.4,163.5z"/>
					<path class="st5" d="M-15.4,162.2c0.1,0,0.2-0.1,0.2-0.1c0.1-0.1,0-0.3-0.1-0.3c-0.4-0.3-1-0.5-1.5-0.5c-0.4,0-1.4,0.1-1.3,0.7
						s0.7,0.5,1.1,0.4C-16.5,162.2-16,162.2-15.4,162.2L-15.4,162.2z"/>
					<path class="st5" d="M-15.4,164.5c0-0.1-0.1-0.3-0.2-0.3c-0.6-0.1-1.3-0.3-1.9,0c0,0-0.1,0.1-0.1,0.1c-0.1,0.1,0,0.3,0.1,0.4
						c0.6,0.3,1.3,0.1,1.9,0C-15.5,164.6-15.5,164.6-15.4,164.5z"/>
					<path class="st5" d="M-13.5,165.8c0.3,0,0.3-0.5,0-0.5c-0.2,0-0.3,0-0.4,0.1c0,0,0,0-0.1,0.1c-0.1,0.1,0,0.2,0.1,0.3
						C-13.8,165.8-13.6,165.8-13.5,165.8L-13.5,165.8z"/>
					<path class="st5" d="M-10.7,168.6c0.3,0,0.3-0.4,0.1-0.5c-0.5-0.1-1.3-0.4-1.8-0.1c0,0-0.1,0.1-0.1,0.1c-0.1,0.1,0,0.3,0.1,0.4
						c0.3,0.1,0.6,0.1,0.8,0.1C-11.3,168.5-11,168.5-10.7,168.6L-10.7,168.6z"/>
					<path class="st5" d="M-5.6,169.6c0,0,0.1,0,0.1,0.1c0.1,0,0.3,0,0.3-0.2c0.1-0.5-0.2-1-0.6-1.2c-0.4-0.3-0.8-0.5-1.3-0.5
						c0,0,0,0-0.1,0c-0.1,0-0.2,0.2-0.2,0.3c0.1,0.4,0.5,0.6,0.9,0.8C-6.1,169.1-5.8,169.3-5.6,169.6L-5.6,169.6z"/>
					<path class="st5" d="M-4.6,166.6c0,0,0.1,0,0.1,0.1c0.1,0,0.2-0.1,0.2-0.2c0-0.2,0-0.3-0.1-0.5c-0.1-0.2-0.2-0.3-0.4-0.4
						c-0.3-0.2-0.8-0.4-1.1-0.2c-0.1,0-0.1,0.1-0.1,0.2C-5.9,166.3-4.9,166.2-4.6,166.6L-4.6,166.6z"/>
					<path class="st5" d="M0.5,168c0.1,0.1,0.1,0.1,0.2,0.1c0.1,0,0.2-0.2,0.1-0.3c-0.1-0.5-0.4-1-0.9-1.3c-0.4-0.3-1.1-0.7-1.6-0.4
						c-0.2,0.1-0.2,0.3-0.2,0.5c0.1,0.5,0.7,0.6,1.1,0.8C-0.2,167.5,0.2,167.7,0.5,168L0.5,168z"/>
					<path class="st5" d="M-0.6,171c0,0.1,0.2,0.2,0.3,0.1c0.1,0,0.3-0.1,0.3-0.3c0-0.5-0.3-1.1-0.7-1.4c-0.4-0.4-0.9-0.9-1.6-0.6
						c-0.2,0.1-0.3,0.3-0.2,0.5c0.1,0.5,0.6,0.6,1,0.9C-1.2,170.5-0.9,170.7-0.6,171L-0.6,171z"/>
					<path class="st5" d="M1.8,169.8c-0.1,0-0.1,0-0.1,0.1c-0.1,0.1-0.1,0.2,0,0.3c0.5,0.5,0.8,1,1.2,1.6c0.3,0.5,0.7,1.7,1.4,1
						c0.2-0.2,0.2-0.4,0.2-0.6c-0.2-0.6-0.6-1.2-1.2-1.6C2.9,170.1,2.3,169.8,1.8,169.8L1.8,169.8z"/>
					<path class="st5" d="M6.2,173.4c0,0.2,0.1,0.4,0.2,0.6c0.1,0.3,0.2,0.5,0.3,0.8c0.1,0.3,0.1,0.9,0.6,0.8c0.1,0,0.2-0.1,0.3-0.3
						c0.1-0.5-0.1-1-0.4-1.4c-0.2-0.3-0.5-0.7-0.9-0.7C6.3,173.3,6.2,173.3,6.2,173.4z"/>
					<path class="st5" d="M4.2,175.2c-0.1-0.2-0.4-0.1-0.4,0.2c0.1,0.6,0.1,1.3,0.2,1.9s1,0.3,0.9-0.2
						C4.7,176.4,4.5,175.8,4.2,175.2L4.2,175.2z"/>
					<path class="st5" d="M1.1,175.6c0,0.1,0.2,0.1,0.2,0c0-0.9-0.2-1.7-0.7-2.4c-0.5-0.6-1.4,0-1,0.6
						C0.2,174.3,0.6,174.9,1.1,175.6L1.1,175.6z"/>
					<path class="st5" d="M-3.3,173.7c0.2,0.1,0.4-0.2,0.3-0.3s-0.1-0.3-0.2-0.5c-0.1-0.2-0.2-0.4-0.4-0.6c-0.3-0.4-0.8-0.6-1.2-0.4
						c-0.2,0.1-0.3,0.4-0.1,0.6c0.2,0.3,0.5,0.5,0.8,0.6c0.1,0.1,0.3,0.2,0.4,0.3C-3.6,173.6-3.4,173.7-3.3,173.7L-3.3,173.7z"/>
					<path class="st5" d="M-1.3,176.6c-0.1-0.1-0.2-0.1-0.3-0.1c-0.1,0-0.2,0.2-0.2,0.3c0.1,0.4,0.1,0.8,0.1,1.2
						c-0.1,0.3,0,0.7,0.1,1c0,0.1,0.1,0.1,0.2,0.2c0.2,0.1,0.5,0.1,0.6-0.2c0.2-0.4,0.2-0.9,0-1.3C-0.9,177.3-1.1,176.9-1.3,176.6
						L-1.3,176.6z"/>
					<path class="st5" d="M2,179.6c-0.1,0-0.2,0.1-0.2,0.3c-0.1,0.6-0.1,1.2-0.2,1.8l0,0c-0.1,0.3,0.1,0.7,0.4,0.8s0.7-0.1,0.8-0.4
						c0.3-0.8-0.3-1.5-0.5-2.2C2.2,179.6,2.1,179.6,2,179.6z"/>
					<path class="st5" d="M6.9,177.3c-0.1-0.1-0.4,0-0.4,0.2c0.2,0.7,0.4,1.3,0.6,2c0.1,0.1,0.2,0.2,0.4,0.2c0.3,0,0.6-0.2,0.6-0.5
						C8,178.4,7.5,177.7,6.9,177.3L6.9,177.3z"/>
					<path class="st5" d="M5.4,181.6c-0.2-0.1-0.3,0-0.4,0.2c-0.2,0.5-0.3,1.1-0.1,1.7c0,0.1,0.2,0.3,0.3,0.3
						c0.2,0.1,0.5-0.1,0.6-0.3c0.1-0.6,0.1-1.1-0.1-1.7C5.6,181.7,5.5,181.6,5.4,181.6z"/>
					<path class="st5" d="M9,182.8c0-0.1-0.1-0.3-0.3-0.3c-0.1,0-0.3,0.1-0.3,0.3c-0.2,0.8-0.3,1.6-0.2,2.4c0,0.1,0.1,0.1,0.1,0.2
						c0.2,0.2,0.5,0.2,0.6,0C9.6,184.6,9.1,183.7,9,182.8L9,182.8z"/>
					<path class="st5" d="M7.2,185.9c-0.1-0.1-0.3,0-0.4,0.1c-0.2,0.4-0.4,0.9-0.4,1.4c-0.1,0.3,0.1,0.6,0.4,0.7
						c0.3,0.1,0.6-0.1,0.7-0.4C7.7,187.2,7.6,186.5,7.2,185.9C7.2,186,7.2,185.9,7.2,185.9z"/>
					<path class="st5" d="M9.5,188.8c0-0.1-0.1-0.1-0.1-0.1c-0.2-0.1-0.4,0-0.5,0.1c-0.2,0.3-0.3,0.6-0.3,1c0,0.2,0.1,0.3,0.2,0.4
						c0.2,0.2,0.6,0.1,0.8-0.1C9.7,189.6,9.7,189.1,9.5,188.8L9.5,188.8z"/>
					<path class="st5" d="M9,192.6c0-0.1-0.1-0.3-0.2-0.3c-0.2,0-0.3,0.1-0.4,0.2c0,0.2-0.1,0.3-0.2,0.4c-0.1,0.1-0.1,0.1-0.3,0.4
						c-0.1,0.2-0.2,0.6,0.1,0.7c0.3,0.1,0.6-0.3,0.7-0.5C8.9,193.2,9,192.9,9,192.6L9,192.6z"/>
					<path class="st5" d="M6.3,191.1c-0.1-0.2-0.4-0.3-0.5-0.1c-0.2,0.5-0.7,1-0.7,1.5c0,0.1,0,0.1,0.1,0.2c0.1,0.2,0.4,0.3,0.6,0.2
						C6.3,192.5,6.5,191.8,6.3,191.1L6.3,191.1z"/>
					<path class="st5" d="M3.5,186c0-0.1-0.1-0.1-0.1-0.1c-0.2-0.1-0.4,0-0.4,0.1c-0.1,0.3-0.2,0.7-0.3,1c-0.1,0.3-0.2,0.7-0.2,1
						c0.1,0.2,0.2,0.3,0.4,0.3c0.5,0.1,0.9-0.6,0.9-1C3.7,186.9,3.7,186.4,3.5,186L3.5,186z"/>
					<path class="st5" d="M0.1,182.8c-0.2,0-0.3,0.1-0.3,0.3c0,0.2-0.1,0.4-0.1,0.6c-0.1,0.2-0.1,0.4-0.1,0.6c0,0.1,0.1,0.2,0.2,0.3
						c0.2,0.1,0.4,0.1,0.5-0.1c0.2-0.5,0.2-1,0.1-1.4C0.4,182.9,0.2,182.8,0.1,182.8z"/>
					<path class="st5" d="M0.7,187.8c0-0.1-0.1-0.1-0.1-0.2c-0.2-0.1-0.3,0-0.4,0.1c-0.3,0.5-0.5,1-0.5,1.5c0,0.2,0.1,0.3,0.2,0.4
						c0.2,0.1,0.5,0.1,0.7-0.1C0.8,189,0.9,188.4,0.7,187.8L0.7,187.8z"/>
					<path class="st5" d="M2.8,190.4c0-0.2-0.1-0.4-0.2-0.4c-0.2,0-0.4,0.1-0.4,0.2c-0.1,0.3-0.2,0.5-0.3,0.8
						c-0.1,0.2-0.2,0.4-0.1,0.6c0,0.1,0.2,0.2,0.3,0.2c0.3-0.1,0.4-0.4,0.5-0.6C2.6,190.9,2.7,190.6,2.8,190.4L2.8,190.4z"/>
					<path class="st5" d="M3.3,193.7c0-0.3-0.4-0.4-0.6-0.2c-0.3,0.4-0.7,0.7-1,1.2c0,0.1-0.1,0.1-0.1,0.2c0,0.2,0.2,0.5,0.4,0.5
						C2.9,195.4,3.3,194.4,3.3,193.7L3.3,193.7z"/>
					<path class="st5" d="M0.3,193.2c0-0.1-0.1-0.2-0.2-0.2c-0.2-0.1-0.4-0.1-0.5,0.1c-0.1,0.2-0.3,0.4-0.4,0.5
						c-0.1,0.2-0.1,0.4,0.1,0.6c0.2,0.2,0.4,0.2,0.6,0.1c0.2-0.1,0.3-0.3,0.4-0.6C0.4,193.5,0.4,193.3,0.3,193.2L0.3,193.2z"/>
					<path class="st5" d="M-1.9,191c0-0.1-0.1-0.2-0.2-0.3c-0.2-0.1-0.4,0-0.5,0.1v0.1l0.1-0.1c-0.4,0.2-0.7,0.6-0.8,1.1
						c-0.1,0.3,0.1,0.7,0.4,0.8c0.3,0.1,0.6,0,0.7-0.3c0.1-0.2,0.2-0.4,0.3-0.6c0-0.1,0-0.2,0-0.4c0-0.1,0-0.1,0-0.2
						C-1.8,191-1.8,191-1.9,191L-1.9,191z"/>
					<path class="st5" d="M-2.8,194.5c-0.2-0.1-0.5,0-0.6,0.3c-0.1,0.3-0.2,0.7-0.2,1.1c0,0.1,0.1,0.2,0.1,0.2
						c0.2,0.2,0.5,0.2,0.8,0c0.3-0.4,0.3-0.9,0.1-1.3C-2.6,194.6-2.7,194.5-2.8,194.5z"/>
					<path class="st5" d="M-0.5,196c0.1-0.3-0.3-0.5-0.5-0.3h-0.1c-0.1,0-0.1,0-0.2,0c-0.1,0-0.2,0.1-0.2,0.2
						c-0.1,0.2,0,0.4,0.1,0.5c0,0,0.1,0,0.1,0.1C-0.9,196.5-0.6,196.3-0.5,196L-0.5,196z"/>
					<path class="st5" d="M-4.6,193.2c0.2-0.3-0.2-0.6-0.4-0.4c-0.3,0.1-0.5,0.3-0.7,0.6c-0.3,0.3-0.5,0.6-0.3,1c0-0.1,0-0.2,0-0.3
						c0,0.1,0,0.2,0,0.3c0.1,0.2,0.1,0.1,0-0.2c0,0.1,0,0.1,0,0.2c0.1,0.2,0.3,0.3,0.5,0.3h-0.2c0.4,0.1,0.7-0.2,0.9-0.5
						C-4.8,193.7-4.7,193.4-4.6,193.2L-4.6,193.2z"/>
					<path class="st5" d="M-5.6,195.9C-5.6,195.9-5.6,195.9-5.6,195.9c-0.2-0.2-0.4-0.2-0.6,0c-0.2,0.2-0.2,0.4-0.2,0.7
						c0,0.2,0.2,0.3,0.4,0.4c0.3,0.1,0.6-0.1,0.6-0.4C-5.4,196.3-5.5,196.1-5.6,195.9L-5.6,195.9z"/>
					<path class="st5" d="M-2.3,187.1c0.1-0.5-0.8-0.5-0.9-0.1s-0.4,0.8-0.4,1.3c0,0.1,0,0.2,0.1,0.2c0.1,0.2,0.4,0.3,0.6,0.2
						C-2.4,188.4-2.4,187.6-2.3,187.1L-2.3,187.1z"/>
					<path class="st5" d="M-15,167.9c0.2,0.1,0.4-0.2,0.2-0.3c-0.2-0.2-0.6-0.2-0.8-0.1c0,0,0,0-0.1,0.1c0,0.1,0,0.1,0.1,0.2
						C-15.5,167.7-15.3,167.8-15,167.9L-15,167.9z"/>
					<path class="st5" d="M-18.7,166.6c0.1,0,0.1-0.1,0.1-0.1c0.1-0.1,0-0.3-0.1-0.3c-0.2-0.2-0.5-0.2-0.8-0.2
						c-0.3,0-0.6,0.2-0.7,0.5c0,0.1,0,0.3,0.1,0.3C-19.6,166.8-19.1,166.8-18.7,166.6L-18.7,166.6z"/>
					<path class="st5" d="M-20.2,164.2c0.1,0,0.1,0,0.2-0.1c0.1-0.1,0.1-0.2,0-0.3c-0.1-0.1-0.1-0.1-0.2-0.2
						c-0.5-0.4-1.2-0.3-1.6,0.2c-0.2,0.4,0.1,0.8,0.5,0.7C-20.9,164.3-20.6,164.3-20.2,164.2L-20.2,164.2z"/>
					<path class="st5" d="M-19.9,162.1C-19.8,162.1-19.8,162.1-19.9,162.1c0.1-0.2,0.1-0.3,0-0.4c-0.5-0.3-1.4-0.5-1.9,0
						c0,0,0,0,0,0.1c-0.1,0.2-0.1,0.4,0.1,0.5C-21.1,162.5-20.4,162.5-19.9,162.1L-19.9,162.1z"/>
					<path class="st5" d="M-23.6,163.5C-23.6,163.5-23.6,163.5-23.6,163.5c0.1-0.2,0.1-0.4-0.1-0.5c-0.4-0.2-0.8-0.2-1.2,0
						c-0.2,0.1-0.3,0.2-0.5,0.4c-0.1,0.2-0.2,0.4-0.3,0.6c-0.1,0.4,0.3,0.6,0.6,0.5c0.2-0.1,0.3-0.1,0.4-0.2
						c0.1-0.1,0.2-0.2,0.4-0.3C-24,163.8-23.8,163.7-23.6,163.5L-23.6,163.5z"/>
					<path class="st5" d="M-22.7,165.9c0.1-0.1,0.1-0.2,0-0.3c-0.1-0.2-0.3-0.3-0.4-0.3c-0.2-0.1-0.4-0.1-0.7,0
						c-0.5,0.1-0.8,0.6-0.7,1.1c0.1,0.2,0.2,0.3,0.4,0.3c0.3,0,0.6-0.2,0.9-0.5c0.1-0.1,0.2-0.2,0.3-0.2
						C-22.9,166.1-22.9,166-22.7,165.9C-22.7,165.7-22.9,166.1-22.7,165.9L-22.7,165.9z"/>
					<path class="st5" d="M-21.9,167.7C-21.9,167.7-21.9,167.6-21.9,167.7c0.1-0.2,0.1-0.3,0-0.4c-0.5-0.3-1.2-0.1-1.5,0.4
						c0,0.1-0.1,0.2,0,0.3c0,0.2,0.2,0.3,0.4,0.3C-22.6,168.1-22.3,167.9-21.9,167.7L-21.9,167.7z"/>
					<path class="st5" d="M-24.8,168.6c0.1-0.1,0.2-0.2,0.1-0.3c0-0.2-0.2-0.3-0.4-0.2h0.1c-0.1,0-0.2,0-0.3,0
						c-0.5,0.1-0.9,0.6-0.8,1.1c0,0.1,0.1,0.1,0.1,0.2c0.2,0.2,0.5,0.2,0.7,0c0.1-0.2,0.2-0.3,0.3-0.5
						C-24.9,168.8-24.8,168.7-24.8,168.6C-24.8,168.6-24.7,168.5-24.8,168.6L-24.8,168.6z"/>
					<path class="st5" d="M-26.8,166.6c0,0,0.1-0.1,0.1-0.1c0-0.1,0-0.2-0.2-0.3c-1.1-0.2-2.7,1.2-2.2,2.3c0.1,0.2,0.3,0.3,0.5,0.2
						c0.4-0.3,0.6-0.7,0.8-1.1C-27.5,167.3-27.2,166.9-26.8,166.6L-26.8,166.6z"/>
					<path class="st5" d="M-27.2,165.2c0.2-0.1,0.3-0.3,0.2-0.5c-0.1-0.2-0.3-0.3-0.5-0.2c-0.3,0.1-0.5,0.3-0.5,0.6
						c0,0.1,0.1,0.3,0.2,0.3c0.2,0.1,0.4,0,0.5-0.1C-27.3,165.3-27.2,165.3-27.2,165.2C-27.2,165.2-27.2,165.2-27.2,165.2
						L-27.2,165.2z"/>
					<path class="st5" d="M-30.7,168.5c-0.2-0.1-0.4,0-0.5,0.1c-0.3,0.4-0.5,0.9-0.6,1.4c-0.1,0.4-0.1,0.9,0.2,1.1
						c0.1,0.1,0.2,0.1,0.3,0.1c0.4-0.2,0.5-0.6,0.6-1.1c0.1-0.5,0.1-0.9,0.1-1.4C-30.6,168.7-30.6,168.6-30.7,168.5z"/>
					<path class="st5" d="M-28.2,170.5c0-0.1,0-0.2,0-0.3c-0.1-0.2-0.3-0.2-0.5-0.1c-0.6,0.3-1.2,1.4-0.6,1.9c0.2,0.2,0.5,0.2,0.6,0
						c0.2-0.3,0.2-0.5,0.3-0.8L-28.2,170.5L-28.2,170.5z"/>
					<path class="st5" d="M-26.5,170.6c-0.2-0.1-0.4,0-0.5,0.3c-0.1,0.4-0.2,1.3,0.4,1.3s0.5-0.9,0.4-1.3
						C-26.2,170.7-26.3,170.6-26.5,170.6z"/>
					<path class="st5" d="M-29.5,177.2c0.2,0.1,0.4-0.1,0.4-0.2c-0.1-0.4-0.1-0.9-0.3-1.3c0,0,0-0.1,0-0.1c-0.1-0.2-0.3-0.4-0.6-0.3
						s-0.4,0.3-0.3,0.6C-30.1,176.3-29.9,176.8-29.5,177.2L-29.5,177.2z"/>
					<path class="st5" d="M-24.3,169.9C-24.3,169.9-24.4,169.9-24.3,169.9c-0.2-0.1-0.4-0.1-0.5,0.1c-0.1,0.2-0.1,0.4-0.1,0.7
						c0,0.1,0,0.1,0,0.2c0.1,0.1,0.3,0.2,0.4,0.1c0.2-0.1,0.3-0.3,0.3-0.5C-24.1,170.2-24.2,170-24.3,169.9L-24.3,169.9z"/>
					<path class="st5" d="M-24.9,173.5C-24.9,173.4-24.8,173.4-24.9,173.5c0.1-0.2,0-0.4-0.2-0.4c-0.2,0-0.3,0-0.5,0.1
						c-0.2,0.2-0.2,0.5,0,0.7c0,0,0,0,0.1,0c0.2,0.1,0.4,0.1,0.5-0.1c0-0.1,0.1-0.1,0.1-0.2C-24.9,173.6-24.8,173.3-24.9,173.5
						L-24.9,173.5z"/>
					<path class="st5" d="M-27.9,173.3c0,0,0-0.1-0.1-0.1c-0.1-0.1-0.3-0.1-0.4,0c-0.2,0.3-0.4,0.6-0.4,1c0,0.1,0.1,0.3,0.2,0.3
						c0.2,0.1,0.4,0,0.5-0.1C-27.9,174-27.8,173.6-27.9,173.3L-27.9,173.3z"/>
					<path class="st5" d="M-30.6,173.1c0-0.1,0-0.2-0.1-0.2c-0.1-0.1-0.3-0.1-0.5,0c-0.3,0.4-0.4,0.8-0.3,1.3c0.1,0.4,0.7,0.4,0.8,0
						c0-0.2,0-0.4,0-0.6C-30.6,173.4-30.6,173.2-30.6,173.1L-30.6,173.1z"/>
					<path class="st5" d="M-32.3,173.1c0-0.1-0.1-0.2-0.2-0.2c-0.1,0-0.2,0.1-0.3,0.2c0,0.1,0,0.2,0,0.4c0,0.1,0.1,0.2,0.2,0.2
						c0.1,0,0.2-0.1,0.2-0.2C-32.3,173.3-32.3,173.2-32.3,173.1L-32.3,173.1z"/>
					<path class="st5" d="M-32.3,175.8c-0.1-0.3-0.7-0.3-0.7,0.1c0,0.3,0.1,0.7,0.1,1c0.1,0.3,0.3,0.7,0.6,0.6
						c0.3-0.1,0.2-0.6,0.1-0.8C-32.1,176.3-32.2,176-32.3,175.8L-32.3,175.8z"/>
					<path class="st5" d="M-31.1,178.1c0,0.3,0.1,1.1,0.6,0.9s0.1-0.8-0.1-1.1C-30.7,177.7-31.1,177.8-31.1,178.1z"/>
					<path class="st5" d="M-28.2,179.8c0.2,0,0.4-0.3,0.3-0.5c-0.1-0.4-0.4-0.8-0.9-0.7c-0.2,0.1-0.3,0.2-0.3,0.4
						c0.1,0.2,0.3,0.3,0.4,0.5C-28.6,179.8-28.4,179.9-28.2,179.8z"/>
					<path class="st5" d="M-31.9,181.3c0.5,0.3,0.9-0.6,0.3-0.8l0,0c-0.1-0.2-0.3-0.2-0.5-0.1c-0.2,0.1-0.2,0.3-0.1,0.5
						C-32.2,181.1-32.1,181.2-31.9,181.3L-31.9,181.3z"/>
					<g>
						<defs>
							<path id="SVGID_7_" d="M82.1,201.4c0.9,1.9,0.3,5.3,2.4,5c3.7-0.5,8.7-4.3,11.2-7c2.5-2.7,5-5.5,7.5-8.2c2.9-3,5.6-6.3,8-9.8
								c2.3-3.6,3-7.5,3.7-11.7c0.6-3.1,0.5-6.3-0.3-9.4c-0.9-2.7-2.1-5.3-3.6-7.8c-0.6-1.1-1.4-2-2.3-2.9c-0.8-0.8-2-1.1-3.1-0.8
								c-4.7,2-5,5.7-7.7,9c-1.3,1.6-2.9,4.4-4.4,5.8l-10,8.8c-1.2,1.1-2.5,2.2-3.9,3.1C76.4,184.3,78.4,193,82.1,201.4z"/>
						</defs>
						<clipPath id="SVGID_4_">
							<use xlink:href="#SVGID_7_"  style="overflow:visible;"/>
						</clipPath>
						<g class="st17">
							<path class="st5" d="M121.7,167.7c0-0.1-0.1-0.1-0.2-0.1c-0.1,0-0.1,0.1-0.1,0.2c0.3,2-9.6,2.9-9.8-1.7
								c-0.1-2,0.9-4.6-0.1-6.5c-1.5-2.9-5.5-0.7-7.6-3c-3.5-4-2.4-11.5,4.2-10.4c0.5,0.1,0.8-0.6,0.4-0.8c-2.1-0.9-4.5-0.4-6.1,1.2
								c-1.7,1.9-1.8,4.3-1.5,6.6c0.4,2.3,1.8,4.3,3.8,5.5c1.8,1,5.6-0.6,5.9,2.1c0.3,2-0.5,3.9-0.1,5.9c0.5,1.9,2.1,3.3,4,3.6
								c1.8,0.5,3.7,0.4,5.4-0.4C120.7,169.5,122,168.8,121.7,167.7L121.7,167.7z"/>
							<path class="st5" d="M99.5,151.1c0.3-0.1,0-0.5-0.2-0.4c-1.6,0.8-2,2.6-2.2,4.3c-0.4,2,0.7,4,2.5,4.8
								c1.8,0.9,5.2,1.7,6.1,3.8c0.3,0.9,0.4,4.8-2,3.8c-0.7-0.3-1.3-0.7-2-1c-0.7-0.4-1.5-0.5-2.3-0.3c-0.8,0.3-1.5,0.9-2,1.6
								c-1.1,1.9-3.4,2.8-5.5,2.1c-2.4-0.8-3.6-3.4-2.7-5.8c0.5-1.3,1.1-2.5,1.9-3.6c1-1.5,2-3,3.2-4.5c0.5-0.6,2.7-3.8,3.6-3.5
								c0.3,0.1,0.6,0,0.8-0.3c0.2-0.3,0.1-0.8-0.2-1c-1.5-0.8-2.9,0.9-3.8,1.9c-1.6,1.9-3,3.9-4.3,6c-1.4,2.2-3.5,5.1-2.5,8
								c1,2.9,3.2,4.9,6.3,4.7c1.5-0.1,2.9-0.8,3.9-1.9c0.6-0.6,1.2-2.5,2.4-2.1c0.9,0.3,1.7,0.9,2.6,1.2c2.5,1.1,4.6-1.4,4.7-3.8
								c0.1-2.8-2-4.5-4.3-5.6c-1.3-0.6-3.9-1.3-4.6-2.7C98.3,155.6,97.9,152,99.5,151.1L99.5,151.1z"/>
							<path class="st5" d="M95.5,158.8c0.1-0.2-0.2-0.3-0.3-0.2c-1,0.7,0,1.8,0.7,2.3c0.6,0.4,1.1,1.1,1.3,1.9
								c0.1,0.6-0.4,1.4-1.1,1.2c-0.9-0.3-1.2-1.5-1.2-2.3c-0.1-0.9,0.4-1.8,1.3-2.1c0.6-0.4,0.3-1.4-0.4-1.4c-3.3,0-3.1,5.9-0.7,7
								c1.5,0.7,3.8-0.3,3.7-2.2c-0.1-1.1-0.5-2.1-1.3-2.9C97.2,159.9,95.5,158.9,95.5,158.8L95.5,158.8z"/>
							<path class="st5" d="M121.3,174.5c0-0.1-0.1-0.2-0.1-0.2c-0.1-0.1-0.4-0.1-0.5,0.1c-0.7,1.3-2.9,1.5-4.3,1.1
								c-1.8-0.5-1.6-2.2-2.6-3.4c-1.5-1.8-3.9-2.4-6-1.6c-1,0.4-1.3,1.8-1.7,2.7c-1,2.6-3.1,1-4.8,0.6c-2.6-0.6-4.9,1.1-6.4,3
								c-1.7,2.1-2,5-0.9,7.5c1.3,3.1,5.3,6.9,4.2,10.5c-0.7,2.4-1.3,4.9,1.4,6.2c1.8,0.8,4,0.3,5.7-0.4c0.2-0.1,0.2-0.2,0.2-0.4
								c0-0.2-0.2-0.3-0.4-0.3c-1.3,0.3-2.7,0.2-4-0.1c-2.5-0.7-1.6-2.5-1.2-4.5c0.6-2.8-0.3-5.1-1.7-7.5c-1.9-3.1-4.4-6.6-1.9-10
								c1.1-1.5,3-3.3,5.1-2.4c0.8,0.5,1.7,0.8,2.6,1c2.2,0.1,3-1.6,3.7-3.4c0.8-2.4,4.3-1.4,5.2,0.4c0.3,0.9,0.8,1.7,1.3,2.4
								C116,177.2,121.1,177.4,121.3,174.5L121.3,174.5z"/>
							<path class="st5" d="M115.5,181.6c0.1-0.2-0.3-0.4-0.4-0.2c-0.8,1.7-2.8-1-3.3-1.6c-0.6-0.5-1.3-0.9-2.1-1
								c-1.8-0.4-4.1,1-5.1,2.4s-2.1,3.4-0.9,4.9c1,1.4,4.8,4.7,2,6.4c-0.2,0.1-0.3,0.3-0.3,0.4c0,0.3,0.2,0.5,0.5,0.6
								c1.9,0.2,2.7-1.5,2.3-3.2c-0.2-1.1-0.6-2.1-1.2-3c-0.8-1.3-2.8-2.1-1.9-3.8c0.9-1.7,3.5-4.4,5.5-2.6c0.6,0.6,1.3,1.2,2.1,1.6
								C114.1,183.2,114.9,183,115.5,181.6L115.5,181.6z"/>
							<path class="st5" d="M82.8,163.1c0.1-0.1,0-0.3-0.1-0.4c-0.2-0.1-0.4-0.1-0.5,0c-0.8,1.4-1.6,3.1-0.9,4.8
								c0.8,1.9,2.6,2.5,4.2,3.5c2.8,1.7,4.8,5.5,1.1,7.5c-2.1,1.2-4.4,1.3-6.7,1.9c-0.1,0.1-0.2,0.2-0.3,0.3
								c-0.1,0.3,0,0.6,0.3,0.7c3.3,0.7,10.6-1.1,10.6-5.6c-0.1-2.1-1.2-4.1-2.9-5.4c-0.9-0.7-1.9-1.2-2.9-1.7
								C82.4,167.3,81.6,165.6,82.8,163.1L82.8,163.1z"/>
							<path class="st5" d="M86.5,187.4c-0.2,0.2,0.1,0.4,0.3,0.3c1.2-0.5,2.8-1.7,4.2-0.9c0.9,0.6,1.6,1.4,1.9,2.5
								c0.6,2-0.5,3.8-0.1,5.8c0.9,3.8,3.4,10,7.9,10.5c0.5,0.1,0.6-0.6,0.2-0.8c-3.1-2.1-5.4-5.2-6.4-8.7c-0.5-1.7-0.2-2.8,0-4.5
								c0.1-0.9,0-1.8-0.3-2.6C93,185.3,89,183.8,86.5,187.4L86.5,187.4z"/>
							<path class="st5" d="M112.9,151.8C112.9,151.8,112.9,151.8,112.9,151.8c-0.1,0-0.2,0-0.2,0.1c-0.2,0.6-0.2,1.1-0.7,1.6
								c-0.5,0.4-1,0.6-1.6,0.6c-0.9,0-2.1-1.1-1.4-2.1c0.6-0.6,1.5-0.9,2.3-0.7c0.9,0.1,1.6,0.7,1.9,1.6c0,0.2,0.2,0.3,0.3,0.3
								c0.3,0.1,0.5-0.1,0.6-0.3c1.2-3.7-6.2-4.5-6.8-0.8c-0.1,0.4-0.1,0.9,0,1.3c0.4,1.6,2.1,2.6,3.7,2.1c1-0.2,1.9-0.8,2.4-1.7
								C113.8,153.1,113.6,152.3,112.9,151.8L112.9,151.8z"/>
						</g>
					</g>
				</g>
			</g>
			<g>
				<g id="Layer_1-2">
					<path class="st18" d="M176.5,152.6c11.4-10.4,25.4-17.4,40.6-20.5c6.6-1.3,19.7-0.9,26-3.3c13.5-5.2,18.4-15.6,18-30
						c-0.2-9.7-6.2-24-5.1-33.6c1.3-12.7,11.6-24.8,7.4-36.9c-2.9-8.2-11.9-12.9-20.6-13.6s-17.2,1.8-25.7,3.8s-17.5,3.4-25.7,0.7
						c-3.3-1.2-6.5-2.6-9.6-4.2c-14.1-6.2-30-6.5-44.3-1.1c-5.3,2-10.5,5.2-12.9,10.3c-3.6,7.8,0.6,17.4-2.5,25.4
						c-2.6,6.7-9.6,10.4-15.9,13.9c-10.5,5.8-19.8,10.2-25.8,20.6s-3.8,29.5,5.3,37.3c9.4,8.1,20.5,4.1,32,8.8
						c2.2,0.9,4.4,2.1,5.5,4.2c1,1.9,1,4.1,1.4,6.1c1.3,6.7,6.8,12,13.1,14.7s13.2,3.4,20,4c3.6,0.3,7.2,0.6,10.6-0.6
						S174,154.9,176.5,152.6z"/>
					<path class="st10" d="M203.6,43.4c0.1-3.4-3.2-6-4-9.4c-0.1-0.2-0.1-0.3,0-0.5c0.1-0.4,0.7-0.3,1-0.2c2,0.8,3.4,2.6,3.6,4.8
						c0.4-0.6,0.7-1.3,0.8-2.1c0.3-0.7,1-1.4,1.7-1.1c0.6,1.6-0.7,3.3-0.9,5c-0.1,0.6,0,1.3-0.1,1.9c-0.1,0.6-0.5,1.2-1.1,1.4
						C204.3,43.3,203.9,43.2,203.6,43.4z"/>
					<path class="st10" d="M225.2,127.8c1.2,0.2,1.4,1.9,1.8,3c0.3,1.1,0.9,2.2,1.8,3.1c0.9,0.8,2.9,1.3,3.2,0.2
						c0.6-1.7-2.1-3.1-2.2-5c0-0.6,0.1-1.3,0-1.9c-0.2-1.4-1.6-2.2-2.8-3c-0.8-0.6-1.5-1.2-2.2-1.9c-1.7-0.3-2.7,2.4-4.4,2.1
						c1.1,2.6,2.1,6.9,3.4,7.9c0.3,0.2,0.7-0.1,0.8-0.3c0.6-1.2-1-2.9-0.3-4C224.6,127.8,224.9,127.7,225.2,127.8z"/>
					<path class="st9" d="M214.7,197.9c1.3,0.1,2.5,0.4,3.6,1.1c0.9,0.6,4.4,2.2,5.2,1.4c1.6-1.6-3.5-4.2-4.8-6
						c-0.3-0.4-0.6-0.8-1-1.2c-1.4-1.1-3.4-1.1-4.7,0.1c-0.1,0.1-0.2,0.2-0.3,0.4c-0.1,0.2-0.1,0.4-0.1,0.6
						C212.6,195.2,212.2,197.7,214.7,197.9z"/>
					<path class="st5" d="M150.6,184.2c-0.5,1.6-0.7,3.3-0.4,4.9c0.2,1.4,0.6,2.7,1.1,4c0.2,0.5,0.5,0.9,1,1.2
						c0.7,0.2,1.5-0.1,1.8-0.8c0.3-0.6,0.6-1.3,0.7-2c0.3-1.6,1-3,2-4.3c0.5-0.4,0.9-1,1.1-1.6c0.2-0.9-0.3-1.3-1.1-1.9
						c-1.1-1-2.4-1.9-3.7-2.6c-0.7-0.4-1.7-0.6-2.2,0c-0.2,0.3-0.3,0.6-0.3,1C150.7,183.1,151,183.2,150.6,184.2z"/>
					<path class="st5" d="M200,181.4c-0.3-0.9-0.4-1.9-1.2-2.4c-0.3-0.2-0.6-0.3-0.9-0.4c-1.3-0.4-1.2,0-2.4-0.4
						c-0.6-0.3-1.2-0.1-1.5,0.5c0,0,0,0,0,0.1c-1.5,2.1-2.2,4.6-2,7.2c0,0.1,0,0.3,0.1,0.4c0.1,0.1,0.2,0.1,0.3,0.1l1.9,0.1
						c0.2-0.7,0.6-1.4,1.3-1.8c0.1-0.1,0.3-0.2,0.5-0.1c0.2,0,0.4,0.3,0.5,0.5c1.7,3.1,4.7,5.3,8.2,6c0.3,0.1,0.5,0,0.7-0.1
						c0.2-0.2,0.2-0.4,0.2-0.6C205.6,187.2,200.9,184.4,200,181.4z"/>
					<path class="st10" d="M180.4,49c0.1,1.1-0.1,2.3-0.6,3.3c-0.3,0.4-0.6,0.8-1,1.2c-0.4,0.4-0.8,0.7-1.2,1
						c-1.3,0.6-2.8,0.8-4.3,0.7l-3.2-0.1c-0.2,0-0.3,0-0.4-0.1c-0.1-0.1-0.1-0.2-0.2-0.3c-0.2-0.9-0.2-1.7-0.1-2.6
						c1.5-0.4,3.1-1,4.6-1.4c1-0.2,2-0.6,2.9-1.2c0.8-0.8,1.6-1.6,2.2-2.5c0.3-0.3,0.8-0.6,1.1-0.3c0.1,0.2,0.2,0.4,0.2,0.6
						C180.4,47.7,180.4,48.4,180.4,49z"/>
					<path class="st10" d="M188.8,48.7c-0.6-1-0.9-2.2-1-3.3c0-2.2,1.7-3.9,3.1-5.5c0.4-0.5,0.9-1.2,0.5-1.7
						c-0.3-0.3-0.8-0.4-1.3-0.3c-2.2,0.4-4.2,1.6-5.5,3.5c-2.1,3.2-1.8,6.8-0.2,10.2c0.5,0.1,0.9-0.4,1.2-0.8
						C186.7,49.8,187.2,48.7,188.8,48.7z"/>
					<path class="st7" d="M123.7,200.7h1.4c0.4-1.6,0.9-2.8,1.9-3.1c0.5-0.2,1,0.3,1.2,0.8c0.4,0.8,0.9,1.5,1.5,2.2
						c2.1,2.1,3.4,1.8,5.3,2c0.7,0.1,1.5-0.1,2.1-0.5c0.4-0.3,0.6-0.7,0.8-1.2c0.4-1.7-2.3-3.4-3.3-4.8l-0.5-0.7
						c-1-1.3-2.2-2.7-3.8-2.7c-0.8,0.1-1.5,0.3-2.1,0.7c-0.7,0.4-1.3,0.8-1.9,1.3C124.1,196.5,123.4,197.9,123.7,200.7z"/>
					<path class="st7" d="M177.6,195.6c-1.5-1.3-3.3-2.3-5.2-2.9l-3.4-1.3c-1.2-0.6-2.6-0.8-4-0.6c-0.7,0.2-1.6,0.8-2.2,0.3
						c-0.7,3.3,0.6,6.8,3.3,8.8c0.8-0.1,1.5-0.4,2.2-0.8c0-0.5-0.1-0.9-0.4-1.3c-0.3-0.4-0.7-0.7-0.6-1.2c0.1-0.5,0.7-0.8,1.1-0.6
						c0,0,0,0,0,0c0.5,0.2,0.9,0.4,1.2,0.8c1.5,1.3,3.3,2.2,5.2,2.7c1.3,0.3,3,0.3,3.6-0.9S178.4,196.5,177.6,195.6z"/>
					<path class="st14" d="M187.3,125.2c0.1,0.2-0.4,0.1-0.3-0.1s0.3-0.2,0.5-0.2c4.4,0.5,8.8,0.8,13.2,0.9c1.5,0.1,2.9,0,4.4-0.2
						c2.4-0.4,4.6-2,6.7-3.1c4.4,3.2,9.5,6.7,12.4,11.2c2.1,3.3,3.3,7.2,4.6,10.9l1.2,3.4c0.6,1.5,1,3.1,1.3,4.7
						c0.1,2.2-0.9,4.2-1.8,6.1c-5,10.5-8.6,21.7-10.7,33.2c-0.1,0.7-0.4,1.5-1,1.8c-0.3,0.1-0.6,0.1-0.9,0c-0.9-0.1-2-0.1-3-0.1
						c-0.7,0-1.2-0.5-1.4-1.1c-1.2-5.9,2-12.4,1.7-18.5c-0.2-4.6-1.9-9.5,0.6-13.4c1.2-1.9,3.3-3.1,4.5-5c0.5-0.6,0.7-1.4,0.7-2.2
						c-0.2-1.4-1.6-2.3-2.9-3c-5.2-2.8-10.5-5.2-16-7.3c-0.6-0.2-1.3-0.3-1.6,0.1c-0.1,0.2-0.2,0.5-0.2,0.7
						c-0.9,7.9,0.3,15.9-0.1,23.9c0.1,0.8-0.2,1.5-0.7,2.1c-0.4,0.2-0.8,0.4-1.2,0.4c-4.1,0.8-8.4,0.6-12.4-0.4
						c-1.8-0.5-3.6-1.1-5.5-1.5c-6.4-1.3-13,0.6-19.2,2.7c-1.7-4.6-1-2.6-2.7-7.2c7.8-3.4,17-0.7,25-3.5c1.5-0.4,2.9-1.4,3.8-2.6
						c1-1.6,0.8-3.5,0.6-5.4c-0.3-3.1-0.7-6.3-1.2-9.4C184.5,137,183.6,130.1,187.3,125.2z"/>
					<path class="st2" d="M213.4,123.7c-0.9-2.4-1.7-4.9-1.5-7.5c0.3-4.2,3.3-7.6,4.7-11.6c0.9-2.7,1-6.3,1.2-9.2l3,3.3
						c0.9,0.9,1.7,2,2.1,3.2c0.4,1.7,0.2,3.4-0.5,5c-1.1,3.2-2.9,6.2-3.6,9.5c-0.7,3.1-0.4,6.3,0.8,9.2c2.4-0.9,4.9-1.4,7.5-1.4
						c-1.1-5.3,2.1-10.3,3.7-15.5c1.6-5,1.6-10.6-0.8-15.2c-0.9-1.7-2.1-3.3-3.4-4.8c-1.9-2.3-3.9-4.4-6-6.5
						c-1.1-1.1-2.5-2.3-4.1-2.2c0.5,2.9-0.9,5.7-3.5,7c-2.7,1.1-5.9,0.1-7.3-2.5c-1.3-2.5-0.4-6.1,2.2-7.2c0.4-4.7-3.1-8.6-5-12.9
						c-0.7-1.6-1.2-3.3-1.6-5c-0.6-1.9-0.8-3.8-0.6-5.7c0.5-4.2,4.1-7.5,5.2-11.6l-2.9-0.2c-1.1,2.8-4.3,4.2-6.4,6.4
						c-3.1,3.3-3.6,8.2-3.5,12.7c0.1,6.7,0.9,13.3,2.6,19.7c0.1,0.4-0.2,0.2,0.2,0.1c1.1,2,1.6,4.3,1.4,6.6
						c-0.3,1.9-0.9,3.8-1.8,5.6c-1.1,2.6-2.2,5.1-3.4,7.6c-2.1,4.5-4.6,8.9-5.3,13.8c-0.3,2.3-0.3,4.7-0.1,7
						c0.1,2.4,0.2,4.8,0.3,7.2c1.8,1.2,3.9,1.9,6.1,2.2c4.4,0.6,8.8-0.4,13-1.9c1.8-0.8,3.5-1.8,5-3.1
						C212,125.3,212.8,124.5,213.4,123.7z"/>
					<path class="st19" d="M213.2,73.8c-1-0.4-2.2-0.3-3.1,0.4c-2.6,1.8-5.4,3.7-6.4,6.7c-1,3.1-0.1,6.4,2.3,8.6
						c3,2.4,7.4,1.9,9.8-1.1c0.5-0.6,0.9-1.3,1.2-2.1c0.4-1.3,0.6-2.7,0.5-4.1c0-1.2,0-2.3-0.1-3.5c0-1.1-0.2-2.2-0.6-3.2
						C216.4,74.5,214.2,74.2,213.2,73.8z"/>
					<path class="st10" d="M211.7,82.4c3.3-0.6,6.1-1.1,8.3-3.6c0.2-0.3,0.5-0.5,0.6-0.8c0.3-0.6,0.4-1.2,0.4-1.8
						c0-2.3-1.3-4.4-2.6-6.3c-0.9-1.3-2.2-2.7-3.7-2.4c-0.5,0.1-1,0.4-1.4,0.7c-4,2.8-8.2,8.9-5.3,12.9
						C208.9,82.1,210.3,82.6,211.7,82.4z"/>
					<path class="st5" d="M223.2,82.3c-0.3,0.3,1.6,3.4,5,2.3c1.5-0.6,2.6-2,2.7-3.6c0.1-1.6-0.7-3.2-1.9-4.2
						c-0.9-0.8-2.1-1.3-2.6-2.4c-0.7-1.3-0.3-2.8-0.5-4.2s-1.1-4.4-5.7-5.7c-1.2-0.2-2.4-0.2-3.5,0.2c-1.2,0.3-2.2,1-2.8,2
						c-0.3,0.6-0.2,1.3,0.2,1.8c0.3,0.2,0.6,0.4,1,0.5c1.5,0.5,2.9,1.4,3.9,2.6c1.3,2,0.6,4.8-0.3,7c-0.3,0.7-0.5,1.4-0.4,2.2
						c0.1,1.2,0.9,2.2,2.1,2.5C222.9,83.5,222,83,223.2,82.3z"/>
					<path class="st9" d="M182.9,121.3c-1.8-3.5-2.6-7.6-2.2-11.5c0.4-4,1.2-7.8,2.4-11.6c0.2-0.7,0.4-1.4,0.8-2
						c0.7-0.9,1.5-1.7,2.5-2.3c6.2-4.5,11.1-10.6,14.2-17.6c0.5-0.9,0.8-2,0.8-3c-0.1-0.9-0.3-1.8-0.7-2.6c-1.2-3.1-2.7-6.2-4.3-9.1
						c-2.9-4.9-6.9-9.5-6.9-15.1c0-0.2-0.1-0.3-0.3-0.3c0,0-0.1,0-0.1,0c-1.4,0.6-4.5,2.2-5.9,3c-0.4,0.2-0.7,0.7-0.6,1.2
						c0.3,1.3,0.9,4,1.3,5.1c1.4,4.3,2.9,8.7,4.4,13c0.6,1.4,0.8,2.8,0.9,4.3c-0.2,3.2-3.1,5.7-6,7.1c-2.4,1.2-6.1,2.1-8.3,0.5
						c-1.1,1.5-2.9,2.4-4.7,2.5c-2.1,0.1-4.1-1-5.2-2.7c-0.3-0.6-0.6-1.2-0.9-1.7c-0.4-0.6-0.7-1.2-1.2-1.7l-9.1-12
						c-0.3-0.3-0.4-0.7-0.5-1.1c-0.2-1.2,0.7-1.8,1.6-2.1c5.6-2.5,11.5-4.6,17.4-6.3c-0.3-1.3-0.5-2.6-0.8-3.9
						c-7.5,3.1-16.4,1.6-23.5,5.4c-1.1,0.5-2,1.3-2.7,2.3c-1,1.7-0.8,3.9-0.4,5.8c0.3,1.7,0.7,3.4,1.3,5c2.1,5.7,7.5,10.1,6.6,16.2
						c-0.2,1.6-0.9,3.1-2,4.4c-2.1,2.6-2.6,5.9-3,9.1c-0.6,4.4-1.2,8.8-0.6,13.1c0.7,5.4,3,10.4,6.7,14.4c-0.7,0.1-0.6,1,0,1.5
						c0.6,0.4,1.3,0.5,2,0.4c4.8-0.2,9.6-0.7,14.4-1.6C174.8,126.2,179.2,124.2,182.9,121.3z"/>
					<path class="st10" d="M171.3,70.5c0.9,1.3,2.3,2.2,3.9,2.3c-1.9,2.8-1.5,6.5,1,8.8c0.4,0.3,0.6,0.7,0.6,1.2
						c0.2,1.3-1.1,1.6-2.1,1.7c-4.2,0.4-8.8-0.6-11.8-3.5c-0.4-0.4-0.4-1.2,0-1.6c0.1-0.1,0.1-0.1,0.2-0.2c2.5-1.7,4.6-4,5.9-6.7
						C169.4,71.4,170.2,70.7,171.3,70.5z"/>
					<path class="st7" d="M169.6,61c0.2-0.7,0.7-1.4,1.3-1.8c0.9-0.5,2.1-0.1,3.1-0.3c1.4-0.3,2.5-1.7,4-1.9
						c1.3-0.1,2.5,0.5,3.3,1.6c0.8,1.6,1.1,3.3,1,5.1c-0.1,0.1-0.4-1.1-0.6-1.1c-1.3,0.4-2.6,0.7-4,0.9c-0.5,0-1,0.1-1.5,0.2
						c-1.1,0.4-2.1,1.1-2.8,2.1c-0.4,0.5-0.8,1-1.3,1.3c-0.5,0.4-1.2,0.4-1.8,0c-0.2-0.2-0.4-0.4-0.5-0.7
						C169.1,64.7,169,62.8,169.6,61z"/>
					<path class="st10" d="M169.8,74.2c-0.1,0.2,0,0.5,0.2,0.7c2.5,2.3,6.3,2.6,9.1,0.6c0.8-0.7,1.5-1.5,2.1-2.4
						c0.8-0.8,1.4-1.7,1.9-2.7c0.2-0.8,0.3-1.5,0.3-2.3c0-2-0.3-4.2-1.9-5.5c-0.7-0.5-1.6-0.9-2.5-1.1c-0.7-0.2-1.5-0.3-2.3-0.4
						c-3.1,0.1-5.8,2-6.9,4.9C168.6,68.6,168.6,71.6,169.8,74.2z"/>
					<path class="st7" d="M200.7,180.2c4.1-6.9,7.3-14.2,9.6-21.9c0.5-2.1,1.3-4.2,2.3-6.2c1.3-2.2,3.2-4.1,3.3-6.7
						s-1.6-4.7-3.3-6.6c-6.6-7.1-14.4-13-22.9-17.6c-2.6-1.4-6.4-2.1-7.6-1.9c-3.4,0.6-5.3,1.1-8.6,1.9s-9.3,1.9-12.6,3
						c-2.6,0.8-6,1.4-7.7,1.8c-0.6,2-0.5,4.1,0.4,6c0.9,1.8,2,3.4,3.3,4.9c2.4,3.2,5,6.2,7.8,9.1c1.3,1.2,2.5,2.5,3.6,3.9
						c2.3,3,3.3,6.7,4.4,10.3c-5.4,3.1-10.7,6.4-14.9,11c-2.8,3.2-5.2,6.7-7.1,10.5c2.6,1,5,2.6,7,4.6c4.7-8.4,12-15.1,20.8-19
						c2.9-1.3,6.3-2.6,7.2-5.6c0.3-1.5,0.2-3.1-0.2-4.6c-1.8-8.4-2.6-12.1-5-20.4c-0.7-2.3-1.5-5.7-1.1-6c0.8-0.5,3.8,1.6,4.6,2.1
						c8.8,5.1,12.3,7,16.2,13.5c0.3,0.4,0.5,0.8,0.6,1.2c0.7,2.3-1.4,4.3-2.7,6.3c-1.2,2.3-2,4.7-2.3,7.3
						c-1.1,6.3-2.2,12.7-2.2,19.2c2.2,0,4.4,0.3,6.5,1.1C200.2,180.9,200.4,180.7,200.7,180.2z"/>
					<path class="st9" d="M132.8,193.9c-0.9-10,2.8-19.9,10-26.9c1.2-0.9,2.1-2.1,2.9-3.3c1-1.9,0.8-4.2,0.6-6.4
						c-0.7-7.1-1.7-14.7-6.8-19.7c-2.5-2.4-5.7-3.9-8.8-5.3c-0.8-0.4-1.9-0.7-2.6-0.1c-0.3,0.3-0.5,0.6-0.6,1c-1.2,3.9-1,8.2,0.6,12
						c1.3,3,3.4,5.6,5.2,8.4c1.5,2.3,2.7,4.7,3.7,7.2c-4.2,2-7.2,5.9-8.9,10.1c-1.6,4.4-2.5,8.9-2.7,13.6c-0.2,3.4-0.3,6.9,1,10
						C128.5,194.1,130.7,193.9,132.8,193.9z"/>
					<path class="st10" d="M187.1,96.9c0.7,2.3,1.6,2.9,2.3,1.8c0.1-0.2,0.2-0.5,0.2-0.7c0.8-2.5-1.3-4.8-3.5-6
						c-0.5-0.3-1.2-0.5-1.8-0.3c-0.7,0.3-1.2,0.9-1.3,1.6c-0.1,0.7,0,1.5,0.2,2.2c0.8-0.1,1.5,0,2.3,0.2
						C186.1,95.7,186.8,96.2,187.1,96.9z"/>
					<path class="st6" d="M162.6,192.9c0,0.4,0.5,0.4,0.9,0.4c1.6-0.4,3.1-0.9,4.6-1.5c0.3-0.1,0.6-0.3,0.5-0.6
						c-2.3-9.1-5-18.1-4.6-27.5c0.1-2.2,0.2-4.4,0.3-6.6c0.1-1.1,0-2.3-0.3-3.4c-0.5-1-1.1-1.9-1.9-2.7l-15.6-16.8
						c-2.3-2.5-5.4-3.7-8.6-4.9c-2.5-0.9-5.3-1.5-7.7-0.5c-3.2,1.4-4.6,5.4-3.7,8.8s3.7,5.9,6.9,7.4c1.8,0.8,3.7,1.4,5.1,2.8
						s1.8,3,2.8,4.5c1.7,2.5,4.5,4,7,5.6s5.2,3.6,6,6.5c0.4,1.9,0.4,3.9,0.1,5.8C153.8,178.4,156.8,186.7,162.6,192.9z"/>
					<path class="st5" d="M141.1,97.7c-0.6-0.2-1.1-0.5-1.6-0.8c-1.3-0.9-5.4-2.1-6.6-3c5.6-6.4,18.4-8.3,26-4.6
						c2.2,1,4.1,2.4,6.3,3.4c3.4,1.4,7.1,1.6,10.7,0.6c2.3-0.7,4.5-1.9,6.8-2.2c0.3-0.1,0.6,0,0.8,0.2c0.2,0.2,0.3,0.5,0.3,0.8
						l0.3,2.8c0.2,0.5-0.1,1.1-0.6,1.3c-0.1,0-0.1,0-0.2,0l-5.2,2.6c-2.2,1.1-4.5,2.2-7,2.1c-3.1-0.1-5.7-2.1-8.3-3.8
						c-2.6-1.7-5.5-2.9-8.5-3.5c-3.1-0.6-6.2,0.1-8.8,1.9C144.3,96.6,142.8,98.1,141.1,97.7z"/>
					<path class="st14" d="M126,95.5c1.7,0.6,3.6,0.6,5.3,0c1.7-0.6,2.9-2.2,3-4c6.6,1.3,12.6,4.6,17.1,9.6c1.4,1.6,2.8,3.7,2.5,5.8
						c-0.2,1.6-1.3,2.9-2.2,4.2c-4.4,6.4-4.9,15.4-1.6,22.4c-2.4,1.3-5.4,0.9-10,0.5c-2.8-0.3-4.8-1.1-7.5-1.8
						c-2.7-0.7-6.1-2.1-7.2-4c3-2.6,5.8-5.9,7-9.7c1.2-3.8,0.6-8-1.7-11.4c-1.3-1.7-3.1-3-4.3-4.8s-2.4-0.2-2.5-2.2
						C123.8,99.7,125.5,95.4,126,95.5z"/>
					<path class="st10" d="M181.6,111.1c0.1,0.4,0,0.8-0.2,1.2c-0.5,0.4-1.2,0.6-1.8,0.4c-1.3-0.3-2.6-0.9-3.6-1.6
						c-0.1,0.2,0.1-0.3,0-0.1l-4.7-2.2c-0.4-0.9-0.1-2,0.6-2.7c0.6-0.8,1.5-1.5,2.4-2c0.9-0.4,1.8-0.8,2.8-1c0.8-0.2,1.8-0.1,2,0.6
						c0.2,0.7-1,1-1.7,1.5s-1.3,1.3-0.7,1.8C177.1,107.2,181.4,109,181.6,111.1z"/>
					<path class="st10" d="M118.8,81.7c0.1,0,0.1-0.3,0-0.3s-0.3,0.1-0.3,0.3c0,0.1,0.1,0.3,0.2,0.4c1.3,1.6,2.5,3.3,3.6,5
						c1.8,2.9,3.6,5.2,3.2,8.5c-0.1,0.4,0,0.9,0.2,1.2c0.3,0.2,0.6,0.4,0.9,0.4c2.6,0.4,5.6,0.8,7.7-0.9c0.9-0.8,1.6-1.8,2.1-2.9
						c0.3-0.4-0.2-0.8-0.6-1c-3.5-1.9-5.8-5.5-6.1-9.4c-3.3-0.1-6.5-0.6-9.7-1.6C119.4,81.3,119.2,81.2,118.8,81.7z"/>
					<path class="st10" d="M121.7,67c2-0.2,4-0.1,5.9,0.4c0.8,0.2,1.6,0.5,2.3,0.9c2.3,1.4,3.1,4.5,5.4,5.8c0.5,0.3,1.1,0.7,0.9,1.2
						c-0.1,0.2-0.3,0.3-0.5,0.4c-0.8,0.3-1.6,0.7-2.3,1.3c-0.6,0.6-0.3,1.5,0,2.3c0.5,1.2,0.6,2.6,0.3,3.8c-0.2,1.4-1.1,2.7-2.4,3.2
						c-0.7,0.2-1.3,0.2-2,0.1c-2.9-0.2-6-0.5-8-2.7c-0.7-0.8-1.2-1.7-1.6-2.7c-0.4-0.9-0.8-1.8-1.2-2.7
						C117.3,74.4,118.5,69.9,121.7,67z"/>
					<path class="st14" d="M111.6,81.1c-3.8,0.6-8.2-1.1-9.6-4.7c-0.6-2-0.6-4-0.1-6c0.5-2.8,1.3-5.5,2.4-8.1c0.8-1.9,1.8-4.1,1-6
						s-3.3-2.9-4.6-4.7c-1.5-2.1-1.2-5-0.3-7.4c2.3-6.3,6.6-11.1,13.1-12.6c2-0.6,4.2,0.5,4.8,2.5c0.1,0.2,0.1,0.4,0.1,0.6
						c0.1,0.8-0.2,1.7-0.1,2.5c0.2,1.6,1.8,2.7,3.3,3.2c1.6,0.3,3.1,0.7,4.7,1.2c3.1,1.4,4.7,5.1,4.7,8.5s-1.3,6.7-2.5,10
						c-0.5,1.3-0.9,2.8-0.3,4c0.4,0.9,1.4,1.6,1.6,2.5c0.2,1.1-0.3,2.2-1.3,2.8c-0.9,0.6-1.8,1.1-2.8,1.6c-2.2,1.3-3.6,4.1-2.7,6.5
						c0.5,1.1,1.4,2,1.9,3.1c0.9,2.1,0,4.6-2.1,5.6c-1.6,0.7-3.6,0.3-4.8-1c-0.5-0.5-0.8-1.1-1.3-1.7
						C115.7,81.8,113.7,80.9,111.6,81.1z"/>
					<path class="st5" d="M128.3,96.7c-1.5-0.4-2.6-0.8-3.7,0.2c-2.5,2.3-2.3,6.9-0.7,10c1.8,3.5,6.1,5.2,10.1,5s7.7-1.7,11.4-3.1
						c3.7-1.5,7.5-2.9,11.5-2.7c5.3,0.2,10.2,3.2,15.4,3.2c0-1.2,0-2.4,0-3.6c-2.4,0.7-4.9-0.3-7.1-1.4s-4.3-2.6-6.8-3.1
						c-3.6-0.7-7.1,0.7-10.6,1.6c-1.9,0.5-3.9,0.7-5.8,0.8c-1.5,0.2-3,0-4.4-0.6c-0.9-0.5-1.8-1.2-2.6-1.9
						C132.6,98.9,131.1,97.5,128.3,96.7z"/>
					<path class="st7" d="M175.1,67.3L175.1,67.3c0.4,0,0.8-0.3,0.8-0.7c0-0.1,0-0.2,0-0.3c-0.1-0.4-0.6-0.6-1-0.5
						c-0.1,0-0.1,0-0.1,0.1l0,0c-0.3,0.2-0.4,0.5-0.3,0.8C174.4,67,174.7,67.2,175.1,67.3L175.1,67.3z"/>
					<path class="st7" d="M181.2,69.4c0.4,0,0.8-0.3,0.8-0.8s-0.3-0.8-0.8-0.8c-0.4,0-0.8,0.3-0.8,0.8c0,0,0,0,0,0
						C180.5,69,180.8,69.4,181.2,69.4z"/>
					<path class="st7" d="M128.4,73.8L128.4,73.8c0.3,0.3,0.8,0.3,1.2,0s0.3-0.8,0-1.2c-0.1-0.1-0.2-0.2-0.3-0.2l0,0
						c-0.4-0.1-0.7,0.1-0.9,0.4C128.1,73.1,128.1,73.5,128.4,73.8L128.4,73.8z"/>
					<path class="st7" d="M212.9,72.2c0.3-0.3,0.3-0.8,0-1.1c-0.3-0.3-0.8-0.3-1.1,0c-0.2,0.2-0.3,0.6-0.1,0.9
						c0.2,0.4,0.7,0.5,1,0.3C212.8,72.3,212.8,72.2,212.9,72.2z"/>
					<path class="st7" d="M217,75.3L217,75.3c0.4,0.2,0.9,0.1,1.1-0.3s0.1-0.9-0.3-1.1c-0.4-0.2-0.9-0.1-1.1,0.3l0,0
						C216.6,74.6,216.7,75,217,75.3L217,75.3z"/>
					<path class="st7" d="M173.2,70.6c-0.9,1.7,0.2,3.4,1.7,4.3c1.3,0.8,4.2,1.3,4.9-0.5c0-0.1,0-0.2-0.1-0.2c0,0,0,0,0,0
						c-0.6,0-1.2,0.3-1.8,0.4c-0.8,0.1-1.5-0.1-2.2-0.4C174.2,73.6,173.3,72.2,173.2,70.6C173.3,70.5,173.2,70.5,173.2,70.6
						L173.2,70.6z"/>
					<path class="st9" d="M209.4,75.4c1.9,0.4,3.1,2.1,4.6,3.2c0,0.2-0.1,0.4-0.3,0.5c-0.6,0.7-1.5,1.1-2.4,1.2
						c-0.9,0.1-1.8-0.4-2.3-1.2C208.4,78,208.9,76.6,209.4,75.4z"/>
					<path class="st9" d="M214.5,72.5c-0.5,0.2-0.9,0.5-1.2,0.8c-0.5,0.3-0.9,0.7-1.3,1.2c-0.4,0.4-0.4,0.9,0,1.3
						c0.4,0.3,0.9,0.3,1.3,0c0.4-0.3,0.7-0.7,1-1.1c0.4-0.4,0.7-0.9,0.9-1.4c0.1-0.3-0.1-0.7-0.5-0.8
						C214.7,72.5,214.6,72.5,214.5,72.5L214.5,72.5z"/>
					<path class="st9" d="M178.5,66.4c-0.6,0.3-0.7,1.3-0.8,2c-0.1,0.8-0.2,1.6-0.6,2.4c-0.8,1.5,1.5,2.8,2.2,1.3
						c0.5-1.1,0.7-2.4,0.6-3.7C179.9,67.9,179.5,65.9,178.5,66.4L178.5,66.4z"/>
					<path class="st9" d="M129.6,81.2c1.7,0.7,3.4-0.3,4.6-1.5c0.8-0.8-0.4-2.1-1.3-1.3c-0.4,0.5-0.9,0.9-1.4,1.3
						c-0.6,0.4-1.2,0.7-1.9,0.9c-0.1,0.1-0.2,0.3-0.1,0.4C129.5,81.1,129.5,81.2,129.6,81.2z"/>
					<path class="st9" d="M130.5,81.2c1.1,1,2.7,1.1,3.9,0.5c1.1-0.7,0-2.4-1-1.7c-0.9,0.6-2,0.1-2.9,0.6
						C130.3,80.7,130.3,80.9,130.5,81.2C130.4,81.2,130.4,81.2,130.5,81.2z"/>
					<path class="st9" d="M126.7,76.9L126.7,76.9L126.7,76.9z"/>
					<path class="st9" d="M126.2,75.8c-0.7-0.2-1.1,0.3-1.3,0.9c-0.1,0.6,0,1.3,0.3,1.8c0.3,0.6,1,1,1.7,1c0.9-0.1,1.6-0.8,1.8-1.7
						c0.3-1.7-1.4-4.4-3.3-2.9c-1.4,1.2-0.2,4,1.3,4.4c0.6,0.2,1.3-0.2,1.5-0.8c0-0.1,0-0.2,0-0.3c0-0.3-0.1-0.7-0.2-1
						c-0.3-0.5-1-0.7-1.5-0.4c-0.2,0.1-0.3,0.2-0.4,0.4c-0.2,0.3-0.2,0.7-0.3,1l1.5-1.1c-0.1,0,0.2,0.2,0.1,0s0.1,0.2-0.1-0.1
						c-0.1-0.1-0.1-0.2-0.2-0.3c-0.2-0.3,0.1,0.2,0-0.1c0-0.1-0.1-0.2-0.1-0.3c0.1,0.3,0-0.2,0,0.2c0-0.2-0.1,0.1-0.1,0.2
						c-0.2,0.2-0.4,0.2-0.6,0.2c0,0-0.3-0.2-0.2-0.1s-0.1-0.2,0,0.1c0,0,0.2,0.3,0.1,0.1c0.1,0.2,0.1,0.4,0.2,0.6c0-0.3,0,0,0,0
						c0-0.3,0-0.2,0,0l0,0c-0.1,0.3,0.2-0.2,0,0s0.2-0.1,0.2-0.1c-0.1,0,0.3,0,0.3,0s-0.3-0.1,0,0l-0.2-0.1c0.2,0.1-0.1-0.1-0.2-0.2
						c0.1,0.2-0.1-0.2-0.2-0.3s-0.1-0.2,0-0.1c0-0.1,0-0.1-0.1-0.2c0,0.2,0,0,0,0c0,0.2,0-0.1,0,0c0.1-0.1,0.1-0.3,0.1-0.5
						c0-0.1,0,0.1,0,0.2c0.1-0.2,0-0.4-0.2-0.5c0,0,0,0-0.1,0L126.2,75.8z"/>
					<path class="st7" d="M173.8,64.3c0.1,0,0.3,0,0.4-0.1c0.3-0.1,0.6-0.2,0.9-0.2c0.5,0,1.1,0,1.6-0.1c0.2-0.1,0.3-0.3,0.2-0.5
						c0,0,0-0.1-0.1-0.1c-0.5-0.6-1.8-0.4-2.4-0.1c-0.4,0.1-0.6,0.4-0.8,0.7C173.7,64,173.7,64.3,173.8,64.3z"/>
					<path class="st7" d="M183.1,66.8c0.3-0.4,0-0.9-0.3-1.3c-0.3-0.4-0.8-0.7-1.4-0.8c-0.3-0.1-0.6,0.1-0.7,0.4
						c-0.1,0.3,0.1,0.6,0.4,0.7l0,0c0.3,0.1,0.6,0.2,0.9,0.4c0.2,0.2,0.5,0.4,0.8,0.6C182.9,66.9,183,66.8,183.1,66.8
						C183.1,66.8,183.1,66.8,183.1,66.8L183.1,66.8z"/>
					<path class="st9" d="M188.7,98.6c0.3,0,0.4-0.3,0.4-0.5c0-0.2-0.2-0.4-0.4-0.4c-0.3,0-0.4,0.3-0.4,0.5
						C188.3,98.5,188.5,98.6,188.7,98.6z"/>
					<path class="st9" d="M178.2,104.3c0.1,0,0.2,0,0.3,0c0.3-0.1,0.5-0.3,0.4-0.6c0-0.2-0.2-0.4-0.4-0.4c-0.1,0-0.2,0-0.3,0
						c-0.3,0.1-0.5,0.3-0.4,0.6C177.9,104.1,178,104.2,178.2,104.3z"/>
					<path class="st9" d="M180.4,111c0.3,0,0.5-0.2,0.5-0.5s-0.2-0.5-0.5-0.5c-0.3,0-0.5,0.2-0.5,0.5S180.1,111,180.4,111z"/>
					<path class="st9" d="M180.6,112.2L180.6,112.2c0.3-0.3,0.3-0.6,0.1-0.8s-0.6-0.2-0.8,0c-0.2,0.2-0.2,0.5,0,0.8l0.1,0.1
						C180.2,112.4,180.4,112.4,180.6,112.2C180.6,112.2,180.6,112.2,180.6,112.2z"/>
					<path class="st5" d="M109.5,41.5c-1.7-0.1-2.3,1.1-1.6,2.7c0.4,0.8,0.9,1.6,1.5,2.3c0.5,0.5,0.9,1.1,1.3,1.7
						c0.7,1.1,0.3,1.8-0.3,2.8c-0.2,0.3-0.1,0.6,0.2,0.8c0.1,0.1,0.3,0.1,0.4,0.1c2.3-0.4,2.1-2.9,1.1-4.5c-0.5-0.8-5.1-5-2.5-5.5
						C109.8,41.8,109.8,41.4,109.5,41.5L109.5,41.5z"/>
					<path class="st5" d="M106.8,38.7c-5.2,0.1-1.7,9.8-0.2,9.1c0.4-0.1,0.6-0.4,0.6-0.8c0-1.3-0.9-2.2-1.4-3.4
						c-0.6-1.6-0.2-3.5,1.2-4.6c0.1-0.1,0.1-0.2,0.1-0.3C107,38.8,106.9,38.7,106.8,38.7z"/>
					<path class="st5" d="M106.2,50.8c0.6,0.5,0.8,1.3,0.5,2c-0.1,0.5-0.4,0.7-0.1,1.2c0.2,0.3,0.7,0.4,1,0.2
						c0.8-0.4,0.8-1.8,0.6-2.5c-0.2-0.8-0.9-1.4-1.8-1.4C106.1,50.3,106,50.6,106.2,50.8L106.2,50.8z"/>
					<path class="st5" d="M102.2,46.5c-0.3,0.7-0.4,1.6-0.2,2.3c0.1,0.7,1,1.8,1.8,1.3c0.2-0.1,0.3-0.3,0.2-0.5
						c-0.1-0.5-0.7-0.8-0.9-1.2c-0.3-0.6-0.4-1.2-0.4-1.8c-0.1-0.1-0.2-0.2-0.3-0.1C102.2,46.4,102.2,46.5,102.2,46.5L102.2,46.5z"
						/>
					<path class="st5" d="M110.1,39.5c0.3-0.1,0.4-0.4,0.6-0.6c0.2-0.2,0.5-0.5,0.7-0.7c0.2-0.2,0.3-0.6,0.1-0.9
						c-0.2-0.3-0.6-0.5-1-0.3c-0.5,0.3-0.8,0.7-0.9,1.3c-0.1,0.2-0.1,0.5,0,0.7C109.6,39.3,109.8,39.6,110.1,39.5L110.1,39.5z"/>
					<path class="st5" d="M108.9,36.6c0.1-0.2,0.2-0.3,0.4-0.5c0.2-0.1,0.4-0.3,0.7-0.4c0.1-0.1,0.1-0.2,0-0.3
						c-0.3-0.3-0.8-0.3-1.2,0c-0.2,0.1-0.3,0.3-0.3,0.5c-0.1,0.2-0.1,0.4,0,0.6c0,0.1,0.2,0.2,0.3,0.2
						C108.8,36.7,108.8,36.7,108.9,36.6L108.9,36.6z"/>
					<path class="st5" d="M112.5,33.9c0.6,0.6,1.1,1.2,1.6,1.8c0.6,0.9,0.1,1.8-0.5,2.6s-1.5,1.9-0.8,3c0.1,0.2,0.3,0.3,0.6,0.3
						c0.6,0,0.7-0.5,0.8-1c0.2-1,1.2-1.9,1.6-2.9c0.7-2-1.3-3.8-3-4.1c-0.1,0-0.2,0.1-0.2,0.2C112.5,33.8,112.5,33.9,112.5,33.9
						L112.5,33.9z"/>
					<path class="st5" d="M114.4,45.8c0.2,1.3,0.9,2.4,1.3,3.7c0.4,1.5-0.3,3.2-0.4,4.7c-0.2,2.6-0.2,6.1,2.1,7.8
						c0.3,0.2,0.7,0.1,0.9-0.2c0.1-0.1,0.1-0.2,0.1-0.3c0-1.7-0.9-3.3-1-5c0-1.7,0.2-3.4,0.4-5.1c0-2.3-1-4.4-2.7-5.9
						c-0.2-0.1-0.4-0.1-0.6,0C114.4,45.6,114.4,45.7,114.4,45.8L114.4,45.8z"/>
					<path class="st5" d="M112,54.1c-0.3,0.3-0.5,0.7-0.6,1.1c-0.2,0.5-0.3,0.9-0.3,1.4c0,0.9,1,2.2,1.9,1.3
						c0.1-0.1,0.2-0.3,0.1-0.5c-0.2-0.5-0.7-0.7-0.8-1.3c-0.1-0.6,0-1.3,0.2-1.8C112.6,54,112.2,53.8,112,54.1L112,54.1z"/>
					<path class="st5" d="M117.4,41.1c-0.1,0.1-0.3,0.3-0.3,0.5c-0.1,0.3-0.2,0.5-0.2,0.8c0,0.6,0.2,1.3,0.9,1.4
						c0.4,0.1,0.7-0.1,0.8-0.5c0-0.1,0-0.1,0-0.2c0-0.4-0.3-0.7-0.4-1c-0.1-0.3-0.2-0.7-0.4-1C117.7,41,117.6,41,117.4,41.1
						C117.4,41,117.4,41.1,117.4,41.1L117.4,41.1z"/>
					<path class="st5" d="M120,42c0.2,1.7,2.2,2.1,3.1,3.3c1.5,1.9-1.8,4.8,0.2,6.5c0.2,0.2,0.5,0.2,0.7,0c0.8-0.7,0.8-1.9,1-2.9
						c0.3-1.1,0.3-2.2,0.1-3.3c-0.4-2-3.1-3.1-4.6-3.9C120.3,41.6,120,41.7,120,42L120,42z"/>
					<path class="st5" d="M119.4,47.7c0.1,0.4,0.4,0.5,0.5,1.1c0,0.9,0,1.8-0.2,2.6c-0.5,2.3,0,4.7,1.4,6.6c0.5,0.7,1.6,0.3,1.4-0.6
						c-0.4-1.4-1.2-2.6-1.3-4.1c-0.1-1,0.1-2,0.2-3.1s0-3.2-1.4-3.1C119.6,47.3,119.4,47.5,119.4,47.7
						C119.4,47.7,119.4,47.7,119.4,47.7L119.4,47.7z"/>
					<path class="st5" d="M123.7,53.7c-0.1,0.4-0.1,0.7-0.1,1.1c0.1,0.4,0.3,1,0.9,1c0.4,0,0.7-0.4,0.6-0.7c0-0.1,0-0.2-0.1-0.3
						c-0.2-0.3-0.3-0.6-0.4-0.9C124.7,53.3,123.9,53.1,123.7,53.7L123.7,53.7z"/>
					<path class="st5" d="M127.2,46c0.3,1.3,0.5,2.7,0.5,4c0,1.2-1.1,2.2-0.8,3.3c0.1,0.2,0.3,0.4,0.5,0.4c1.6,0,2-2,2-3.3
						c0.1-1.7-0.9-3.2-1.6-4.7C127.6,45.4,127.1,45.6,127.2,46L127.2,46z"/>
					<path class="st5" d="M126.5,56.8c-0.8,2.5-1.9,4.7-2.2,7.4c-0.2,1,0,2.1,0.6,3c0.6,0.8,1.8,0.9,2.6,0.3c0,0,0.1-0.1,0.1-0.1
						c0.3-0.3,0.3-0.9,0-1.2c-0.1-0.1-0.2-0.2-0.3-0.2c-0.9-0.3-1,0-1-1.2c0.1-1.1,0.2-2.2,0.5-3.3c0.3-1.4,1-3.4,0.4-4.7
						c0-0.1-0.2-0.2-0.3-0.2C126.6,56.6,126.5,56.7,126.5,56.8L126.5,56.8z"/>
					<path class="st5" d="M121.7,60.6c-1.2-0.2-1.3,2.4-1.1,3c0.1,0.4,0.5,0.6,0.9,0.5c0.2-0.1,0.4-0.2,0.5-0.5
						c0.1-0.6,0.1-1.2,0-1.8C122,61.5,122.2,60.6,121.7,60.6L121.7,60.6z"/>
					<path class="st5" d="M107.7,57.5c0.4,0.3,0.7,1.6,0.9,2c0.7,1.6,0.8,3.4,0.2,5c-0.7,1.8-0.9,3.7-0.6,5.6c0.8,4,3.6,5.5,7,7.1
						c0.4,0.2,1.1-0.1,0.9-0.7c-0.5-1.3-1.5-1.8-2.8-2.3c-2.8-1.3-3.9-5-3.2-7.8c0.6-2.2,1.2-3.9,0.5-6.2c-0.3-1-1.3-3.2-2.4-3.5
						C107.8,56.6,107.4,57.1,107.7,57.5L107.7,57.5z"/>
					<path class="st5" d="M112.6,63.6c-0.2,0.7,0,1.5-0.2,2.2c-0.2,0.7-0.3,1.4-0.4,2.2c-0.2,1.6,0.7,3.4,2.4,3.7
						c0.4,0.1,0.8-0.1,0.9-0.5c0-0.2,0-0.4-0.1-0.5c-0.4-0.7-1.1-1.1-1.4-1.9c-0.1-0.7-0.1-1.3,0.1-2c0.1-1,0.1-2.7-1-3.2
						C112.8,63.5,112.7,63.5,112.6,63.6C112.6,63.7,112.6,63.7,112.6,63.6L112.6,63.6z"/>
					<path class="st5" d="M116.6,64.4c-0.4,1.4-0.2,2.9,0.5,4.2c0.5,1,2.1,2.5,3.2,1.8c0.2-0.1,0.3-0.4,0.3-0.6
						c-0.3-0.9-1.5-1.2-2-2c-0.7-1-1.1-2.1-1.4-3.3c-0.1-0.2-0.2-0.3-0.4-0.2C116.7,64.2,116.6,64.3,116.6,64.4z"/>
					<path class="st5" d="M117.9,73.8c0.5,0.8,1.2,1.3,2.1,1.6c0.7,0.1,1.2-0.8,0.5-1.2c-0.7-0.2-1.4-0.5-2.1-0.9
						C118.1,73.1,117.7,73.5,117.9,73.8L117.9,73.8z"/>
					<path class="st5" d="M122.6,69.2c0.1,0.2,0.1,0.3,0.1,0.5c0,0.2,0,0.4,0.1,0.6c0.1,0.2,0.5,0.3,0.7,0.1
						c0.1-0.1,0.2-0.2,0.2-0.4c0-0.3-0.1-0.5-0.3-0.7l-0.4-0.5C122.9,68.7,122.5,68.9,122.6,69.2z"/>
					<path class="st5" d="M105.4,66.9c-0.6,0.7-0.9,1.6-1,2.5c-0.1,0.8-0.2,2.2,0.8,2.5c0.2,0,0.3,0,0.4-0.1
						c0.5-0.6,0.2-1.4,0.2-2.1c0-0.9,0-1.7,0.1-2.6c0-0.2-0.1-0.3-0.3-0.3C105.6,66.8,105.5,66.9,105.4,66.9L105.4,66.9z"/>
					<path class="st5" d="M105.9,75.1c-1.2,0.9-0.2,2.4,0.8,3.1c1.3,0.8,3.2,1.7,4.7,1.4c0.5-0.1,0.9-0.6,0.5-1
						c-0.5-0.4-1.1-0.6-1.8-0.7c-1.2-0.3-4.1-0.9-3.8-2.6c0-0.1,0-0.2-0.2-0.3C106.1,75,106,75,105.9,75.1L105.9,75.1z"/>
					<path class="st5" d="M115.3,79.3c0.7,0.5,1.5,1,2.2,1.5c0.4,0.2,0.7,0.5,1,0.9c0.3,0.4,0.5,0.9,0.6,1.4
						c0.1,0.4,0.5,0.6,0.8,0.5c0.2-0.1,0.4-0.2,0.5-0.5c0.2-1.2-0.4-2.5-1.5-3.1c-1.1-0.6-2.3-1-3.5-1.1
						C115.1,78.9,115.1,79.2,115.3,79.3z"/>
					<path class="st5" d="M119.4,78.1c0.3,0.3,0.6,0.5,0.8,0.8c0.3,0.3,0.4,0.8,0.9,1c0.3,0.1,0.6,0,0.7-0.2c0,0,0-0.1,0-0.1
						c0.3-0.7-0.3-1.2-0.8-1.6c-0.4-0.3-1-0.5-1.5-0.4c-0.1,0-0.2,0.2-0.2,0.3C119.3,78,119.3,78.1,119.4,78.1z"/>
					<path class="st5" d="M122.4,82.3c-0.1,0.5,0,1.1,0.3,1.5c0.2,0.2,0.5,0.2,0.7,0c0.1-0.1,0.1-0.2,0.1-0.3c0-0.4-0.3-0.8-0.3-1.3
						c0-0.2-0.2-0.3-0.4-0.3C122.6,81.9,122.4,82.1,122.4,82.3L122.4,82.3z"/>
					<path class="st11" d="M133.2,136L133.2,136l0.5-0.1h-0.2l0.3,0.1l0,0c-0.3-0.2-0.6-0.1-0.8,0.2c-0.1,0.1-0.1,0.3-0.1,0.4
						c0.1,0.2,0.2,0.3,0.4,0.4c0.2,0.1,0.5,0,0.6-0.3c0.1-0.2,0.1-0.4,0-0.6c-0.1-0.2-0.4-0.3-0.6-0.1
						C133.3,135.9,133.3,135.9,133.2,136L133.2,136z"/>
					<path class="st11" d="M141.2,139.9L141.2,139.9l-0.4,0.2c0.1,0,0.1,0,0.2,0h-0.3c0.3,0.1,0.7-0.1,0.8-0.5c0,0,0-0.1,0-0.2
						c0-0.4-0.3-0.7-0.6-0.7c-0.1,0-0.2,0-0.4,0.1c-0.1,0.1-0.2,0.2-0.3,0.3c-0.1,0.2-0.1,0.5,0.1,0.7v0.1c0.2,0.2,0.5,0.2,0.7,0
						L141.2,139.9z"/>
					<path class="st11" d="M141.7,147.3c0.1,0.2,0.3,0.4,0.5,0.4c0.2,0,0.4-0.2,0.4-0.4c0-0.1-0.1-0.2-0.2-0.3l0,0l0.1,0.2v0.1
						c0.1-0.2-0.1-0.5-0.3-0.6c-0.2-0.1-0.5,0.1-0.6,0.3C141.7,147.1,141.7,147.2,141.7,147.3L141.7,147.3z"/>
					<path class="st11" d="M146.4,139.5c0.1,0.1,0.1,0.2,0.2,0.2c0.2,0.1,0.6,0.1,0.7-0.2c0.1-0.2,0.1-0.6-0.2-0.7
						c-0.1-0.1-0.3-0.1-0.4-0.1h0.2C146.5,138.7,146.1,139.1,146.4,139.5z"/>
					<path class="st11" d="M149.4,145.7c0,0.2,0,0.3,0.1,0.4c0.2,0.2,0.4,0.2,0.6,0.1c0.2-0.1,0.2-0.3,0.1-0.5
						c0-0.1-0.1-0.1-0.2-0.2c-0.1,0-0.1,0-0.2,0c0.1,0-0.1,0-0.1,0h0.2h0.1c-0.1-0.1-0.3-0.2-0.4-0.1
						C149.4,145.4,149.4,145.5,149.4,145.7L149.4,145.7z"/>
					<path class="st11" d="M149.6,153.1L149.6,153.1c0.3,0,0.6-0.2,0.6-0.5s-0.2-0.5-0.5-0.5h-0.1c-0.3-0.1-0.6,0.1-0.6,0.4
						c-0.1,0.3,0.1,0.6,0.4,0.6C149.4,153.1,149.5,153.1,149.6,153.1z"/>
					<path class="st11" d="M157,150.6c0.2,0,0.4-0.2,0.4-0.4c0-0.2-0.2-0.4-0.4-0.4c-0.2,0-0.4,0.2-0.4,0.4
						C156.5,150.4,156.7,150.6,157,150.6L157,150.6z"/>
					<path class="st11" d="M160.4,156.2L160.4,156.2c0,0.3,0.1,0.5,0.3,0.5c0.2,0,0.4-0.1,0.4-0.3c0-0.1,0-0.1,0-0.2v-0.1
						c-0.1-0.2-0.3-0.3-0.4-0.2C160.5,156,160.5,156.1,160.4,156.2L160.4,156.2z"/>
					<path class="st11" d="M155,157.1L155,157.1l-0.2-0.1L155,157.1c0.1,0.1,0.4,0.1,0.5-0.1c0,0,0,0,0,0c0.1-0.2,0-0.4-0.1-0.5
						c-0.1-0.1-0.3-0.2-0.5-0.1c-0.2,0-0.3,0.2-0.3,0.4C154.6,156.9,154.8,157.1,155,157.1L155,157.1z"/>
					<path class="st11" d="M157.2,163c0,0.2,0,0.3,0.1,0.4c0.1,0.2,0.4,0.3,0.6,0.1c0.1,0,0.1-0.1,0.1-0.1c0.1-0.1,0.1-0.3,0.1-0.4
						c0-0.3-0.2-0.5-0.5-0.5C157.4,162.5,157.2,162.8,157.2,163L157.2,163z"/>
					<path class="st11" d="M161.6,168.3L161.6,168.3c0.5,0.1,0.5-0.8,0.1-0.7h-0.1c-0.2,0-0.3,0.2-0.3,0.4
						C161.2,168.2,161.4,168.3,161.6,168.3L161.6,168.3z"/>
					<path class="st11" d="M157.2,172.8L157.2,172.8c0.2,0.2,0.4,0.2,0.6,0l0,0c0.2-0.2,0.2-0.4,0-0.6c-0.2-0.2-0.4-0.2-0.6,0
						C157,172.3,157,172.6,157.2,172.8C157.2,172.8,157.2,172.8,157.2,172.8L157.2,172.8z"/>
					<path class="st11" d="M161.5,176.9C161.5,176.9,161.5,176.9,161.5,176.9c0.1,0.3,0.4,0.3,0.6,0.2c0.1,0,0.1-0.1,0.1-0.1v-0.1
						c0.1-0.2,0.1-0.5-0.2-0.6c-0.2-0.1-0.5-0.1-0.6,0.2C161.4,176.6,161.4,176.7,161.5,176.9L161.5,176.9z"/>
					<path class="st11" d="M158.8,180.7L158.8,180.7c0.3,0,0.5-0.3,0.5-0.5c0-0.2-0.2-0.4-0.4-0.4h-0.1c-0.3,0-0.4,0.3-0.4,0.5
						C158.4,180.5,158.6,180.7,158.8,180.7z"/>
					<path class="st11" d="M162.2,186.2L162.2,186.2c0.3,0.1,0.6-0.1,0.7-0.3c0.1-0.3-0.1-0.5-0.3-0.6c-0.1,0-0.2,0-0.3,0h-0.1
						c-0.2,0.1-0.4,0.3-0.3,0.6C162,186,162.1,186.1,162.2,186.2L162.2,186.2z"/>
					<path class="st11" d="M163.7,180.5c0,0.3,0.2,0.5,0.4,0.5c0.1,0,0.2,0,0.3,0c0.2-0.1,0.2-0.4,0.1-0.6c0,0-0.1-0.1-0.1-0.1
						l0.1,0.1v0.1C164.5,180,163.7,180,163.7,180.5L163.7,180.5z"/>
					<path class="st11" d="M165.4,189.3c0,0.1,0,0.2-0.1,0.3c0,0.2,0.2,0.4,0.4,0.4c0.2,0,0.4-0.2,0.4-0.4c0-0.1,0-0.2-0.1-0.3
						c-0.1-0.2-0.3-0.3-0.5-0.3C165.5,189,165.4,189.1,165.4,189.3z"/>
					<path class="st11" d="M135.4,148.6c-0.2-0.1-0.4-0.1-0.5,0.1c-0.1,0.2-0.1,0.4,0,0.5c0,0,0,0,0,0c0.2,0.1,0.4,0,0.5-0.1
						c0-0.1,0-0.1,0-0.2l0,0c0,0.1-0.1,0.2-0.1,0.2c0,0,0.1-0.1,0.1-0.1c0.1-0.1,0.2-0.2,0.1-0.3
						C135.5,148.7,135.4,148.6,135.4,148.6L135.4,148.6z"/>
					<path class="st11" d="M138.9,155.8c0.2,0,0.4-0.2,0.3-0.4c0-0.2-0.2-0.3-0.3-0.3c-0.2,0-0.4,0.2-0.3,0.4
						C138.6,155.6,138.7,155.8,138.9,155.8z"/>
					<path class="st11" d="M143.8,158.9c0.2,0,0.3-0.2,0.3-0.4c0-0.1-0.1-0.3-0.3-0.3c-0.2,0-0.3,0.2-0.3,0.4
						C143.5,158.7,143.6,158.9,143.8,158.9z"/>
					<path class="st11" d="M142.1,163.4l0.1,0.1c0.1,0.1,0.3,0.1,0.4-0.1c0.1-0.1,0.1-0.3,0-0.4l-0.1-0.1
						C142.2,162.7,141.8,163.1,142.1,163.4z"/>
					<path class="st11" d="M135.1,164.7c0.2,0,0.3-0.2,0.3-0.3c0-0.2-0.2-0.3-0.3-0.3c-0.2,0-0.3,0.2-0.3,0.3
						C134.8,164.6,134.9,164.7,135.1,164.7z"/>
					<path class="st11" d="M136.4,169.7c0.2,0,0.4-0.2,0.3-0.4c0,0,0-0.1,0-0.1c0-0.1-0.1-0.1-0.2-0.1c0,0-0.1,0-0.1,0
						c0.1-0.1,0.2,0,0.1,0c-0.2,0-0.4,0.1-0.4,0.3s0.1,0.4,0.3,0.4C136.3,169.7,136.3,169.7,136.4,169.7L136.4,169.7z"/>
					<path class="st11" d="M130.5,173.2L130.5,173.2c0.2-0.1,0.2-0.3,0.1-0.5c0,0-0.1-0.1-0.1-0.1l0,0c-0.2-0.2-0.6,0.1-0.6,0.3
						S130.3,173.5,130.5,173.2L130.5,173.2z"/>
					<path class="st11" d="M132.1,178.6c0.2,0,0.3-0.2,0.3-0.3c0-0.2-0.2-0.3-0.3-0.3c-0.2,0-0.3,0.2-0.3,0.3
						C131.8,178.5,131.9,178.6,132.1,178.6z"/>
					<path class="st11" d="M128.5,182.2L128.5,182.2c0,0.6,0.8,0.6,0.8,0.1v-0.1c0-0.2-0.2-0.4-0.4-0.4
						C128.6,181.8,128.5,182,128.5,182.2L128.5,182.2z"/>
					<path class="st11" d="M130.5,187.3c0.2,0,0.3-0.2,0.2-0.3c0-0.1-0.1-0.2-0.2-0.2c-0.2,0-0.3,0.2-0.2,0.3
						C130.3,187.1,130.4,187.2,130.5,187.3z"/>
					<path class="st11" d="M128.4,191.1c-0.1,0.2,0,0.5,0.2,0.7c0,0,0.1,0,0.1,0c0.2,0,0.4-0.1,0.4-0.3c0-0.1,0-0.3-0.1-0.3
						c-0.1-0.1,0,0,0,0.1c0-0.2-0.1-0.3-0.3-0.4C128.5,190.9,128.4,190.9,128.4,191.1L128.4,191.1z"/>
					<path class="st11" d="M194,104.9C194.1,104.9,194.1,104.9,194,104.9c0.1,0,0.1,0,0.1-0.1l0.3-0.2c0.2-0.1,0.5-0.3,0.7-0.4
						c0.3-0.1,0.5-0.3,0.7-0.5c0.1-0.2,0-0.5-0.2-0.6c0,0-0.1,0-0.1,0c-0.8-0.2-2.5,1-1.8,1.8C193.9,105.1,194,105,194,104.9
						L194,104.9z"/>
					<path class="st11" d="M197.4,101.8c0.3-0.2,0.7-0.4,1-0.7c0.3-0.2,0.8-0.3,0.9-0.7c0-0.1,0-0.2-0.1-0.3c-0.4-0.3-0.9,0-1.3,0.2
						c-0.4,0.2-0.8,0.6-0.9,1.1C197.1,101.7,197.2,101.8,197.4,101.8C197.4,101.8,197.4,101.8,197.4,101.8L197.4,101.8z"/>
					<path class="st11" d="M198.8,104.4C198.9,104.4,198.9,104.4,198.8,104.4c0.1,0,0.1,0,0.2-0.1c0.2-0.1,0.3-0.2,0.5-0.3
						c0.2-0.2,0.9-0.4,0.6-0.8c-0.2-0.1-0.4-0.2-0.6-0.1c-0.2,0.1-0.4,0.2-0.5,0.4c-0.1,0.1-0.3,0.3-0.4,0.4c0,0.1-0.1,0.1-0.1,0.2
						c0-0.1,0-0.1,0,0c0,0,0,0.1-0.1,0.1C198.4,104.4,198.7,104.6,198.8,104.4L198.8,104.4z"/>
					<path class="st11" d="M195.3,108.3c0.2-0.2,0.4-0.4,0.6-0.5c0.3-0.2,0.6-0.3,0.8-0.5c0.2-0.1,0.2-0.3,0.1-0.5
						c-0.1-0.1-0.1-0.1-0.2-0.2c-0.9-0.2-1.5,0.7-1.7,1.5c0,0.1,0.1,0.2,0.2,0.3C195.1,108.4,195.2,108.3,195.3,108.3L195.3,108.3z"
						/>
					<path class="st11" d="M192.8,107.7c-0.4,0.2-0.7,0.6-0.9,1c-0.1,0.4-0.3,1-0.1,1.4c0.1,0.1,0.2,0.2,0.4,0.1
						c0.5-0.1,0.5-0.6,0.6-1c0-0.4,0.1-0.9,0.2-1.3C193.1,107.8,193,107.5,192.8,107.7L192.8,107.7z"/>
					<path class="st11" d="M189.5,112c-0.1,0.3-0.1,0.5-0.2,0.8c-0.1,0.3-0.1,0.5-0.2,0.8c0,0.4,0.6,0.6,0.7,0.2
						c0.2-0.6,0.2-1.2,0-1.8C189.9,111.8,189.6,111.8,189.5,112L189.5,112z"/>
					<path class="st11" d="M193.2,114.4c0.1-0.3,0.3-0.5,0.5-0.7c0.3-0.2,0.6-0.4,0.8-0.6c0.1-0.2,0.1-0.4,0-0.5
						c-0.1-0.1-0.2-0.1-0.4-0.1c-0.8,0.1-1.7,1.1-1.4,1.9c0,0.1,0.2,0.2,0.3,0.2C193.1,114.5,193.2,114.5,193.2,114.4z"/>
					<path class="st11" d="M197.5,110.8c0.2-0.1,0.5-0.3,0.8-0.4c0.3-0.1,0.5-0.2,0.8-0.3s0.1-0.7-0.2-0.7c-0.7,0-1.4,0.4-1.8,1
						C196.9,110.7,197.2,111,197.5,110.8L197.5,110.8z"/>
					<path class="st11" d="M197.7,115.1c0.1,0,0.2,0,0.3-0.1c0.1-0.1,0.3-0.1,0.4-0.2c0.3-0.2,0.5-0.4,0.7-0.6
						c0.3-0.4-0.3-0.8-0.6-0.5c-0.2,0.2-0.3,0.3-0.5,0.5l-0.3,0.3c-0.1,0.1-0.1,0.2-0.2,0.3c-0.1,0.1-0.1,0.2,0,0.3
						C197.6,115.1,197.6,115.1,197.7,115.1z"/>
					<path class="st11" d="M193.3,118.5c0.3-0.1,0.5-0.3,0.8-0.5c0.1-0.1,0.2-0.1,0.3-0.2c0.2-0.1,0.3-0.3,0.4-0.5
						c0.1-0.3-0.2-0.6-0.4-0.6c-0.4,0-0.8,0.2-1,0.5c-0.2,0.2-0.4,0.5-0.5,0.9c-0.1,0.2,0,0.3,0.2,0.4
						C193.1,118.5,193.2,118.5,193.3,118.5L193.3,118.5z"/>
					<path class="st11" d="M190.3,119c0.3-0.4,0.4-0.8,0.3-1.3c0-0.1-0.2-0.2-0.3-0.2c-0.5,0.2-0.6,0.9-0.5,1.4
						c0,0.1,0.2,0.2,0.3,0.2C190.2,119.2,190.2,119.1,190.3,119z"/>
					<path class="st11" d="M195.3,120.8c-0.1,0.6,0,1.5,0.7,1.7c0.1,0,0.3,0,0.3-0.2c0.1-0.3,0-0.6-0.1-0.8
						c-0.1-0.2-0.2-0.5-0.3-0.8c-0.1-0.1-0.3-0.2-0.4-0.1C195.3,120.6,195.3,120.7,195.3,120.8z"/>
					<path class="st11" d="M199.5,119.4c0.2-0.2,0.3-0.3,0.5-0.5c0.2-0.2,0.4-0.3,0.6-0.6c0.2-0.3-0.1-0.6-0.4-0.5
						c-0.6,0.2-1,0.7-1.1,1.3c0,0.1,0,0.3,0.2,0.3C199.3,119.5,199.4,119.5,199.5,119.4z"/>
					<path class="st11" d="M201,123.8c0.2-0.2,0.3-0.5,0.5-0.7c0.2-0.3,0.4-0.6,0.4-0.9c0.1-0.3-0.1-0.5-0.4-0.6
						c-0.2,0-0.3,0-0.4,0.1c-0.3,0.3-0.4,0.6-0.6,0.9c-0.2,0.3-0.2,0.7-0.1,1.1c0.1,0.2,0.3,0.3,0.5,0.2
						C201,123.9,201,123.8,201,123.8L201,123.8z"/>
					<path class="st11" d="M201.1,126.7c0.2,0.2,0.4,0.3,0.6,0.5c0.3,0.2,0.7,0.2,1-0.1c0.1-0.2,0.1-0.4,0-0.6
						c-0.3-0.4-0.9-0.2-1.3-0.3c-0.1,0-0.3,0.1-0.3,0.2C201,126.6,201,126.6,201.1,126.7L201.1,126.7z"/>
					<path class="st11" d="M205.4,124.7c0.4-0.5,0.9-1,1.4-1.6c0.2-0.3-0.2-0.7-0.5-0.5c-0.6,0.5-1.1,1.1-1.4,1.8
						C204.7,124.7,205.2,124.9,205.4,124.7L205.4,124.7z"/>
					<path class="st11" d="M204.7,120.1c0.2-0.3,0.4-0.6,0.7-0.8c0.3-0.2,0.4-0.5,0.5-0.9c0-0.1-0.1-0.3-0.2-0.2
						c-0.2,0-0.3,0.1-0.4,0.2c-0.1,0.2-0.3,0.3-0.4,0.5c-0.2,0.3-0.4,0.7-0.5,1.1c0,0.1,0,0.2,0.1,0.3
						C204.5,120.2,204.7,120.2,204.7,120.1z"/>
					<path class="st11" d="M203.2,115.8c0.6-0.1,1.2-0.3,1.7-0.6c0.2-0.1,0.2-0.4,0.1-0.6c-0.1-0.1-0.2-0.2-0.4-0.2
						c-0.6,0.2-1.1,0.5-1.6,0.9C202.9,115.5,202.9,115.9,203.2,115.8L203.2,115.8z"/>
					<path class="st11" d="M202.7,111.8c0.6,0.2,1.6,0.4,2.1-0.3c0.1-0.1,0-0.3-0.2-0.4c-0.6-0.1-1.3-0.1-1.9,0.2
						c-0.1,0-0.2,0.2-0.2,0.3C202.5,111.7,202.6,111.8,202.7,111.8z"/>
					<path class="st11" d="M202.5,108.1c0.3-0.3,0.6-0.6,0.9-0.9c0.3-0.2,0.7-0.9,0.2-1.1s-0.9,0.3-1.1,0.5
						c-0.3,0.3-0.5,0.8-0.6,1.3c0,0.2,0.2,0.3,0.3,0.3C202.4,108.1,202.4,108.1,202.5,108.1z"/>
					<path class="st11" d="M203.2,103.6c0.4-0.2,0.8-0.5,1.1-0.8c0.3-0.2,0.6-0.5,0.8-0.9c0-0.1,0-0.2-0.2-0.3c0,0,0,0-0.1,0
						c-0.4,0-0.8,0.2-1.1,0.5c-0.4,0.3-0.7,0.7-0.9,1.1c-0.1,0.1,0,0.3,0.1,0.4C203,103.7,203.1,103.7,203.2,103.6z"/>
					<path class="st11" d="M202.9,99.4c0.2-0.2,0.5-0.4,0.7-0.6c0.3-0.2,0.4-0.5,0.5-0.9c0-0.1-0.1-0.3-0.2-0.3
						c-0.4,0-0.8,0.2-0.9,0.5c-0.1,0.2-0.2,0.3-0.2,0.5c0,0.2-0.1,0.4-0.1,0.6C202.5,99.5,202.8,99.6,202.9,99.4L202.9,99.4z"/>
					<path class="st11" d="M200,97.3c0.2-0.3,0.4-0.6,0.6-0.9c0.2-0.3,0.5-0.6,0.4-0.9c0-0.1-0.2-0.2-0.3-0.2
						c-0.4,0-0.7,0.5-0.9,0.8c-0.2,0.3-0.3,0.8-0.2,1.2C199.8,97.3,199.8,97.4,200,97.3C200,97.3,200,97.3,200,97.3L200,97.3z"/>
					<path class="st11" d="M195.6,99.3c0.4-0.6,1.4-1.2,1.1-2c0-0.2-0.2-0.3-0.4-0.2c-0.4,0.1-0.7,0.6-0.9,0.9
						c-0.2,0.4-0.3,0.8-0.3,1.2C195.2,99.4,195.5,99.4,195.6,99.3L195.6,99.3z"/>
					<path class="st11" d="M198.5,93.9c0.3-0.3,0.5-0.6,0.7-0.9c0.3-0.3,0.4-0.7,0.3-1.1c0-0.1-0.1-0.2-0.2-0.1
						c-0.7,0.2-0.9,1.4-1,2c0,0.1,0.1,0.1,0.1,0.1C198.4,93.9,198.4,93.9,198.5,93.9L198.5,93.9z"/>
					<path class="st11" d="M200.5,89.6c0.2-0.2,0.4-0.5,0.5-0.7c0.2-0.3,0.3-0.6,0.4-0.9c0.1-0.2-0.1-0.5-0.3-0.5
						c-0.2,0-0.3,0-0.4,0.1c-0.5,0.4-1,1.4-0.6,2C200.2,89.7,200.4,89.7,200.5,89.6C200.5,89.6,200.5,89.6,200.5,89.6L200.5,89.6z"
						/>
					<path class="st11" d="M203.2,90.7c0.1-0.2,0.2-0.4,0.4-0.6c0.2-0.2,0.4-0.4,0.4-0.7c0,0.1,0,0.2,0,0.2c0-0.1,0.1-0.2,0.1-0.3
						c0-0.1-0.1-0.2-0.2-0.2c-0.1,0-0.1,0-0.2,0c0.1,0,0.1,0,0,0c-0.1,0-0.1,0-0.2,0.1c-0.2,0.1-0.3,0.2-0.4,0.4
						c-0.2,0.3-0.2,0.7-0.2,1C202.9,90.9,203.2,91,203.2,90.7L203.2,90.7z"/>
					<path class="st11" d="M204.9,94.9L204.9,94.9l-0.2,0.1c0.3,0,0.4-0.3,0.6-0.5s0.3-0.5,0.4-0.7c0.1-0.2,0-0.4-0.1-0.5
						c-0.1-0.1-0.2-0.1-0.4,0c-0.3,0.1-0.5,0.4-0.7,0.6c-0.1,0.1-0.1,0.3-0.2,0.5c0,0.1,0,0.2,0,0.3l0.1,0.1c0.1,0.1,0.1,0.1,0,0
						c0,0.2,0.2,0.3,0.4,0.2C204.8,95,204.9,95,204.9,94.9L204.9,94.9z"/>
					<path class="st11" d="M202.8,93.6c0.1-0.1,0.1-0.3,0-0.4v0.2c0-0.1,0-0.1,0-0.2c0-0.1-0.1-0.2-0.1-0.2c-0.1,0-0.1,0-0.2,0h-0.1
						c-0.1,0-0.1,0.1,0,0c-0.2,0.1-0.3,0.2-0.3,0.4C202.1,93.8,202.7,93.9,202.8,93.6L202.8,93.6z"/>
					<path class="st11" d="M208.7,93.1c-0.1,0.7-0.2,1.8,0.4,2.2c0.1,0.1,0.3,0.1,0.4,0c0,0,0.1-0.1,0.1-0.1c0.1-0.7,0-1.4-0.3-2.1
						C209.2,92.8,208.8,92.8,208.7,93.1z"/>
					<path class="st11" d="M207.5,97.9c-0.1,0.1-0.2,0.2-0.2,0.4c-0.1,0.2-0.2,0.3-0.2,0.5c-0.1,0.3-0.2,0.9,0.3,1s0.8-0.5,0.9-0.9
						c0.1-0.4-0.1-0.8-0.4-1C207.7,97.8,207.6,97.8,207.5,97.9L207.5,97.9z"/>
					<path class="st11" d="M208.2,104.3c0.3-0.3,0.5-0.6,0.8-0.8c0.3-0.3,0.6-0.4,0.7-0.8c0-0.1,0-0.3-0.2-0.3c0,0,0,0,0,0
						c-0.4-0.2-0.8,0.2-1.1,0.4c-0.3,0.3-0.6,0.7-0.8,1.1C207.5,104.2,207.9,104.6,208.2,104.3z"/>
					<path class="st11" d="M207.4,108.3c0.3-0.2,0.5-0.3,0.8-0.4s0.6-0.4,0.7-0.7c0-0.2-0.1-0.3-0.2-0.3c-0.3,0-0.7,0.1-0.9,0.4
						c-0.2,0.2-0.5,0.5-0.7,0.8c-0.1,0.1-0.1,0.3,0,0.4C207.2,108.4,207.3,108.4,207.4,108.3z"/>
					<path class="st11" d="M208.4,111.9c0.4,0,0.8-0.2,1.1-0.5c0.2-0.2,0.2-0.4,0-0.6c-0.1-0.1-0.3-0.1-0.4-0.1
						c-0.3,0.1-0.6,0.3-0.9,0.5c-0.2,0.1-0.2,0.3-0.1,0.5C208.1,111.9,208.2,111.9,208.4,111.9z"/>
					<path class="st11" d="M208.5,116.9c0.1-0.1,0.2-0.1,0.2-0.2l0.3-0.3c0.2-0.2,0.3-0.4,0.4-0.6c0.1-0.2-0.1-0.5-0.3-0.5
						c-0.1,0-0.1,0-0.2,0c-0.3,0.1-0.5,0.3-0.6,0.6c-0.1,0.1-0.1,0.3-0.2,0.4c0,0.1-0.1,0.2-0.1,0.4
						C207.9,116.8,208.3,117.1,208.5,116.9L208.5,116.9z"/>
					<path class="st11" d="M210.3,122c0.1-0.3,0.3-0.7,0-1c-0.1-0.1-0.2-0.1-0.2,0c0,0,0,0,0,0c-0.1,0.2-0.1,0.5-0.2,0.7
						c-0.1,0.1,0,0.3,0.1,0.3C210,122.1,210.2,122.1,210.3,122L210.3,122z"/>
					<path class="st11" d="M208.9,125.8l0.4-0.6c0.1-0.2,0.3-0.5,0.2-0.7c0-0.1-0.2-0.2-0.3-0.2c-0.3,0-0.5,0.3-0.6,0.5
						c-0.1,0.2-0.3,0.5-0.3,0.8c-0.1,0.2,0.1,0.4,0.2,0.4C208.6,126,208.8,126,208.9,125.8z"/>
					<path class="st11" d="M212.5,107.4c0.2,0,0.3-0.1,0.4-0.2c0.1-0.1,0.3-0.3,0.4-0.4c0.2-0.3,0.4-0.8,0.1-1s-0.7,0.1-0.8,0.4
						s-0.1,0.3-0.2,0.4c0,0.1-0.1,0.1-0.1,0.2c0,0.1-0.1,0.2-0.1,0.3c0,0.2,0.1,0.3,0.2,0.4C212.4,107.4,212.5,107.4,212.5,107.4
						L212.5,107.4z"/>
					<path class="st11" d="M212.7,101.8c0.4-0.6,1-1.4,0.6-2.1c-0.1-0.1-0.3-0.2-0.4-0.1c0,0,0,0-0.1,0c-0.5,0.5-0.7,1.3-0.6,2
						c0,0.1,0.1,0.2,0.3,0.2C212.5,101.9,212.6,101.9,212.7,101.8L212.7,101.8z"/>
					<path class="st11" d="M213.1,92.9c0.4-0.2,0.6-0.5,0.8-0.9c0-0.1,0-0.3-0.1-0.3c-0.3-0.1-0.5-0.1-0.8,0.1
						c-0.3,0.2-0.4,0.5-0.4,0.8c0,0.2,0.2,0.4,0.4,0.4C213,93,213.1,92.9,213.1,92.9L213.1,92.9z"/>
					<path class="st11" d="M212.2,96.5h0.1c-0.1,0-0.1,0,0,0c0.1,0,0.2,0,0.4,0c0.3,0,0.5-0.2,0.6-0.4c0.1-0.2,0-0.5-0.2-0.7
						c-0.1,0-0.1-0.1-0.2-0.1c-0.3,0-0.5,0.2-0.7,0.4c-0.1,0.1-0.1,0.2-0.2,0.3c0,0.1,0,0.2-0.1,0.3C212,96.4,212,96.5,212.2,96.5
						C212.1,96.5,212.2,96.5,212.2,96.5L212.2,96.5z"/>
					<path class="st11" d="M215.7,98.6c0.4-0.5,1.1-1.5,0.3-2c-0.1,0-0.2,0-0.3,0c-0.3,0.2-0.4,0.5-0.4,0.8
						c-0.1,0.4-0.1,0.7-0.2,1.1S215.5,98.8,215.7,98.6L215.7,98.6z"/>
					<path class="st11" d="M217.1,92.1c0.1-0.3,0.4-0.4,0.6-0.7c0.1-0.2,0-0.4-0.1-0.5c-0.1,0-0.2-0.1-0.3,0c-0.4,0.1-0.7,0.6-0.8,1
						c0,0.1,0,0.3,0.1,0.4C216.8,92.4,217,92.3,217.1,92.1C217.1,92.2,217.1,92.2,217.1,92.1L217.1,92.1z"/>
					<path class="st11" d="M218.4,87.7c0.1,0.1,0.3,0.3,0.4,0.4s0.3,0.4,0.4,0.5c0.2,0.1,0.4,0,0.6-0.2c0,0,0-0.1,0-0.1
						c0.2-0.7-0.8-1.4-1.4-1C218.3,87.4,218.3,87.5,218.4,87.7C218.4,87.7,218.4,87.7,218.4,87.7L218.4,87.7z"/>
					<path class="st11" d="M219.5,84.4c-0.1,0.2,0,0.4,0.1,0.6c0.2,0.3,0.5,0.4,0.8,0.2c0,0,0,0,0,0c0.1-0.1,0.2-0.3,0.2-0.4
						c-0.1-0.2-0.3-0.4-0.5-0.5C219.8,84.4,219.6,84.2,219.5,84.4L219.5,84.4z"/>
					<path class="st11" d="M222.2,87.1c0.1,0.4,0.2,0.8,0.4,1.1c0.1,0.2,0.2,0.3,0.3,0.4c0.1,0.2,0.2,0.4,0.4,0.5
						c0.2,0.1,0.4,0,0.5-0.1c0.3-0.4,0-0.9-0.2-1.2c-0.3-0.4-0.6-0.7-1-0.9c-0.1-0.1-0.3-0.1-0.4,0C222.2,86.9,222.1,87,222.2,87.1
						L222.2,87.1z"/>
					<path class="st11" d="M221.4,91.5L221.4,91.5v-0.2c-0.2,0.3,0,0.7,0.2,0.9s0.6,0.6,1,0.5c0.1,0,0.2-0.2,0.3-0.3
						c0-0.3-0.3-0.6-0.5-0.8s-0.5-0.4-0.7-0.4h0.2l0,0c-0.1-0.1-0.2-0.1-0.3-0.1S221.3,91.4,221.4,91.5z"/>
					<path class="st11" d="M219.9,94.7c0,0.1,0,0.3,0.1,0.4c0.1,0.1,0.2,0.3,0.3,0.4c0.2,0.3,0.5,0.4,0.8,0.4c0.2,0,0.4-0.2,0.4-0.4
						c0-0.1,0-0.1,0-0.2c-0.1-0.2-0.3-0.4-0.6-0.5c-0.2-0.1-0.4-0.2-0.6-0.3c-0.1-0.1-0.2-0.1-0.3,0
						C219.9,94.6,219.9,94.7,219.9,94.7z"/>
					<path class="st11" d="M225.2,90.9c0.2,0.3,0.4,0.6,0.7,0.9c0.2,0.3,0.4,0.6,0.7,0.8c0.1,0.1,0.2,0,0.3-0.1c0,0,0-0.1,0-0.1
						c0-0.4-0.2-0.8-0.5-1.1c-0.3-0.3-0.6-0.6-1-0.7c-0.1,0-0.2,0-0.2,0.1C225.1,90.8,225.1,90.9,225.2,90.9L225.2,90.9z"/>
					<path class="st11" d="M225.1,94.9c0.1,0.2,0.1,0.3,0.2,0.5s0.1,0.2,0.1,0.3c0.1,0.1,0.1,0.2,0.2,0.2c0.1,0.1,0.3,0.2,0.4,0.1
						c0.1-0.1,0.1-0.1,0.1-0.2c0-0.2-0.1-0.5-0.2-0.6c-0.2-0.2-0.3-0.4-0.6-0.5C225.2,94.5,225.1,94.8,225.1,94.9L225.1,94.9z"/>
					<path class="st11" d="M223.1,97.2c0,0.7,0.3,1.4,0.9,1.8c0.2,0.1,0.5,0,0.6-0.2c0-0.1,0.1-0.2,0-0.3c-0.1-0.3-0.3-0.6-0.5-0.8
						c-0.2-0.2-0.4-0.5-0.6-0.7c-0.1-0.1-0.3-0.1-0.4,0C223.2,97.1,223.1,97.2,223.1,97.2z"/>
					<path class="st11" d="M227.5,97.2c0.2,0.4,0.3,0.9,0.3,1.4c0.1,0.2,0.3,0.3,0.5,0.3c0.1,0,0.2-0.1,0.2-0.2
						c0.2-0.3,0.2-0.7,0.1-1.1c-0.1-0.3-0.4-0.6-0.7-0.7C227.6,96.7,227.3,97,227.5,97.2L227.5,97.2z"/>
					<path class="st11" d="M228.3,95c0.2,0.2,0.2,0.4,0.4,0.6c0,0,0.1,0,0.2,0c0.3-0.2,0-0.7-0.2-0.9S228.1,94.8,228.3,95L228.3,95z
						"/>
					<path class="st11" d="M230.1,100.2c0,0.3-0.1,0.7-0.2,1c-0.1,0.3-0.1,0.7-0.1,1c0,0.1,0.2,0.2,0.3,0.2c0,0,0,0,0,0
						c0.4-0.2,0.6-0.6,0.6-1c0-0.4,0-0.9-0.2-1.3C230.6,99.8,230.2,99.9,230.1,100.2L230.1,100.2z"/>
					<path class="st11" d="M225.2,101c0.2,0.2,0.4,0.4,0.5,0.7c0.1,0.3,0,0.7,0.2,0.9c0.1,0.1,0.3,0.1,0.4,0c0,0,0,0,0,0
						c0.4-0.3,0.3-1,0.1-1.4c-0.2-0.4-0.6-0.7-1-0.7c-0.1,0-0.2,0.1-0.2,0.2C225.1,100.8,225.2,100.9,225.2,101L225.2,101z"/>
					<path class="st11" d="M227.7,104.2c-0.1,0.5-0.3,1.2,0.1,1.7c0.1,0.1,0.2,0.1,0.3,0c0.4-0.4,0.2-1.2,0.1-1.7
						c0-0.1-0.1-0.3-0.3-0.3C227.9,104,227.7,104.1,227.7,104.2L227.7,104.2z"/>
					<path class="st11" d="M225.2,105.5c-0.1,0.3-0.2,0.7-0.3,1c-0.1,0.3-0.1,0.6,0,0.9c0,0.1,0.2,0.1,0.3,0.1
						c0.7-0.2,0.8-1.4,0.7-2c0-0.2-0.2-0.3-0.3-0.3C225.3,105.2,225.2,105.3,225.2,105.5L225.2,105.5z"/>
					<path class="st11" d="M226.9,110.1c0.5-0.1,0.8-0.5,0.8-1c0-0.2-0.2-0.4-0.4-0.4c-0.1,0-0.1,0-0.2,0c-0.3,0.2-0.5,0.5-0.6,0.8
						C226.4,109.8,226.6,110.2,226.9,110.1L226.9,110.1z"/>
					<path class="st11" d="M230.5,105.7c0.1-0.1,0.2-0.3,0.2-0.5c0-0.1-0.1-0.2-0.1-0.3c-0.1,0-0.2,0-0.2,0c-0.1,0-0.1,0.1-0.2,0.1
						c0,0,0,0.1,0,0.1C229.8,105.5,230.2,106,230.5,105.7L230.5,105.7z"/>
					<path class="st11" d="M223.9,109.6c-0.2,0.3-0.4,0.7-0.6,1c-0.2,0.3-0.4,0.7-0.3,1.1c0,0.1,0.2,0.2,0.3,0.2c0,0,0,0,0,0
						c0.4-0.2,0.6-0.5,0.8-0.9c0.2-0.4,0.4-0.9,0.4-1.3c0-0.2-0.1-0.3-0.3-0.3C224,109.4,223.9,109.5,223.9,109.6L223.9,109.6z"/>
					<path class="st11" d="M221.7,113.5c-0.1,0.3-0.2,0.7-0.3,1c0,0.3-0.1,0.7,0.2,0.9c0.1,0,0.1,0,0.2,0c0.2-0.2,0.1-0.5,0.1-0.7
						c0-0.3,0-0.7,0.1-1C222,113.4,221.8,113.3,221.7,113.5z"/>
					<path class="st11" d="M225.1,112.5c0,0.6-0.4,1.2-0.2,1.8c0,0.1,0.2,0.2,0.2,0.1c0.4-0.6,0.5-1.2,0.4-1.9
						c0-0.1-0.1-0.2-0.2-0.2C225.2,112.2,225.1,112.4,225.1,112.5L225.1,112.5z"/>
					<path class="st11" d="M227.9,112.5c0.2-0.2,0.4-0.5,0.5-0.7c0-0.2,0-0.3-0.2-0.4c-0.1,0-0.2,0-0.2,0c-0.3,0.2-0.4,0.5-0.5,0.9
						c0,0.1,0,0.2,0.2,0.3C227.7,112.6,227.8,112.6,227.9,112.5L227.9,112.5z"/>
					<path class="st11" d="M229.8,108.3L229.8,108.3L229.8,108.3z"/>
					<path class="st11" d="M229.6,108.8c0.1-0.3,0.1-0.5-0.1-0.8c-0.1-0.1-0.2-0.2-0.3-0.1c0,0-0.1,0.1-0.1,0.1
						c-0.1,0.2-0.1,0.5-0.1,0.8c0,0.1,0.2,0.2,0.3,0.2C229.5,109,229.6,108.9,229.6,108.8z"/>
					<path class="st11" d="M223.6,118c0-0.2,0-0.5,0.1-0.7c0.1-0.2,0.2-0.4,0.2-0.6c0-0.2-0.1-0.4-0.3-0.5c-0.2,0-0.4,0.1-0.5,0.3
						c-0.1,0.5-0.1,1,0.1,1.6C223.2,118.3,223.6,118.2,223.6,118L223.6,118z"/>
					<path class="st11" d="M220.6,117.5c-0.1,0.3-0.3,0.7-0.4,1c-0.2,0.3-0.2,0.7,0,1.1c0.1,0.1,0.2,0.2,0.4,0.2
						c0.8-0.3,0.8-1.6,0.4-2.2c-0.1-0.1-0.2-0.2-0.3-0.1C220.7,117.4,220.6,117.4,220.6,117.5L220.6,117.5z"/>
					<path class="st11" d="M220.7,121.7c0,0.5,0.1,0.9,0.4,1.3c0.2,0.2,0.8,0.1,0.7-0.3c-0.1-0.5-0.3-0.9-0.6-1.2
						c-0.1-0.1-0.3-0.1-0.4,0C220.7,121.6,220.7,121.7,220.7,121.7z"/>
					<path class="st11" d="M223.1,120.7c0.2,0.3,0,0.8,0.3,1.1c0.1,0.1,0.2,0.1,0.3,0c0.2-0.2,0.3-0.5,0.2-0.8
						c-0.1-0.3-0.3-0.5-0.5-0.7C223.4,120.1,223,120.4,223.1,120.7L223.1,120.7z"/>
					<path class="st11" d="M225.7,117.7c0.1-0.3,0.3-0.6,0.5-0.9s0.4-0.7,0.2-1c0-0.1-0.1-0.2-0.3-0.2c-0.3,0.1-0.5,0.4-0.6,0.7
						c-0.2,0.4-0.3,0.7-0.3,1.1c0,0.1,0.1,0.2,0.2,0.2C225.6,117.8,225.6,117.7,225.7,117.7L225.7,117.7z"/>
					<path class="st11" d="M225.2,121.6L225.2,121.6c0,0.2,0.1,0.3,0.3,0.3s0.3-0.1,0.3-0.3v-0.1c0-0.1-0.1-0.3-0.3-0.3
						S225.2,121.5,225.2,121.6z"/>
					<path class="st11" d="M205.7,91.7L205.7,91.7c0.2-0.1,0.3-0.4,0.2-0.6c0-0.1-0.1-0.1-0.2-0.2l0,0c-0.2-0.1-0.5-0.1-0.7,0.2
						c-0.1,0.2-0.1,0.5,0.2,0.7C205.3,91.8,205.5,91.8,205.7,91.7L205.7,91.7z"/>
					<path class="st11" d="M201.3,83.5c-0.1,0.3-0.3,2.6,0.5,2.3c0.4-0.2,0.5-0.7,0.5-1.1c0-0.5-0.2-1-0.6-1.3
						C201.5,83.3,201.4,83.3,201.3,83.5C201.3,83.5,201.3,83.5,201.3,83.5z"/>
					<path class="st11" d="M198.9,83.8c-0.2,0.6-0.2,1.3,0.1,1.9c0.1,0.3,0.4,0.4,0.6,0.3c0.3-0.1,0.4-0.4,0.3-0.6c0,0,0,0,0,0
						c-0.1-0.3-0.2-0.5-0.3-0.8c-0.1-0.3-0.2-0.5-0.3-0.8C199.3,83.7,199.1,83.6,198.9,83.8C199,83.7,198.9,83.7,198.9,83.8
						L198.9,83.8z"/>
					<path class="st11" d="M199.8,80.6c-0.2,0.4-0.1,0.8,0.1,1.1c0.1,0.2,0.6,0.2,0.6-0.1c0-0.3,0-0.7-0.2-1
						C200.2,80.5,200,80.5,199.8,80.6C199.8,80.6,199.8,80.6,199.8,80.6L199.8,80.6z"/>
					<path class="st11" d="M202,77.9c-0.2,0.5-0.2,1,0,1.5c0.1,0.1,0.3,0.2,0.4,0.1c0.1-0.1,0.1-0.1,0.1-0.2c0-0.4-0.2-0.8-0.3-1.3
						c0-0.1-0.1-0.2-0.2-0.2S202,77.8,202,77.9L202,77.9z"/>
					<path class="st11" d="M203.4,74.9c-0.1,0.3,0,0.7,0.1,1c0.1,0.1,0.2,0.3,0.3,0.4c0.2,0.1,0.4,0.2,0.6,0.2
						c0.2,0,0.3-0.2,0.3-0.3c0,0,0-0.1,0-0.1c-0.1-0.1-0.1-0.2-0.2-0.3c-0.1-0.1-0.2-0.2-0.3-0.3c-0.2-0.2-0.3-0.4-0.4-0.6
						c-0.1-0.1-0.2-0.2-0.3-0.1C203.4,74.8,203.4,74.9,203.4,74.9L203.4,74.9z"/>
					<path class="st11" d="M205.3,72.8l0.6,0.7c0.2,0.3,0.4,0.6,0.7,0.6h-0.2h0.1c0.2,0.1,0.3,0,0.4-0.1c0,0,0-0.1,0-0.2
						c0,0,0,0,0-0.1c0,0.1,0,0.1,0,0.2c0.2-0.4-0.2-0.8-0.5-1c-0.3-0.2-0.6-0.4-1-0.4C205.2,72.5,205.2,72.7,205.3,72.8L205.3,72.8z
						"/>
					<path class="st11" d="M202.5,69.9c-0.1,0.2-0.1,0.5,0,0.8c0,0.3,0.1,0.6,0.3,0.9c0.1,0.2,0.4,0.2,0.6,0.1
						c0.1-0.1,0.2-0.2,0.2-0.3c0-0.3-0.1-0.6-0.2-0.9c-0.1-0.3-0.2-0.5-0.5-0.7C202.7,69.7,202.6,69.8,202.5,69.9
						C202.5,69.9,202.5,69.9,202.5,69.9L202.5,69.9z"/>
					<path class="st11" d="M204.4,69.5C204.4,69.5,204.4,69.5,204.4,69.5s0,0.1,0,0.2c0,0.1,0.1,0.2,0.1,0.3
						c0.1,0.2,0.3,0.2,0.5,0.1c0.2-0.1,0.2-0.3,0.2-0.4c-0.1-0.3-0.3-0.4-0.6-0.5c-0.1,0-0.2,0.1-0.3,0.2
						C204.3,69.4,204.3,69.4,204.4,69.5z"/>
					<path class="st11" d="M201,65.6c-0.2,0.9,0.2,1.7,1,2.1c0.3,0.2,0.8-0.2,0.6-0.5c-0.2-0.2-0.4-0.5-0.6-0.7
						c-0.2-0.3-0.4-0.6-0.4-0.9c0-0.1-0.2-0.2-0.3-0.2C201,65.4,201,65.5,201,65.6L201,65.6z"/>
					<path class="st11" d="M199.3,62.3c-0.2,0.2-0.4,0.6-0.3,0.9c0.1,0.2,0.1,0.3,0.2,0.4c0.1,0.1,0.3,0.2,0.4,0.1
						c0.1,0,0.1-0.1,0.1-0.2c0-0.1,0-0.2,0-0.3c0-0.1-0.1-0.1-0.1-0.2c-0.1-0.2-0.1-0.4,0-0.5C199.8,62.4,199.4,62.2,199.3,62.3
						L199.3,62.3z"/>
					<path class="st11" d="M200.7,62.9c-0.1,0.2-0.1,0.4-0.1,0.7c0,0.2,0.1,0.3,0.3,0.3s0.3-0.2,0.3-0.3c0-0.2,0-0.4-0.1-0.7
						c0-0.1-0.2-0.2-0.3-0.1C200.8,62.8,200.7,62.9,200.7,62.9L200.7,62.9z"/>
					<path class="st11" d="M195.5,54.7c-0.3,0.5-0.4,1.1-0.3,1.7c0.1,0.2,0.3,0.3,0.5,0.3c0.1,0,0.2-0.1,0.3-0.3
						c0.1-0.5,0.1-1.1,0-1.6c0-0.1-0.1-0.2-0.2-0.3C195.6,54.5,195.5,54.6,195.5,54.7L195.5,54.7z"/>
					<path class="st11" d="M197.1,57.2c-0.2,0.5-0.4,1.3,0.1,1.6c0.1,0,0.2,0,0.3-0.1c0.1-0.2,0.1-0.4,0.1-0.7c0-0.3,0-0.5,0-0.8
						S197.2,57,197.1,57.2L197.1,57.2z"/>
					<path class="st11" d="M198.1,60.9c0.1,0,0.1,0,0.2,0c0.1,0-0.2,0,0,0c0.1,0,0.3,0,0.3-0.2c0-0.2,0-0.3-0.1-0.4
						c-0.2-0.1-0.4-0.1-0.6,0c-0.2,0.1-0.2,0.3-0.1,0.5C197.9,60.9,198,60.9,198.1,60.9L198.1,60.9z"/>
					<path class="st11" d="M199.3,58.5c0,0.2,0.1,0.5,0.1,0.7c0,0.3,0.1,0.5,0.3,0.7c0.1,0.1,0.2,0.1,0.3,0c0.5-0.5-0.1-1.4-0.6-1.6
						C199.3,58.3,199.2,58.4,199.3,58.5L199.3,58.5z"/>
					<path class="st11" d="M199.1,55.3c0.2-0.2,0.1-0.5,0.2-0.7s0.3-0.8,0.2-1.1c0-0.1-0.1-0.2-0.3-0.1c-0.4,0.1-0.5,0.7-0.5,1.1
						s-0.1,0.7,0.2,0.9C199,55.3,199,55.3,199.1,55.3L199.1,55.3z"/>
					<path class="st11" d="M196.6,53.7c0.1-0.4,0.2-0.9,0.4-1.2c0.1-0.1,0.3-0.7-0.1-0.7s-0.5,0.5-0.6,0.8c-0.1,0.4-0.1,0.8,0,1.2
						c0,0.1,0.1,0.1,0.1,0.1C196.5,53.8,196.6,53.8,196.6,53.7L196.6,53.7z"/>
					<path class="st11" d="M197.8,50.2c0,0,0.1-0.2,0.1-0.3c0-0.1,0-0.1,0.1-0.2c0.1-0.2,0.3-0.3,0.3-0.5c0.1-0.2-0.1-0.4-0.3-0.5
						c0,0,0,0,0,0c-0.5-0.1-0.9,0.3-0.9,0.7c0,0,0,0,0,0.1c0,0.2,0,0.4,0.1,0.5c0,0.1,0.1,0.2,0.2,0.2c0.1,0,0.2,0,0.2,0.1
						c0,0.1,0.1,0.1,0.2,0C197.8,50.3,197.8,50.3,197.8,50.2L197.8,50.2z"/>
					<path class="st11" d="M199.7,50.6c0.1-0.3,0.3-0.5,0.4-0.8c0-0.1,0-0.2-0.1-0.3c-0.3-0.1-0.5,0-0.6,0.3
						c-0.1,0.2-0.2,0.5-0.1,0.7c0,0.1,0.2,0.2,0.3,0.1C199.6,50.7,199.7,50.7,199.7,50.6L199.7,50.6z"/>
					<path class="st11" d="M200.4,47.9c0.2-0.3,0.5-0.5,0.6-0.8c0-0.1,0-0.2-0.1-0.2c0,0-0.1,0-0.1,0c-0.4,0.1-0.6,0.6-0.7,0.9
						c0,0.1,0,0.2,0.1,0.2C200.3,48,200.3,48,200.4,47.9z"/>
					<path class="st11" d="M202.8,46.5c0.2-0.3,0.6-0.8,0.4-1.1c0-0.1-0.1-0.1-0.2-0.1c-0.4,0.1-0.5,0.7-0.6,0.9
						c0,0.1,0,0.3,0.1,0.3C202.6,46.6,202.7,46.6,202.8,46.5z"/>
					<path class="st11" d="M201.5,46c0.1-0.1,0.1-0.2,0-0.3c0-0.1-0.1-0.1-0.2,0c0,0,0,0,0,0c-0.1,0.1-0.1,0.2,0,0.3
						C201.3,46.1,201.4,46.1,201.5,46C201.5,46,201.5,46,201.5,46z"/>
					<path class="st11" d="M203.4,44.5c0.2-0.2,0.5-0.6,0.4-1c0-0.1-0.1-0.1-0.1-0.1c-0.4,0-0.7,0.6-0.7,0.9S203.2,44.5,203.4,44.5
						L203.4,44.5z"/>
				</g>
			</g>
		</g>
	</g>
</g>
</svg>
