<svg xmlns="http://www.w3.org/2000/svg" viewBox="0 0 225 225"><defs><style>.cls-1{fill:#fff;}.cls-2{fill:#ffd4d2;}.cls-3{fill:#fe8c7f;}.cls-4{fill:#d6380d;}.cls-5{fill:#e6c100;}.cls-6{fill:#1b2c3e;}.cls-7{fill:#d3aa00;}.cls-8{fill:#c6e7ee;}.cls-9{fill:#f97167;}.cls-10{fill:#f25a29;}</style></defs><title>extrovert</title><g id="Layer_2" data-name="Layer 2"><g id="Layer_1-2" data-name="Layer 1"><rect class="cls-1" width="225" height="225"/><path class="cls-2" d="M121.18,167.26a85.66,85.66,0,0,1,40.56-20.5c6.63-1.33,19.66-.89,26-3.31,13.46-5.17,18.36-15.59,18-30-.24-9.74-6.15-24-5.12-33.64C201.92,67.12,212.19,55,208,42.93c-2.89-8.2-11.91-12.89-20.58-13.57s-17.22,1.81-25.68,3.78-17.47,3.42-25.74.74a101.41,101.41,0,0,1-9.63-4.22A58.48,58.48,0,0,0,82.07,28.6c-5.26,2-10.54,5.17-12.91,10.29-3.6,7.78.64,17.37-2.46,25.37-2.6,6.7-9.56,10.45-15.86,13.9C40.31,83.93,31,88.36,25,98.78s-3.78,29.5,5.33,37.34c9.42,8.1,20.48,4.11,32,8.84,2.18.89,4.37,2.15,5.5,4.23,1,1.86,1,4.07,1.39,6.15,1.27,6.7,6.83,12,13.08,14.69s13.19,3.38,20,4c3.55.32,7.24.61,10.57-.65S118.62,169.59,121.18,167.26Z"/><path class="cls-3" d="M150.23,38.88c.1-3.44-3.23-6-4-9.37a.72.72,0,0,1,0-.48c.15-.35.66-.31,1-.17a5.83,5.83,0,0,1,3.64,4.75,5.53,5.53,0,0,0,.84-2.06c.25-.71,1-1.4,1.67-1.08.63,1.6-.68,3.27-.88,5-.07.63,0,1.28-.12,1.9a1.63,1.63,0,0,1-1.15,1.38C150.89,38.79,150.51,38.7,150.23,38.88Z"/><path class="cls-3" d="M171.85,123.3c1.17.19,1.39,1.91,1.81,3a7.45,7.45,0,0,0,1.75,3.07c.89.79,2.86,1.33,3.24.21.6-1.73-2.08-3.13-2.21-5,0-.63.13-1.26,0-1.88-.21-1.4-1.63-2.22-2.79-3a13.91,13.91,0,0,1-2.21-1.91c-1.67-.33-2.74,2.42-4.42,2.14,1.15,2.63,2.07,6.91,3.45,7.9.25.18.68-.07.83-.33.65-1.16-1-2.88-.28-4A.86.86,0,0,1,171.85,123.3Z"/><path class="cls-4" d="M161.37,193.46a7.86,7.86,0,0,1,3.55,1.07c.93.58,4.39,2.17,5.17,1.4,1.57-1.55-3.53-4.19-4.81-6a7.13,7.13,0,0,0-1-1.2,3.58,3.58,0,0,0-4.68.06,1.11,1.11,0,0,0-.31.4,1.56,1.56,0,0,0-.08.61C159.25,190.73,158.87,193.24,161.37,193.46Z"/><path class="cls-5" d="M97.27,179.68a10.19,10.19,0,0,0-.4,4.9,15.18,15.18,0,0,0,1.12,4,2.07,2.07,0,0,0,1,1.16,1.61,1.61,0,0,0,1.83-.77,7.1,7.1,0,0,0,.72-2,10.51,10.51,0,0,1,2-4.3,3.56,3.56,0,0,0,1.14-1.57c.21-.94-.32-1.26-1.05-1.9a19.2,19.2,0,0,0-3.74-2.59c-.71-.38-1.72-.65-2.2,0a1.72,1.72,0,0,0-.26,1C97.35,178.6,97.6,178.73,97.27,179.68Z"/><path class="cls-5" d="M146.58,176.92c-.29-.88-.41-1.93-1.17-2.45a3.25,3.25,0,0,0-.9-.38c-1.25-.37-1.2,0-2.45-.35a1.14,1.14,0,0,0-1.56.56,10.7,10.7,0,0,0-2,7.2.48.48,0,0,0,.13.35.43.43,0,0,0,.29.08l1.9.13a3,3,0,0,1,1.28-1.8.69.69,0,0,1,.47-.14c.24,0,.38.27.5.48a11.66,11.66,0,0,0,8.16,6,.9.9,0,0,0,.74-.11.91.91,0,0,0,.21-.65C152.21,182.69,147.54,179.88,146.58,176.92Z"/><path class="cls-3" d="M127,44.56a6.08,6.08,0,0,1-.59,3.28A5.88,5.88,0,0,1,125.39,49a8.11,8.11,0,0,1-1.21,1,7.69,7.69,0,0,1-4.29.65l-3.18-.13a.64.64,0,0,1-.45-.14.69.69,0,0,1-.15-.35,7.45,7.45,0,0,1-.1-2.62c1.51-.41,3.1-1,4.61-1.42a8.76,8.76,0,0,0,2.93-1.2,15.77,15.77,0,0,0,2.23-2.52c.27-.32.75-.63,1.06-.35a.82.82,0,0,1,.18.63C127,43.21,127,43.89,127,44.56Z"/><path class="cls-3" d="M135.39,44.26a7.76,7.76,0,0,1-1-3.33c0-2.15,1.68-3.89,3.15-5.46.45-.48.91-1.21.51-1.72a1.33,1.33,0,0,0-1.26-.3A8.1,8.1,0,0,0,131.3,37c-2.06,3.2-1.76,6.76-.16,10.22.48.1.86-.37,1.18-.75C133.31,45.31,133.85,44.27,135.39,44.26Z"/><path class="cls-6" d="M70.36,196.18h1.39c.39-1.64.93-2.78,1.88-3.1.48-.16,1,.3,1.21.75a14.37,14.37,0,0,0,1.5,2.19c2.13,2.09,3.36,1.84,5.27,2a3.64,3.64,0,0,0,2.15-.48,2.06,2.06,0,0,0,.75-1.17c.43-1.67-2.28-3.44-3.32-4.83l-.53-.69c-1-1.3-2.21-2.73-3.84-2.68a4.61,4.61,0,0,0-2.11.74,12.56,12.56,0,0,0-1.9,1.31C70.74,192,70,193.46,70.36,196.18Z"/><path class="cls-6" d="M124.22,191.14a14.4,14.4,0,0,0-5.2-2.87l-3.4-1.3a6.14,6.14,0,0,0-4-.56c-.73.24-1.56.75-2.2.32a8.64,8.64,0,0,0,3.34,8.78,6.85,6.85,0,0,0,2.24-.77,1.92,1.92,0,0,0-.44-1.3c-.29-.36-.69-.73-.62-1.19a.92.92,0,0,1,1.16-.62,3.16,3.16,0,0,1,1.22.8,12.71,12.71,0,0,0,5.21,2.74c1.29.32,3,.28,3.59-.89S125,192,124.22,191.14Z"/><path class="cls-7" d="M133.89,120.73c.05.2-.36.08-.28-.1s.34-.18.54-.15a113.59,113.59,0,0,0,13.16.87,22.4,22.4,0,0,0,4.41-.17c2.37-.41,4.58-2,6.7-3.1,4.37,3.19,9.47,6.66,12.35,11.24,2.11,3.34,3.26,7.2,4.63,10.88l1.21,3.4a17.57,17.57,0,0,1,1.25,4.66c.09,2.16-.9,4.19-1.83,6.15a132.37,132.37,0,0,0-10.67,33.17c-.12.7-.35,1.54-1,1.77a2,2,0,0,1-.9,0c-.86-.1-2-.08-3-.11a1.43,1.43,0,0,1-1.37-1.13c-1.23-5.93,2-12.39,1.73-18.51-.17-4.55-1.89-9.52.55-13.36,1.21-1.91,3.27-3.15,4.51-5a3.46,3.46,0,0,0,.67-2.24c-.18-1.44-1.63-2.32-2.92-3a122.26,122.26,0,0,0-16-7.27c-.55-.19-1.27-.33-1.63.14a1.37,1.37,0,0,0-.21.7c-.91,7.9.33,15.9-.1,23.85a2.72,2.72,0,0,1-.74,2.08,2.6,2.6,0,0,1-1.19.44,28.9,28.9,0,0,1-12.45-.44c-1.84-.48-3.64-1.15-5.5-1.54-6.4-1.34-13,.6-19.18,2.66-1.72-4.57-1-2.59-2.7-7.16,7.79-3.43,17-.68,25-3.52a7,7,0,0,0,3.78-2.65c1-1.56.81-3.53.61-5.35q-.51-4.69-1.21-9.38C131.1,132.52,130.25,125.65,133.89,120.73Z"/><path class="cls-8" d="M160.06,119.24c-.85-2.43-1.71-4.94-1.52-7.51.32-4.17,3.32-7.61,4.71-11.55.94-2.68,1-6.33,1.22-9.17l3,3.3a9.42,9.42,0,0,1,2.15,3.18,7.84,7.84,0,0,1-.48,5c-1.15,3.19-2.93,6.17-3.65,9.48a15.64,15.64,0,0,0,.78,9.22,21.94,21.94,0,0,1,7.49-1.43c-1.15-5.25,2.09-10.33,3.72-15.46,1.58-5,1.62-10.57-.77-15.19a26.91,26.91,0,0,0-3.35-4.81q-2.82-3.39-6-6.5c-1.14-1.13-2.5-2.3-4.11-2.22a6.44,6.44,0,0,1-3.5,7,5.86,5.86,0,0,1-7.33-2.47c-1.31-2.52-.45-6.12,2.16-7.22.38-4.65-3.1-8.6-5-12.88A31.69,31.69,0,0,1,148,55a15.75,15.75,0,0,1-.65-5.73c.53-4.24,4.1-7.48,5.24-11.59l-2.9-.18c-1.12,2.82-4.28,4.16-6.36,6.36-3.09,3.27-3.58,8.17-3.54,12.67a83.06,83.06,0,0,0,2.56,19.72c.1.38-.18.21.21.13a10.88,10.88,0,0,1,1.4,6.55,20.37,20.37,0,0,1-1.76,5.6c-1.08,2.56-2.17,5.13-3.36,7.64-2.11,4.49-4.59,8.94-5.26,13.85a38.73,38.73,0,0,0-.12,7c.1,2.42.21,4.83.31,7.24a15.62,15.62,0,0,0,6.08,2.23c4.36.65,8.8-.4,13-1.9a19,19,0,0,0,5-3.11A18.82,18.82,0,0,0,160.06,119.24Z"/><path class="cls-9" d="M159.83,69.28a3.27,3.27,0,0,0-3.07.38c-2.55,1.84-5.4,3.74-6.39,6.72a8,8,0,0,0,2.3,8.56,7,7,0,0,0,11-3.15,12.66,12.66,0,0,0,.53-4.11c0-1.17,0-2.33-.08-3.49A7.63,7.63,0,0,0,163.5,71C163,70,160.84,69.69,159.83,69.28Z"/><path class="cls-3" d="M158.3,77.92c3.27-.63,6.06-1.14,8.28-3.62a4.85,4.85,0,0,0,.64-.85,4.07,4.07,0,0,0,.43-1.79c0-2.31-1.27-4.41-2.6-6.31-.9-1.28-2.19-2.69-3.73-2.39a3.64,3.64,0,0,0-1.35.67c-4,2.83-8.16,8.88-5.29,12.86A3.79,3.79,0,0,0,158.3,77.92Z"/><path class="cls-5" d="M169.86,77.84c-.29.26,1.65,3.44,5,2.28a4.14,4.14,0,0,0,2.7-3.57,5.19,5.19,0,0,0-1.9-4.18c-.9-.77-2.07-1.32-2.63-2.36-.68-1.26-.27-2.8-.5-4.21s-1.15-4.41-5.71-5.68a7.25,7.25,0,0,0-3.52.15,4.31,4.31,0,0,0-2.78,2,1.66,1.66,0,0,0,.16,1.77,2.46,2.46,0,0,0,1,.52,9.13,9.13,0,0,1,3.94,2.55c1.34,2,.56,4.75-.28,7a4.89,4.89,0,0,0-.43,2.18A2.71,2.71,0,0,0,167,78.75C169.49,79,168.67,78.51,169.86,77.84Z"/><path class="cls-4" d="M129.49,116.79a20.29,20.29,0,0,1-2.18-11.53,60.41,60.41,0,0,1,2.44-11.64,7.63,7.63,0,0,1,.75-2A8.46,8.46,0,0,1,133,89.35a44.18,44.18,0,0,0,14.24-17.6,7.17,7.17,0,0,0,.8-3,7.72,7.72,0,0,0-.74-2.64,70.67,70.67,0,0,0-4.3-9.15c-2.9-4.89-6.91-9.46-6.88-15.08a.32.32,0,0,0-.43-.3c-1.39.56-4.53,2.2-5.95,2.95a1.07,1.07,0,0,0-.55,1.18c.29,1.33.88,4,1.27,5.13q2.17,6.48,4.37,13a11.44,11.44,0,0,1,.85,4.26c-.19,3.24-3.05,5.69-6,7.14-2.44,1.21-6.11,2.1-8.29.47a6.13,6.13,0,0,1-4.73,2.46,6,6,0,0,1-5.2-2.71c-.34-.55-.58-1.16-.89-1.73a14.42,14.42,0,0,0-1.18-1.71L100.3,60a2.64,2.64,0,0,1-.52-1.08c-.23-1.24.72-1.75,1.58-2.13a116,116,0,0,1,17.43-6.25c-.26-1.3-.53-2.59-.79-3.88-7.46,3.1-16.38,1.56-23.5,5.38a6.78,6.78,0,0,0-2.68,2.26c-1,1.7-.77,3.87-.4,5.84a31,31,0,0,0,1.28,5c2.08,5.66,7.46,10.11,6.64,16.19a8.89,8.89,0,0,1-2,4.39c-2.14,2.62-2.6,5.92-3,9.13-.59,4.36-1.16,8.78-.62,13.14a26.19,26.19,0,0,0,6.67,14.45c-.69.08-.57,1,0,1.49a2.75,2.75,0,0,0,2,.39,92.42,92.42,0,0,0,14.38-1.62A29.87,29.87,0,0,0,129.49,116.79Z"/><path class="cls-3" d="M117.91,66a5.57,5.57,0,0,0,3.93,2.35,6.69,6.69,0,0,0,1,8.76,1.82,1.82,0,0,1,.65,1.15c.17,1.27-1.06,1.64-2.06,1.74-4.23.42-8.85-.6-11.83-3.53a1.14,1.14,0,0,1,.21-1.77A16.65,16.65,0,0,0,115.68,68,2.88,2.88,0,0,1,117.91,66Z"/><path class="cls-6" d="M116.19,56.54a3,3,0,0,1,1.3-1.77c.93-.47,2.07-.06,3.09-.26,1.45-.29,2.49-1.74,4-1.92a3.76,3.76,0,0,1,3.29,1.62,9.4,9.4,0,0,1,1,5.08c-.07.1-.44-1.14-.56-1.11a23.86,23.86,0,0,1-4,.86,9.48,9.48,0,0,0-1.5.2A5.7,5.7,0,0,0,120,61.32a5.48,5.48,0,0,1-1.31,1.32,1.54,1.54,0,0,1-1.75,0,2,2,0,0,1-.48-.71A7.51,7.51,0,0,1,116.19,56.54Z"/><path class="cls-3" d="M116.44,69.72c-.15.22,0,.51.22.7a7.14,7.14,0,0,0,9.06.56,17.56,17.56,0,0,0,2.08-2.38,8,8,0,0,0,1.87-2.74,7.16,7.16,0,0,0,.25-2.31c0-2-.3-4.22-1.86-5.48A6.29,6.29,0,0,0,125.55,57a10.5,10.5,0,0,0-2.29-.36,7.65,7.65,0,0,0-6.87,4.91A9.76,9.76,0,0,0,116.44,69.72Z"/><path class="cls-6" d="M147.33,175.75a100,100,0,0,0,9.58-21.88,29.58,29.58,0,0,1,2.3-6.18c1.25-2.18,3.19-4.15,3.32-6.66s-1.6-4.71-3.33-6.56a88.69,88.69,0,0,0-22.92-17.59c-2.62-1.4-6.35-2.09-7.55-1.87-3.39.64-5.27,1.07-8.6,1.94s-9.27,1.93-12.6,3c-2.56.8-6,1.45-7.72,1.85a8.43,8.43,0,0,0,.36,6,23,23,0,0,0,3.27,4.87,116,116,0,0,0,7.79,9.07,40.57,40.57,0,0,1,3.64,3.89c2.26,3,3.34,6.66,4.37,10.25-5.36,3.09-10.69,6.43-14.87,11a52.16,52.16,0,0,0-7.13,10.49,21,21,0,0,1,7,4.59,43.94,43.94,0,0,1,20.79-19c2.88-1.27,6.3-2.62,7.16-5.65a9.72,9.72,0,0,0-.24-4.63c-1.82-8.44-2.55-12.11-5-20.41-.67-2.32-1.51-5.73-1.12-6,.77-.5,3.76,1.63,4.56,2.1,8.75,5.08,12.25,7,16.22,13.49a5.49,5.49,0,0,1,.61,1.24c.68,2.28-1.45,4.29-2.73,6.29a19.54,19.54,0,0,0-2.32,7.29C141.1,163,140,169.4,140,175.9a17.77,17.77,0,0,1,6.49,1.11C146.82,176.47,147,176.27,147.33,175.75Z"/><path class="cls-4" d="M79.44,189.46a33.45,33.45,0,0,1,10-26.88,13.58,13.58,0,0,0,2.94-3.31c1-1.91.82-4.21.6-6.36-.7-7.06-1.72-14.73-6.79-19.71-2.46-2.43-5.66-3.95-8.83-5.35-.84-.37-1.91-.7-2.6-.09a2.34,2.34,0,0,0-.56,1,17.65,17.65,0,0,0,.57,12c1.28,3,3.38,5.62,5.15,8.39a42.88,42.88,0,0,1,3.69,7.2c-4.15,2-7.16,5.87-8.9,10.13A43.78,43.78,0,0,0,72,180.06c-.24,3.37-.32,6.88,1,10A29.5,29.5,0,0,1,79.44,189.46Z"/><path class="cls-3" d="M133.68,92.41c.71,2.32,1.58,2.86,2.3,1.78a2.53,2.53,0,0,0,.23-.72c.75-2.47-1.26-4.78-3.54-6a2.47,2.47,0,0,0-1.82-.35,2,2,0,0,0-1.26,1.62,5.81,5.81,0,0,0,.17,2.15,7.3,7.3,0,0,1,2.28.21A2.2,2.2,0,0,1,133.68,92.41Z"/><path class="cls-10" d="M109.21,188.38c0,.38.52.44.88.35a33.71,33.71,0,0,0,4.58-1.53c.26-.11.57-.32.5-.59-2.29-9.1-5-18.14-4.58-27.51q.14-3.3.28-6.58a8.67,8.67,0,0,0-.32-3.41,8.57,8.57,0,0,0-1.93-2.71L93,129.6c-2.35-2.51-5.41-3.69-8.65-4.86-2.48-.89-5.28-1.54-7.7-.51-3.18,1.36-4.63,5.43-3.71,8.76s3.73,5.9,6.87,7.35c1.77.81,3.73,1.36,5.09,2.75s1.8,3,2.79,4.53c1.67,2.5,4.47,4,7,5.55s5.18,3.59,6,6.49a17.73,17.73,0,0,1,.13,5.82A31.13,31.13,0,0,0,109.21,188.38Z"/><path class="cls-5" d="M87.74,93.27a4.47,4.47,0,0,1-1.58-.84c-1.29-.92-5.35-2.07-6.64-3,5.57-6.44,18.36-8.32,26-4.64,2.16,1,4.13,2.45,6.33,3.39a15.89,15.89,0,0,0,10.66.58c2.3-.69,4.46-1.91,6.84-2.16a1.08,1.08,0,0,1,.83.15,1.15,1.15,0,0,1,.31.81l.3,2.77a1,1,0,0,1-.73,1.34l-5.22,2.62c-2.2,1.1-4.52,2.23-7,2.14-3.09-.12-5.72-2.12-8.33-3.76a22.78,22.78,0,0,0-8.49-3.49,11.78,11.78,0,0,0-8.81,1.9C90.89,92.13,89.44,93.67,87.74,93.27Z"/><path class="cls-7" d="M72.66,91a8.27,8.27,0,0,0,5.27,0,4.48,4.48,0,0,0,3-4A30.66,30.66,0,0,1,98,96.64c1.44,1.62,2.78,3.65,2.47,5.79-.24,1.58-1.33,2.88-2.24,4.19C93.84,113,93.36,122,96.65,129c-2.44,1.26-5.43.93-10,.48-2.79-.27-4.82-1.13-7.53-1.82s-6.12-2.14-7.2-4c3-2.58,5.82-5.92,7-9.73a13.11,13.11,0,0,0-1.66-11.38c-1.29-1.73-3.06-3-4.31-4.8s-2.42-.17-2.48-2.21C70.46,95.19,72.17,90.88,72.66,91Z"/><path class="cls-3" d="M128.22,106.67a1.62,1.62,0,0,1-.22,1.17,1.8,1.8,0,0,1-1.82.36,9.83,9.83,0,0,1-3.64-1.64c-.07.18.12-.25,0-.06l-4.7-2.24a2.44,2.44,0,0,1,.64-2.67,6.88,6.88,0,0,1,2.41-2,13.3,13.3,0,0,1,2.8-1c.76-.16,1.76-.1,2,.62s-1,1-1.69,1.48-1.28,1.25-.67,1.79C123.72,102.75,128,104.5,128.22,106.67Z"/><path class="cls-3" d="M65.4,77.23c.14,0,.13-.26,0-.28s-.26.14-.25.28a.72.72,0,0,0,.21.38,46,46,0,0,1,3.6,5c1.79,2.87,3.56,5.17,3.2,8.53a1.63,1.63,0,0,0,.17,1.22,1.49,1.49,0,0,0,.94.4c2.64.44,5.65.78,7.72-.9A9.39,9.39,0,0,0,83.12,89c.26-.36-.21-.78-.59-1a12.06,12.06,0,0,1-6.14-9.43A37.75,37.75,0,0,1,66.72,77C66.06,76.82,65.85,76.71,65.4,77.23Z"/><path class="cls-3" d="M68.31,62.57A16.92,16.92,0,0,1,74.2,63a7.48,7.48,0,0,1,2.34.9c2.27,1.43,3.14,4.47,5.44,5.85.48.28,1.09.74.85,1.23a.93.93,0,0,1-.48.39,7.31,7.31,0,0,0-2.27,1.27c-.61.63-.27,1.46,0,2.3a5.9,5.9,0,0,1,.26,3.83,3.92,3.92,0,0,1-2.43,3.19,5.64,5.64,0,0,1-2,.13c-2.87-.16-6-.52-8-2.68A11.47,11.47,0,0,1,66.3,76.7,22,22,0,0,1,65.15,74,11,11,0,0,1,68.31,62.57Z"/><path class="cls-7" d="M58.18,76.59c-3.8.59-8.22-1.07-9.59-4.67a11.14,11.14,0,0,1-.13-6,39.35,39.35,0,0,1,2.42-8.08c.81-1.92,1.79-4.07,1-6s-3.3-2.93-4.59-4.73c-1.5-2.07-1.15-5-.27-7.36,2.29-6.25,6.64-11.1,13.13-12.6a3.85,3.85,0,0,1,4.95,3.1c.06.82-.19,1.66-.08,2.48.24,1.59,1.78,2.67,3.32,3.15A42.52,42.52,0,0,1,73,37.09c3.14,1.41,4.71,5.11,4.68,8.55s-1.33,6.72-2.51,10c-.47,1.3-.92,2.79-.31,4,.44.91,1.39,1.55,1.64,2.53a2.88,2.88,0,0,1-1.25,2.79,32,32,0,0,1-2.79,1.6c-2.17,1.33-3.64,4.14-2.66,6.48.48,1.13,1.44,2,1.92,3.12a4.21,4.21,0,0,1-6.91,4.6c-.49-.51-.84-1.14-1.28-1.69A5.83,5.83,0,0,0,58.18,76.59Z"/><path class="cls-5" d="M74.88,92.2c-1.49-.45-2.62-.82-3.66.15-2.54,2.35-2.3,6.92-.69,10,1.84,3.51,6.12,5.16,10.07,5s7.71-1.67,11.39-3.14,7.51-2.9,11.46-2.74c5.27.2,10.17,3.2,15.45,3.17,0-1.2,0-2.4,0-3.59-2.4.66-4.94-.27-7.14-1.45S107.42,97,105,96.49c-3.55-.72-7.13.72-10.65,1.55a32,32,0,0,1-5.84.84,9.19,9.19,0,0,1-4.45-.6,11.84,11.84,0,0,1-2.59-1.92C79.2,94.4,77.75,93.06,74.88,92.2Z"/><path class="cls-6" d="M121.7,62.82h0a.75.75,0,0,0,.73-1,.77.77,0,0,0-1.11-.45l0,0a.73.73,0,0,0-.34.83.75.75,0,0,0,.71.54Z"/><path class="cls-6" d="M127.85,64.88a.79.79,0,1,0-.78-.78.79.79,0,0,0,.78.78Z"/><path class="cls-6" d="M75,69.33l0,0a.82.82,0,1,0,.8-1.38h0a.81.81,0,0,0-.91.37.83.83,0,0,0,.12,1Z"/><path class="cls-6" d="M159.49,67.7a.75.75,0,1,0-1.18-.16.76.76,0,0,0,1.18.16Z"/><path class="cls-6" d="M163.66,70.81h0a.79.79,0,1,0-.29-1.08v0a.78.78,0,0,0,.27,1Z"/><path class="cls-6" d="M119.84,66.09c-.9,1.73.21,3.39,1.7,4.35,1.27.83,4.18,1.34,4.9-.47a.17.17,0,0,0-.16-.21c-.61,0-1.18.32-1.8.39a4.33,4.33,0,0,1-2.21-.39,4,4,0,0,1-2.33-3.64c0-.06-.08-.09-.1,0Z"/><path class="cls-4" d="M156,70.92c1.86.36,3.08,2.1,4.64,3.17a.79.79,0,0,1-.26.5A3.64,3.64,0,0,1,158,75.78a2.51,2.51,0,0,1-2.3-1.15C155,73.52,155.49,72.12,156,70.92Z"/><path class="cls-4" d="M161.13,68a4.57,4.57,0,0,0-1.24.81A7,7,0,0,0,158.61,70a.94.94,0,0,0,0,1.31,1,1,0,0,0,1.31,0c.36-.35.7-.73,1-1.1a3.76,3.76,0,0,0,.94-1.41.63.63,0,0,0-.76-.77Z"/><path class="cls-4" d="M125.11,61.94c-.63.35-.74,1.34-.84,2a7.27,7.27,0,0,1-.57,2.4c-.82,1.46,1.49,2.78,2.22,1.3a6.71,6.71,0,0,0,.56-3.65c0-.56-.37-2.58-1.37-2Z"/><path class="cls-4" d="M76.2,76.7c1.7.73,3.35-.29,4.56-1.48.84-.83-.42-2.07-1.29-1.29a17,17,0,0,1-1.38,1.31,9,9,0,0,1-1.89.93.31.31,0,0,0,0,.53Z"/><path class="cls-4" d="M77.08,76.72a3.45,3.45,0,0,0,3.93.46c1.1-.65,0-2.42-1-1.71-.85.57-2,.13-2.85.62a.41.41,0,0,0-.08.63Z"/><path class="cls-4" d="M73.33,72.4s0,0,0,0,0,0,0,0Z"/><path class="cls-4" d="M72.87,71.35c-.65-.22-1.1.25-1.27.86a2.55,2.55,0,0,0,.32,1.85,1.9,1.9,0,0,0,1.69,1,2.06,2.06,0,0,0,1.75-1.71c.3-1.73-1.37-4.44-3.26-2.88-1.41,1.15-.22,4,1.35,4.37A1.21,1.21,0,0,0,75,73.73a1.85,1.85,0,0,0-.22-1,1.09,1.09,0,0,0-1.88,0,2.55,2.55,0,0,0-.27,1l1.5-1.14c-.1,0,.2.15.07,0s.13.2-.06-.07a2.4,2.4,0,0,1-.16-.27c-.16-.29.07.21,0-.11a1.38,1.38,0,0,1-.08-.29c.07.33,0-.21,0,.17,0-.21-.08.11-.12.16a.66.66,0,0,1-.63.15s-.35-.24-.18-.09-.12-.19,0,.06c0,0,.16.32.06.09a2.19,2.19,0,0,1,.16.57c0-.29,0,0,0,0,0-.27,0-.15,0,0h0c-.13.26.15-.15,0,0s.2-.1.24-.11c-.14,0,.25,0,.31,0s-.26-.08,0,0l-.17-.1c.22.14-.1-.11-.17-.18.14.16-.11-.18-.15-.25s-.11-.23,0-.06a1.06,1.06,0,0,1-.06-.19c0,.16,0,0,0,0,0,.16,0-.07,0,0a.62.62,0,0,0,.06-.48c0-.12,0,.12,0,.19a.4.4,0,0,0-.24-.57Z"/><path class="cls-6" d="M120.45,59.8a.69.69,0,0,0,.41-.13,3.24,3.24,0,0,1,.86-.24,12.7,12.7,0,0,0,1.64-.07.37.37,0,0,0,.16-.6c-.5-.62-1.8-.41-2.43-.13a1.36,1.36,0,0,0-.79.73c0,.12,0,.43.15.44Z"/><path class="cls-6" d="M129.7,62.28c.27-.4,0-.94-.25-1.28a2.29,2.29,0,0,0-1.35-.83.59.59,0,1,0-.31,1.14,1.88,1.88,0,0,1,.89.42,4.12,4.12,0,0,0,.76.62.19.19,0,0,0,.26-.07Z"/><path class="cls-4" d="M135.31,94.17a.46.46,0,0,0,0-.91.46.46,0,0,0,0,.91Z"/><path class="cls-4" d="M124.86,99.81a.58.58,0,0,0,.32,0,.51.51,0,0,0,0-1,.5.5,0,0,0-.32,0,.51.51,0,0,0,0,1Z"/><path class="cls-4" d="M127,106.52a.47.47,0,0,0,0-.94.47.47,0,0,0,0,.94Z"/><path class="cls-4" d="M127.27,107.71l.07-.08a.54.54,0,1,0-.77,0l.07.08a.43.43,0,0,0,.63,0Z"/><path class="cls-5" d="M56.17,37c-1.74-.08-2.26,1.12-1.58,2.67A10.69,10.69,0,0,0,56.08,42a19.51,19.51,0,0,1,1.28,1.71c.7,1.08.26,1.82-.33,2.8a.57.57,0,0,0,.63.83c2.3-.43,2.1-2.87,1.1-4.45-.49-.77-5.12-5-2.54-5.54.24,0,.17-.39,0-.4Z"/><path class="cls-5" d="M53.47,34.25c-5.18.12-1.74,9.76-.24,9.14a.86.86,0,0,0,.61-.8c0-1.31-.94-2.2-1.43-3.36a4,4,0,0,1,1.18-4.56.23.23,0,0,0-.12-.42Z"/><path class="cls-5" d="M52.83,46.34a1.67,1.67,0,0,1,.5,2c-.14.45-.36.71-.11,1.18a.74.74,0,0,0,1,.22c.75-.44.77-1.76.57-2.47A1.74,1.74,0,0,0,53,45.87c-.23,0-.39.29-.2.47Z"/><path class="cls-5" d="M48.8,42a4.11,4.11,0,0,0-.24,2.35c.12.74,1,1.8,1.78,1.3a.46.46,0,0,0,.21-.52c-.1-.5-.66-.81-.92-1.24a5.27,5.27,0,0,1-.43-1.84.22.22,0,0,0-.4,0Z"/><path class="cls-5" d="M56.7,35c.35-.1.38-.38.57-.61s.45-.45.69-.7a.76.76,0,0,0,.12-.9.77.77,0,0,0-1-.27,1.82,1.82,0,0,0-.94,1.29,1.43,1.43,0,0,0,0,.74c.09.24.29.53.59.45Z"/><path class="cls-5" d="M55.51,32.16a1.45,1.45,0,0,1,.37-.48,7.19,7.19,0,0,0,.66-.42.21.21,0,0,0,0-.29.94.94,0,0,0-1.19,0,1.17,1.17,0,0,0-.35.5,1,1,0,0,0,0,.6.28.28,0,0,0,.51.07Z"/><path class="cls-5" d="M59.16,29.46a23,23,0,0,1,1.62,1.81c.61.93.07,1.81-.46,2.57s-1.45,1.87-.82,2.95a.68.68,0,0,0,.58.34c.58-.05.66-.51.76-1,.21-1,1.19-1.87,1.57-2.87.74-2-1.32-3.82-3-4.13a.21.21,0,0,0-.2.34Z"/><path class="cls-5" d="M61,41.31c.24,1.29.93,2.42,1.29,3.68.43,1.53-.29,3.19-.43,4.71-.24,2.59-.19,6.11,2.09,7.78a.66.66,0,0,0,1-.56c0-1.72-.88-3.28-1-5a33.38,33.38,0,0,1,.43-5.08,7.57,7.57,0,0,0-2.71-5.88.39.39,0,0,0-.64.37Z"/><path class="cls-5" d="M58.62,49.6A4.75,4.75,0,0,0,58,50.66a3.78,3.78,0,0,0-.26,1.44c0,.87,1,2.18,1.92,1.33a.47.47,0,0,0,.12-.45c-.15-.54-.69-.74-.8-1.32a4.46,4.46,0,0,1,.16-1.85c.1-.31-.33-.45-.5-.21Z"/><path class="cls-5" d="M64,36.59a1.49,1.49,0,0,0-.33.52,2.44,2.44,0,0,0-.17.8c0,.56.24,1.32.89,1.4a.68.68,0,0,0,.85-.65c0-.42-.28-.66-.41-1a4.77,4.77,0,0,0-.38-1,.29.29,0,0,0-.45-.06Z"/><path class="cls-5" d="M66.62,37.55c.16,1.71,2.17,2.11,3.1,3.33,1.47,1.92-1.76,4.82.15,6.45a.52.52,0,0,0,.72,0c.8-.72.76-1.9,1-2.9a7.14,7.14,0,0,0,.14-3.25c-.41-2-3.07-3.1-4.64-3.91-.2-.1-.51,0-.48.28Z"/><path class="cls-5" d="M66,43.27c.1.43.42.55.46,1.11A10.38,10.38,0,0,1,66.23,47a8.22,8.22,0,0,0,1.4,6.64c.48.65,1.64.3,1.38-.58-.42-1.42-1.21-2.6-1.33-4.12-.08-1,.14-2,.15-3.06s0-3.19-1.41-3.07a.39.39,0,0,0-.39.39s0,.05,0,.08Z"/><path class="cls-5" d="M70.37,49.24a2.81,2.81,0,0,0-.07,1.08c.06.44.34,1,.86,1a.69.69,0,0,0,.53-1.07,2.23,2.23,0,0,1-.39-.91c0-.51-.8-.67-.93-.12Z"/><path class="cls-5" d="M73.82,41.52a17.68,17.68,0,0,1,.47,4c0,1.24-1.05,2.16-.81,3.35a.5.5,0,0,0,.49.36c1.58.05,2-2,2-3.29.06-1.74-.9-3.18-1.61-4.69-.15-.32-.63-.09-.56.24Z"/><path class="cls-5" d="M73.11,52.28c-.85,2.51-1.9,4.74-2.22,7.43a4.07,4.07,0,0,0,.56,3,1.82,1.82,0,0,0,2.65.2.84.84,0,0,0-.36-1.39c-.91-.29-1,0-1-1.2A20,20,0,0,1,73.24,57c.25-1.36,1-3.36.39-4.73a.27.27,0,0,0-.52,0Z"/><path class="cls-5" d="M68.37,56.09c-1.2-.24-1.29,2.36-1.05,3a.69.69,0,0,0,1.32,0,4.84,4.84,0,0,0,0-1.78c0-.3.2-1.16-.27-1.25Z"/><path class="cls-5" d="M54.37,53c.38.31.7,1.63.89,2a6.46,6.46,0,0,1,.21,5,10.27,10.27,0,0,0-.58,5.56c.83,4,3.62,5.51,7,7.12.42.19,1.07-.14.87-.67-.5-1.31-1.53-1.79-2.76-2.35-2.78-1.29-3.94-5-3.22-7.79.57-2.21,1.17-3.9.49-6.18-.3-1-1.33-3.18-2.44-3.48-.39-.1-.76.44-.42.72Z"/><path class="cls-5" d="M59.23,59.17c-.17.71,0,1.47-.15,2.2s-.3,1.45-.39,2.19c-.17,1.55.73,3.45,2.36,3.72a.75.75,0,0,0,.84-1.09c-.42-.7-1.13-1.1-1.37-1.92a5.29,5.29,0,0,1,.07-2c.11-1,.08-2.73-1-3.22a.25.25,0,0,0-.34.14Z"/><path class="cls-5" d="M63.19,59.9a5.79,5.79,0,0,0,.49,4.18c.49,1,2.09,2.54,3.22,1.75a.54.54,0,0,0,.25-.6c-.29-.92-1.47-1.23-2-2A8.72,8.72,0,0,1,63.8,59.9a.32.32,0,0,0-.61,0Z"/><path class="cls-5" d="M64.55,69.28a3.78,3.78,0,0,0,2.09,1.62c.7.12,1.2-.82.5-1.21A17,17,0,0,1,65,68.82c-.26-.2-.65.19-.46.46Z"/><path class="cls-5" d="M69.22,64.69a1.16,1.16,0,0,1,.12.51,1.1,1.1,0,0,0,.14.64.5.5,0,0,0,.92-.25,1.08,1.08,0,0,0-.31-.7l-.42-.46c-.17-.2-.55,0-.45.26Z"/><path class="cls-5" d="M52.06,62.45a4.6,4.6,0,0,0-1,2.51c-.1.83-.19,2.16.78,2.48a.45.45,0,0,0,.43-.11c.48-.59.22-1.39.17-2.09a20,20,0,0,1,.13-2.57.31.31,0,0,0-.53-.22Z"/><path class="cls-5" d="M52.57,70.6c-1.19.93-.22,2.42.78,3.06,1.28.82,3.19,1.71,4.74,1.41.46-.08.89-.56.46-1a3.79,3.79,0,0,0-1.78-.73c-1.17-.29-4.05-.9-3.83-2.55a.22.22,0,0,0-.37-.21Z"/><path class="cls-5" d="M61.88,74.85c.72.52,1.48,1,2.24,1.47a4.8,4.8,0,0,1,1,.89,4.2,4.2,0,0,1,.57,1.42.66.66,0,0,0,1.27,0,3.05,3.05,0,0,0-1.48-3.12A8.09,8.09,0,0,0,62,74.4c-.27,0-.29.33-.12.45Z"/><path class="cls-5" d="M66,73.63a9,9,0,0,1,.82.81c.32.32.43.8.87,1a.54.54,0,0,0,.76-.31c.25-.65-.34-1.22-.81-1.57a1.89,1.89,0,0,0-1.52-.37.26.26,0,0,0-.12.44Z"/><path class="cls-5" d="M69.06,77.78a2,2,0,0,0,.29,1.53A.5.5,0,0,0,70.2,79c0-.44-.26-.85-.32-1.29a.41.41,0,0,0-.4-.3.43.43,0,0,0-.42.41Z"/><path class="cls-1" d="M79.8,131.49l0,0,.47-.12-.18,0,.27.07h0a.56.56,0,0,0-.82.63.55.55,0,0,0,.39.39.58.58,0,0,0,.63-.26.54.54,0,0,0,0-.64.43.43,0,0,0-.66-.08Z"/><path class="cls-1" d="M87.79,135.43l0,0-.38.16a.83.83,0,0,0,.22,0h-.29a.65.65,0,0,0,.81-.62.65.65,0,0,0-1-.55,1,1,0,0,0-.27.27.62.62,0,0,0,.09.74l0,.05a.54.54,0,0,0,.72,0Z"/><path class="cls-1" d="M88.34,142.82a.53.53,0,0,0,.53.41.39.39,0,0,0,.2-.71h0l.11.18v.11a.45.45,0,1,0-.87,0Z"/><path class="cls-1" d="M93,135a.8.8,0,0,0,.22.23.51.51,0,1,0,.13-.93h.19c-.38-.08-.81.34-.54.7Z"/><path class="cls-1" d="M96,141.2a.5.5,0,0,0,.12.44.48.48,0,0,0,.61.05.38.38,0,0,0-.09-.68.35.35,0,0,0-.2,0c.08,0-.07,0-.1,0l.17,0,.05,0a.3.3,0,0,0-.56.15Z"/><path class="cls-1" d="M96.24,148.58h.07a.5.5,0,0,0,0-1l-.07,0a.52.52,0,1,0,0,1Z"/><path class="cls-1" d="M103.58,146.12a.43.43,0,0,0,0-.86.43.43,0,0,0,0,.86Z"/><path class="cls-1" d="M107,151.73l0,.07a.37.37,0,1,0,.72,0l0-.07a.35.35,0,0,0-.67,0Z"/><path class="cls-1" d="M101.64,152.65h0l-.18-.1.16.12a.35.35,0,0,0,.49-.13A.44.44,0,0,0,102,152a.53.53,0,0,0-.5-.11.36.36,0,0,0-.28.36.39.39,0,0,0,.38.38Z"/><path class="cls-1" d="M103.84,158.55a.71.71,0,0,0,.11.45.45.45,0,0,0,.76,0,.71.71,0,0,0,.11-.45.49.49,0,0,0-1,0Z"/><path class="cls-1" d="M108.22,163.84h.07c.46.06.46-.76,0-.71h-.07a.35.35,0,0,0,0,.7Z"/><path class="cls-1" d="M103.87,168.29l0,0a.4.4,0,0,0,.56,0l0,0a.44.44,0,1,0-.62,0Z"/><path class="cls-1" d="M108.14,172.39s0,0,0,.06a.41.41,0,0,0,.71,0l0-.06a.44.44,0,1,0-.76,0Z"/><path class="cls-1" d="M105.38,176.21h.07a.46.46,0,0,0,0-.91h-.07a.46.46,0,0,0,0,.91Z"/><path class="cls-1" d="M108.85,181.73l.06,0a.48.48,0,1,0,0-.92l-.06,0a.46.46,0,0,0,0,.88Z"/><path class="cls-1" d="M110.36,176.05a.48.48,0,0,0,.69.47c.23-.1.21-.41.07-.58a.75.75,0,0,0-.13-.11l.14.15,0,.07c0-.51-.81-.51-.8,0Z"/><path class="cls-1" d="M112,184.78a1.77,1.77,0,0,0-.05.32.42.42,0,0,0,.84,0,1.8,1.8,0,0,0-.06-.32.38.38,0,0,0-.73,0Z"/><path class="cls-1" d="M82,144.11c-.2-.06-.37-.1-.54.06a.37.37,0,0,0,.07.56.36.36,0,0,0,.53-.31v0a2.44,2.44,0,0,0-.1.24.36.36,0,0,1,.09-.08.25.25,0,0,0-.06-.45Z"/><path class="cls-1" d="M85.48,151.31a.39.39,0,0,0,0-.77.39.39,0,0,0,0,.77Z"/><path class="cls-1" d="M90.42,154.41a.35.35,0,0,0,0-.69.35.35,0,0,0,0,.69Z"/><path class="cls-1" d="M88.71,158.91l.1.1a.3.3,0,0,0,.42-.42l-.09-.1c-.27-.28-.71.16-.43.42Z"/><path class="cls-1" d="M81.74,160.24a.34.34,0,0,0,0-.68.34.34,0,0,0,0,.68Z"/><path class="cls-1" d="M83,165.19a.39.39,0,0,0,.29-.56.27.27,0,0,0-.24-.15.28.28,0,0,0-.13,0c.1-.06.24,0,.08,0a.36.36,0,1,0,0,.7Z"/><path class="cls-1" d="M77.15,168.76l0,0a.35.35,0,0,0,0-.59l0,0c-.24-.18-.58.07-.58.34s.34.51.58.33Z"/><path class="cls-1" d="M78.75,174.15a.34.34,0,0,0,0-.68.34.34,0,0,0,0,.68Z"/><path class="cls-1" d="M75.09,177.7v.07c0,.49.79.49.75,0v-.07a.37.37,0,0,0-.74,0Z"/><path class="cls-1" d="M77.11,182.78a.3.3,0,0,0,0-.59.3.3,0,0,0,0,.59Z"/><path class="cls-1" d="M75,186.59a.49.49,0,0,0,.31.69.34.34,0,0,0,.26-.61c-.12-.08,0,0,0,.09a.32.32,0,0,0-.61-.17Z"/><path class="cls-1" d="M140.65,100.44q.09-.07,0,0a.28.28,0,0,0,.15-.08l.27-.17a4.79,4.79,0,0,1,.71-.37,1.55,1.55,0,0,0,.69-.52.44.44,0,0,0-.26-.64c-.84-.23-2.48,1-1.78,1.84.06.08.17,0,.22,0Z"/><path class="cls-1" d="M144,97.31a8.83,8.83,0,0,0,1-.67c.3-.18.76-.34.92-.67a.19.19,0,0,0-.06-.25c-.37-.27-.94,0-1.26.23a1.73,1.73,0,0,0-.87,1.13.24.24,0,0,0,.3.23Z"/><path class="cls-1" d="M145.44,99.9c.05,0,.1,0,0,0a.7.7,0,0,0,.19-.06,3.38,3.38,0,0,0,.47-.3c.24-.15.86-.45.58-.82a.52.52,0,0,0-.55-.07,1.43,1.43,0,0,0-.52.36,1.61,1.61,0,0,0-.35.43.56.56,0,0,0-.06.21c0-.05,0-.06,0,0a.42.42,0,0,0-.06.08c-.14.17.14.35.28.22Z"/><path class="cls-1" d="M141.88,103.81a8.3,8.3,0,0,1,.64-.54c.25-.19.55-.29.81-.47a.38.38,0,0,0-.1-.69c-.9-.2-1.51.74-1.71,1.49a.22.22,0,0,0,.36.21Z"/><path class="cls-1" d="M139.39,103.2a1.55,1.55,0,0,0-.87,1c-.12.41-.34,1-.06,1.42a.32.32,0,0,0,.36.14c.46-.13.52-.56.56-1a2.93,2.93,0,0,1,.23-1.29c.13-.16,0-.41-.22-.29Z"/><path class="cls-1" d="M136.15,107.49c-.07.27-.1.53-.16.79a7.55,7.55,0,0,0-.16.8c0,.37.57.55.73.2a2.36,2.36,0,0,0,0-1.79c-.07-.16-.33-.21-.38,0Z"/><path class="cls-1" d="M139.87,109.93a1.91,1.91,0,0,1,.47-.74,9.75,9.75,0,0,0,.84-.59.38.38,0,0,0-.37-.63c-.75.13-1.68,1.09-1.44,1.89a.27.27,0,0,0,.5.07Z"/><path class="cls-1" d="M144.13,106.32a7.79,7.79,0,0,1,.76-.39c.27-.11.54-.16.8-.29s.14-.65-.18-.69a2.19,2.19,0,0,0-1.81,1c-.2.26.17.55.43.42Z"/><path class="cls-1" d="M144.33,110.61c.06,0,.21,0,.3-.08a2.89,2.89,0,0,0,.43-.22,2.33,2.33,0,0,0,.66-.63c.27-.4-.31-.82-.64-.5-.17.16-.32.35-.49.52l-.28.28c-.07.07-.14.19-.2.25a.23.23,0,0,0,.22.38Z"/><path class="cls-1" d="M139.94,114a4.2,4.2,0,0,0,.76-.47c.09-.08.19-.14.28-.21a1,1,0,0,0,.37-.48c.12-.29-.18-.56-.44-.58a1.37,1.37,0,0,0-1,.51,1.65,1.65,0,0,0-.48.86.32.32,0,0,0,.47.37Z"/><path class="cls-1" d="M136.88,114.57a1.79,1.79,0,0,0,.32-1.26.27.27,0,0,0-.33-.19c-.52.21-.58.91-.5,1.38a.28.28,0,0,0,.51.07Z"/><path class="cls-1" d="M141.89,116.29c-.1.58,0,1.48.66,1.69a.28.28,0,0,0,.34-.19,1.16,1.16,0,0,0-.14-.81c-.12-.24-.21-.51-.32-.76a.3.3,0,0,0-.54.07Z"/><path class="cls-1" d="M146.1,114.91a5.82,5.82,0,0,1,.53-.46,3,3,0,0,0,.58-.55c.21-.29-.13-.58-.41-.54a1.7,1.7,0,0,0-1.14,1.3.26.26,0,0,0,.44.25Z"/><path class="cls-1" d="M147.66,119.32a3.22,3.22,0,0,0,.46-.73,2.72,2.72,0,0,0,.45-.94.49.49,0,0,0-.81-.47,2.25,2.25,0,0,0-.56.91,1.54,1.54,0,0,0-.14,1.07.37.37,0,0,0,.6.16Z"/><path class="cls-1" d="M147.69,122.22a2.35,2.35,0,0,0,.59.46.81.81,0,0,0,1-.05.4.4,0,0,0,0-.55c-.32-.36-.91-.15-1.33-.25a.24.24,0,0,0-.23.39Z"/><path class="cls-1" d="M152,120.19c.45-.53.94-1,1.35-1.6.21-.3-.21-.74-.51-.51a4.26,4.26,0,0,0-1.39,1.8c-.12.3.34.55.55.31Z"/><path class="cls-1" d="M151.33,115.58a5.15,5.15,0,0,1,.67-.81,1.78,1.78,0,0,0,.53-.89c0-.13-.09-.29-.24-.23a1.18,1.18,0,0,0-.45.22,4.63,4.63,0,0,0-.4.48,2.84,2.84,0,0,0-.5,1.07.21.21,0,0,0,.39.16Z"/><path class="cls-1" d="M149.8,111.37a4.41,4.41,0,0,0,1.73-.6.4.4,0,0,0-.3-.72,3.79,3.79,0,0,0-1.55.89c-.15.12-.14.46.12.43Z"/><path class="cls-1" d="M149.29,107.34c.65.23,1.62.38,2.09-.26.11-.14,0-.34-.16-.39a3.44,3.44,0,0,0-1.93.17.25.25,0,0,0,0,.48Z"/><path class="cls-1" d="M149.13,103.59a10.54,10.54,0,0,1,.9-.87c.26-.22.67-.89.24-1.14s-.89.26-1.12.52a2,2,0,0,0-.57,1.26.33.33,0,0,0,.55.23Z"/><path class="cls-1" d="M149.8,99.13a5.17,5.17,0,0,0,1.09-.78,2.41,2.41,0,0,0,.77-.91.22.22,0,0,0-.21-.28,1.5,1.5,0,0,0-1.12.47,4.21,4.21,0,0,0-.93,1.09.3.3,0,0,0,.4.41Z"/><path class="cls-1" d="M149.51,94.93c.17-.24.51-.38.73-.57a1.3,1.3,0,0,0,.46-.87.29.29,0,0,0-.22-.29,1,1,0,0,0-.95.5,1.52,1.52,0,0,0-.23.5,5.41,5.41,0,0,1-.12.58c-.08.21.22.3.33.15Z"/><path class="cls-1" d="M146.65,92.82a7.5,7.5,0,0,1,.62-.86c.24-.27.51-.57.43-.95a.29.29,0,0,0-.29-.22c-.44,0-.71.48-.9.83a1.44,1.44,0,0,0-.16,1.16.16.16,0,0,0,.3,0Z"/><path class="cls-1" d="M142.22,94.8c.36-.55,1.38-1.24,1.15-2a.32.32,0,0,0-.38-.22c-.41.08-.69.55-.85.9a3.13,3.13,0,0,0-.34,1.19c0,.24.3.29.42.12Z"/><path class="cls-1" d="M145.1,89.38a5.59,5.59,0,0,0,.68-.86,1.38,1.38,0,0,0,.32-1.07.2.2,0,0,0-.24-.13c-.68.15-.94,1.4-1,2a.12.12,0,0,0,.21.08Z"/><path class="cls-1" d="M147.14,85.14a2.89,2.89,0,0,0,.49-.74,3.21,3.21,0,0,0,.43-.87.43.43,0,0,0-.72-.42c-.46.38-1,1.39-.6,2a.26.26,0,0,0,.4,0Z"/><path class="cls-1" d="M149.83,86.26a3.58,3.58,0,0,1,.4-.56c.17-.2.44-.43.36-.73,0,.08,0,.16,0,.24a.57.57,0,0,0,.08-.25.23.23,0,0,0-.17-.22.41.41,0,0,0-.19,0c.1,0,.08,0,0,0a.42.42,0,0,0-.19.06,1.12,1.12,0,0,0-.39.39,1.71,1.71,0,0,0-.21,1c0,.19.29.3.39.1Z"/><path class="cls-1" d="M151.51,90.41l.05,0-.24.1c.3,0,.45-.27.58-.52s.26-.47.38-.72a.33.33,0,0,0-.46-.45,1.53,1.53,0,0,0-.69.64,1.26,1.26,0,0,0-.16.46.71.71,0,0,0,0,.29l.05.1c.08.1.08.11,0,0a.3.3,0,0,0,.5.13Z"/><path class="cls-1" d="M149.38,89.09a.47.47,0,0,0,0-.4l0,.22a.5.5,0,0,0,0-.21.18.18,0,0,0-.14-.18.42.42,0,0,0-.16,0l-.11,0c-.07,0-.07.06,0,0a.4.4,0,0,0-.26.44c0,.36.57.48.66.09Z"/><path class="cls-1" d="M155.33,88.62c-.09.68-.22,1.75.4,2.23a.3.3,0,0,0,.49-.13,3.65,3.65,0,0,0-.28-2.1c-.08-.28-.56-.33-.61,0Z"/><path class="cls-1" d="M154.1,93.45a1,1,0,0,0-.24.38,2.53,2.53,0,0,0-.22.51c-.07.34-.16.87.27,1s.82-.54.86-.92a1.06,1.06,0,0,0-.35-1,.25.25,0,0,0-.32,0Z"/><path class="cls-1" d="M154.81,99.85a9.17,9.17,0,0,1,.83-.82c.27-.26.63-.44.69-.84a.25.25,0,0,0-.18-.31c-.43-.16-.79.16-1.07.45a4.61,4.61,0,0,0-.77,1.13c-.16.31.25.67.5.39Z"/><path class="cls-1" d="M154,103.87c.26-.16.54-.28.81-.45s.62-.43.68-.73a.3.3,0,0,0-.2-.35,1.12,1.12,0,0,0-.91.37,6.15,6.15,0,0,0-.68.77.25.25,0,0,0,.3.39Z"/><path class="cls-1" d="M155,107.47a1.39,1.39,0,0,0,1.13-.48.42.42,0,0,0-.41-.7,4.71,4.71,0,0,0-.91.49.37.37,0,0,0,.19.69Z"/><path class="cls-1" d="M155.09,112.39c.06-.08.16-.11.23-.19l.26-.28a1.46,1.46,0,0,0,.42-.62.44.44,0,0,0-.53-.53,1.09,1.09,0,0,0-.63.58,2.71,2.71,0,0,0-.17.39,1.51,1.51,0,0,0-.06.37c-.06.26.29.52.48.28Z"/><path class="cls-1" d="M156.9,117.54c.15-.29.3-.7,0-1a.16.16,0,0,0-.24,0c-.13.22-.1.48-.23.7a.25.25,0,0,0,.43.25Z"/><path class="cls-1" d="M155.49,121.34l.39-.62c.12-.18.27-.47.18-.68a.29.29,0,0,0-.28-.21c-.28,0-.48.26-.62.47a2.35,2.35,0,0,0-.31.77.35.35,0,0,0,.64.27Z"/><path class="cls-1" d="M159.16,102.91a1.13,1.13,0,0,0,.42-.22,2.8,2.8,0,0,0,.39-.45c.2-.28.38-.76.07-1s-.69.14-.83.41-.14.29-.22.43a2.12,2.12,0,0,1-.12.2.89.89,0,0,0-.09.29.31.31,0,0,0,.38.38Z"/><path class="cls-1" d="M159.28,97.35c.4-.55,1-1.37.65-2.07a.3.3,0,0,0-.47-.06,2.56,2.56,0,0,0-.62,2,.24.24,0,0,0,.44.12Z"/><path class="cls-1" d="M159.76,88.44a1.65,1.65,0,0,0,.78-.86.3.3,0,0,0-.13-.32.75.75,0,0,0-.77.09.88.88,0,0,0-.42.78.36.36,0,0,0,.54.31Z"/><path class="cls-1" d="M158.82,92l.14,0c-.06,0-.06,0,0,0a.56.56,0,0,0,.36,0,.88.88,0,0,0,.63-.4.5.5,0,0,0-.42-.74.85.85,0,0,0-.7.39,1,1,0,0,0-.16.28c0,.1,0,.2-.06.31a.17.17,0,0,0,.21.21Z"/><path class="cls-1" d="M162.32,94.08c.39-.5,1.05-1.51.33-2a.29.29,0,0,0-.27,0,1,1,0,0,0-.44.78c-.06.37-.13.72-.17,1.1s.4.35.55.14Z"/><path class="cls-1" d="M163.69,87.67c.14-.29.4-.44.56-.7a.35.35,0,0,0-.39-.51c-.44.07-.69.56-.76,1a.33.33,0,0,0,.15.37.32.32,0,0,0,.44-.12Z"/><path class="cls-1" d="M165,83.2c.12.14.27.26.4.39s.25.37.45.46a.41.41,0,0,0,.59-.24c.22-.69-.8-1.36-1.39-1a.27.27,0,0,0-.05.41Z"/><path class="cls-1" d="M166.1,79.94c-.14.2,0,.41.08.6a.59.59,0,0,0,.8.24.41.41,0,0,0,.18-.43.65.65,0,0,0-.54-.46c-.18,0-.39-.15-.52,0Z"/><path class="cls-1" d="M168.82,82.64a4.43,4.43,0,0,0,.44,1.11,3,3,0,0,0,.31.45c.13.17.2.36.4.46a.35.35,0,0,0,.47-.12c.26-.36,0-.91-.18-1.24a3.4,3.4,0,0,0-1-.93.29.29,0,0,0-.48.27Z"/><path class="cls-1" d="M168,87V87l0-.17c-.18.25,0,.68.18.9s.59.63,1,.51a.34.34,0,0,0,.25-.32c0-.32-.29-.63-.51-.81s-.46-.41-.74-.37l.2,0,0,0A.18.18,0,0,0,168,87Z"/><path class="cls-1" d="M166.5,90.25a1.32,1.32,0,0,0,.1.39c.08.13.16.26.25.38a1,1,0,0,0,.84.42.38.38,0,0,0,.32-.56,1.38,1.38,0,0,0-.58-.49,3.54,3.54,0,0,1-.58-.34.21.21,0,0,0-.35.2Z"/><path class="cls-1" d="M171.81,86.43c.24.28.44.6.66.89a2.77,2.77,0,0,0,.71.81.21.21,0,0,0,.31-.18,1.52,1.52,0,0,0-.47-1.06,2.89,2.89,0,0,0-1-.74.18.18,0,0,0-.22.28Z"/><path class="cls-1" d="M171.77,90.44c.09.17.14.34.21.5s.07.2.12.29a2.07,2.07,0,0,0,.17.24.29.29,0,0,0,.53-.15,1,1,0,0,0-.21-.64,2.17,2.17,0,0,0-.55-.5c-.17-.12-.36.11-.27.26Z"/><path class="cls-1" d="M169.75,92.74a2,2,0,0,0,.86,1.77.43.43,0,0,0,.62-.47,2.4,2.4,0,0,0-.47-.82,4.07,4.07,0,0,0-.59-.65.25.25,0,0,0-.42.17Z"/><path class="cls-1" d="M174.1,92.73a4.46,4.46,0,0,1,.34,1.36.37.37,0,0,0,.68.09,1.2,1.2,0,0,0,.06-1.09,1.31,1.31,0,0,0-.71-.73c-.23-.1-.53.12-.37.37Z"/><path class="cls-1" d="M174.92,90.51c.16.15.2.44.39.55a.13.13,0,0,0,.16,0c.28-.24,0-.68-.23-.86s-.54.13-.32.33Z"/><path class="cls-1" d="M176.77,95.73a9,9,0,0,1-.2,1,2.67,2.67,0,0,0-.12,1,.27.27,0,0,0,.35.2,1.12,1.12,0,0,0,.64-1,3,3,0,0,0-.17-1.32c-.07-.28-.48-.2-.5.07Z"/><path class="cls-1" d="M171.78,96.49a1.37,1.37,0,0,1,.48.7c.08.29,0,.66.2.92a.27.27,0,0,0,.41,0c.38-.3.29-1,.11-1.36a1.13,1.13,0,0,0-1-.7.23.23,0,0,0-.16.39Z"/><path class="cls-1" d="M174.36,99.77c-.06.51-.25,1.22.11,1.66a.24.24,0,0,0,.32,0c.36-.44.17-1.15.11-1.66a.27.27,0,0,0-.54,0Z"/><path class="cls-1" d="M171.8,101c-.09.35-.24.7-.32,1a1.36,1.36,0,0,0,0,.93.21.21,0,0,0,.25.1c.74-.21.75-1.4.68-2a.3.3,0,0,0-.58-.08Z"/><path class="cls-1" d="M173.52,105.6a1.18,1.18,0,0,0,.84-1,.37.37,0,0,0-.54-.31,2.54,2.54,0,0,0-.65.84c-.13.21.09.56.35.45Z"/><path class="cls-1" d="M177.11,101.2a.7.7,0,0,0,.21-.47.31.31,0,0,0-.15-.27.36.36,0,0,0-.23,0,.32.32,0,0,0-.18.14s0,.1,0,.11c-.38.3.06.84.4.52Z"/><path class="cls-1" d="M170.48,105.15c-.2.34-.4.68-.58,1a1.53,1.53,0,0,0-.3,1.14.25.25,0,0,0,.31.18,1.63,1.63,0,0,0,.77-.86,2.74,2.74,0,0,0,.36-1.34.3.3,0,0,0-.56-.15Z"/><path class="cls-1" d="M168.35,109a3.29,3.29,0,0,0-.28,1c0,.31-.08.67.19.86a.17.17,0,0,0,.21,0c.19-.2.12-.46.11-.72a4.23,4.23,0,0,1,.09-1c0-.19-.24-.33-.32-.14Z"/><path class="cls-1" d="M171.71,108c0,.62-.36,1.21-.21,1.83,0,.09.17.15.24.06a2.72,2.72,0,0,0,.43-1.89.23.23,0,0,0-.46,0Z"/><path class="cls-1" d="M174.52,108a3.87,3.87,0,0,0,.5-.72.3.3,0,0,0-.44-.34,1.36,1.36,0,0,0-.46.89.22.22,0,0,0,.4.17Z"/><path class="cls-1" d="M176.43,103.81h0s0,0,0,0Z"/><path class="cls-1" d="M176.24,104.33a1.08,1.08,0,0,0-.05-.79.24.24,0,0,0-.42,0,1.08,1.08,0,0,0-.05.79.27.27,0,0,0,.52,0Z"/><path class="cls-1" d="M170.19,113.53a3.18,3.18,0,0,1,.09-.69c.06-.21.16-.4.21-.6a.39.39,0,0,0-.75-.21,3.69,3.69,0,0,0,.06,1.55c0,.23.39.17.39,0Z"/><path class="cls-1" d="M167.23,113a9.84,9.84,0,0,0-.36,1,1.18,1.18,0,0,0,0,1.05.33.33,0,0,0,.37.15c.8-.27.77-1.63.43-2.24a.25.25,0,0,0-.44,0Z"/><path class="cls-1" d="M167.29,117.27a1.72,1.72,0,0,0,.43,1.27c.24.23.76.09.71-.3a2.14,2.14,0,0,0-.61-1.19.31.31,0,0,0-.53.22Z"/><path class="cls-1" d="M169.77,116.21c.21.34,0,.8.34,1.09a.25.25,0,0,0,.31,0,.63.63,0,0,0,.24-.75,1.87,1.87,0,0,0-.48-.7c-.19-.23-.57.07-.41.32Z"/><path class="cls-1" d="M172.3,113.2c.14-.3.33-.58.5-.87s.36-.65.24-1a.22.22,0,0,0-.26-.15c-.32.11-.47.45-.62.72a2.76,2.76,0,0,0-.31,1.13.24.24,0,0,0,.45.12Z"/><path class="cls-1" d="M171.84,117.12v.08a.25.25,0,0,0,.5,0v-.08a.25.25,0,0,0-.5,0Z"/><path class="cls-1" d="M152.3,87.19l0,0a.47.47,0,0,0,0-.8l0,0a.5.5,0,1,0,0,.86Z"/><path class="cls-1" d="M147.88,79.05c-.13.35-.32,2.61.5,2.3.43-.16.5-.72.47-1.12a1.72,1.72,0,0,0-.55-1.35.29.29,0,0,0-.42.17Z"/><path class="cls-1" d="M145.55,79.31a2.65,2.65,0,0,0,.13,1.93.5.5,0,1,0,.92-.39c-.11-.26-.24-.52-.34-.79a4,4,0,0,0-.29-.75.24.24,0,0,0-.42,0Z"/><path class="cls-1" d="M146.42,76.14a1.17,1.17,0,0,0,.08,1.13c.15.2.56.24.61-.08a1.6,1.6,0,0,0-.2-1,.29.29,0,0,0-.49,0Z"/><path class="cls-1" d="M148.6,73.4a1.57,1.57,0,0,0,0,1.46.3.3,0,0,0,.55-.15c0-.44-.22-.83-.25-1.27a.16.16,0,0,0-.32,0Z"/><path class="cls-1" d="M150,70.39a1.4,1.4,0,0,0,.15,1,1.7,1.7,0,0,0,.33.38.76.76,0,0,0,.59.2.32.32,0,0,0,.27-.47,1.14,1.14,0,0,0-.21-.28,3.83,3.83,0,0,1-.29-.28,2.5,2.5,0,0,1-.39-.57.25.25,0,0,0-.45.06Z"/><path class="cls-1" d="M151.9,68.35l.55.65c.22.25.35.61.72.63l-.18,0,.06,0a.32.32,0,0,0,.48-.28.13.13,0,0,0,0-.06c0,.06,0,.12,0,.18.18-.41-.16-.78-.46-1a1.78,1.78,0,0,0-1-.43c-.2,0-.25.23-.15.35Z"/><path class="cls-1" d="M149.14,65.46a1.4,1.4,0,0,0,0,.76,2.17,2.17,0,0,0,.29.9.41.41,0,0,0,.75-.2,1.89,1.89,0,0,0-.24-.92,1.36,1.36,0,0,0-.47-.68.23.23,0,0,0-.33.14Z"/><path class="cls-1" d="M151,65c0,.06,0,.06,0,0s0,.1,0,.15a1.39,1.39,0,0,0,.12.28.36.36,0,0,0,.66-.28c-.1-.3-.29-.39-.56-.5A.23.23,0,0,0,151,65Z"/><path class="cls-1" d="M147.6,61.11a2,2,0,0,0,1,2.14c.34.18.8-.19.56-.55a8.05,8.05,0,0,0-.63-.68,1.73,1.73,0,0,1-.44-.91.27.27,0,0,0-.51,0Z"/><path class="cls-1" d="M145.89,57.87a1,1,0,0,0-.3.89,1.18,1.18,0,0,0,.24.42.42.42,0,0,0,.44.1.21.21,0,0,0,.15-.2.37.37,0,0,0,0-.25,2,2,0,0,1-.11-.2.65.65,0,0,1,0-.53c.09-.22-.24-.4-.4-.23Z"/><path class="cls-1" d="M147.35,58.43a1.35,1.35,0,0,0-.13.65c0,.16.15.35.34.35s.29-.19.34-.35a1.26,1.26,0,0,0-.14-.65.22.22,0,0,0-.41,0Z"/><path class="cls-1" d="M142.1,50.2a3.08,3.08,0,0,0-.29,1.68.38.38,0,0,0,.73,0,5.17,5.17,0,0,0,0-1.62.23.23,0,0,0-.46-.06Z"/><path class="cls-1" d="M143.72,52.73c-.19.46-.41,1.29.14,1.6a.23.23,0,0,0,.29-.08,1.11,1.11,0,0,0,.11-.65c0-.27,0-.53,0-.8s-.41-.31-.51-.07Z"/><path class="cls-1" d="M144.72,56.42a.45.45,0,0,0,.2,0c.14,0-.22,0,0,0a.25.25,0,0,0,.3-.18.38.38,0,0,0-.13-.41.44.44,0,0,0-.56,0,.33.33,0,0,0,.17.61Z"/><path class="cls-1" d="M145.89,54.05a6,6,0,0,0,.15.71,1,1,0,0,0,.34.66.26.26,0,0,0,.32,0c.47-.47-.08-1.38-.59-1.56-.15,0-.24.1-.22.23Z"/><path class="cls-1" d="M145.71,50.81c.16-.17.15-.5.2-.71s.31-.76.2-1.09a.21.21,0,0,0-.25-.14c-.44.07-.51.7-.52,1.06s-.05.74.2.9a.15.15,0,0,0,.17,0Z"/><path class="cls-1" d="M143.19,49.21a3.74,3.74,0,0,1,.43-1.24c.06-.14.25-.7-.1-.69s-.47.5-.55.77a2.29,2.29,0,0,0,0,1.19.12.12,0,0,0,.24,0Z"/><path class="cls-1" d="M144.39,45.74s.07-.21.08-.26a1.41,1.41,0,0,1,.06-.22c.11-.19.28-.32.34-.55a.37.37,0,0,0-.27-.46.82.82,0,0,0-.91.78.93.93,0,0,0,.12.54.52.52,0,0,0,.18.21c.06,0,.16,0,.18.09a.13.13,0,0,0,.22-.13Z"/><path class="cls-1" d="M146.3,46.14c.08-.33.33-.55.41-.76a.21.21,0,0,0-.14-.25.58.58,0,0,0-.65.28.85.85,0,0,0-.09.73.25.25,0,0,0,.47,0Z"/><path class="cls-1" d="M147,43.47c.19-.27.54-.47.64-.79a.2.2,0,0,0-.24-.24c-.39.06-.62.56-.72.89a.18.18,0,0,0,.32.14Z"/><path class="cls-1" d="M149.41,42c.16-.28.56-.76.37-1.09a.16.16,0,0,0-.17-.07c-.35.06-.48.65-.61.92a.24.24,0,0,0,.41.24Z"/><path class="cls-1" d="M148.13,41.51a.26.26,0,0,0,0-.3.15.15,0,0,0-.25,0,.27.27,0,0,0,0,.3.14.14,0,0,0,.25,0Z"/><path class="cls-1" d="M150,40c.23-.18.53-.64.43-1a.16.16,0,0,0-.15-.11c-.39,0-.67.56-.68.9s.25.28.4.16Z"/></g></g></svg>