<svg xmlns="http://www.w3.org/2000/svg" xmlns:xlink="http://www.w3.org/1999/xlink" viewBox="0 0 225 225"><defs><style>.cls-1{fill:#c6e7ee;}.cls-2{fill:none;}.cls-3{fill:#ba3208;}.cls-4{clip-path:url(#clip-path);}.cls-5{fill:#86d1db;}.cls-6{fill:#e6c100;}.cls-7{fill:#f25a29;}.cls-8{fill:#1b2c3e;}.cls-9{fill:#203f5b;}.cls-10{fill:#d6380d;}.cls-11{fill:#fe8c7f;}.cls-12{fill:#fff;}.cls-13{fill:#fff6cf;}.cls-14{fill:#ff7166;}.cls-15{fill:#d3aa00;}.cls-16{fill:#c1a11a;}.cls-17{fill:#ba9911;}.cls-18{clip-path:url(#clip-path-2);}</style><clipPath id="clip-path"><path class="cls-1" d="M143.34,114.47q-.57-28.73-2.73-57.39c-.21-2.8-.38-9.08-1.08-11.8a6.09,6.09,0,0,0-1.11-2.47c-1.22-1.43-3.34-1.59-5.22-1.66-24.5-.81-80.72.79-84.29,1-1.48.1-4.59,1-5.32,2.34-1.37,2.43-.46,6.08-.15,11.55.17,3.14,1.71,14.83,1.78,18.55q.66,33.9,1.31,67.81c.15,7.76,6.71,13.39,14.4,14.44,4.78.65,9.59-.71,14.23-2.05l41.63-12a16.54,16.54,0,0,0,4.69-1.89,16.58,16.58,0,0,0,2.58-2.3l7-7.17c4-4.12,8.13-8.34,10.7-13.5C142.38,116.65,143.37,115.88,143.34,114.47Z"/></clipPath><clipPath id="clip-path-2"><path class="cls-2" d="M57.78,149.84a32.74,32.74,0,0,1-3.93-3.11l-10-8.76c-1.58-1.38-3.11-4.18-4.44-5.8-2.73-3.32-3-7-7.73-9a3.16,3.16,0,0,0-3.07.79,12.46,12.46,0,0,0-2.35,2.86,37.42,37.42,0,0,0-3.57,7.76,20.07,20.07,0,0,0-.33,9.38c.69,4.16,1.42,8.1,3.67,11.67A71,71,0,0,0,34,165.39c2.49,2.74,5,5.51,7.48,8.21s7.49,6.52,11.19,7c2.1.27,1.54-3.1,2.41-5C58.82,167.22,60.76,158.49,57.78,149.84Z"/></clipPath></defs><title>introvert</title><g id="Layer_2" data-name="Layer 2"><g id="Layer_1-2" data-name="Layer 1"><rect class="cls-3" width="225" height="225"/><path class="cls-1" d="M143.34,114.47q-.57-28.73-2.73-57.39c-.21-2.8-.38-9.08-1.08-11.8a6.09,6.09,0,0,0-1.11-2.47c-1.22-1.43-3.34-1.59-5.22-1.66-24.5-.81-80.72.79-84.29,1-1.48.1-4.59,1-5.32,2.34-1.37,2.43-.46,6.08-.15,11.55.17,3.14,1.71,14.83,1.78,18.55q.66,33.9,1.31,67.81c.15,7.76,6.71,13.39,14.4,14.44,4.78.65,9.59-.71,14.23-2.05l41.63-12a16.54,16.54,0,0,0,4.69-1.89,16.58,16.58,0,0,0,2.58-2.3l7-7.17c4-4.12,8.13-8.34,10.7-13.5C142.38,116.65,143.37,115.88,143.34,114.47Z"/><g class="cls-4"><path class="cls-5" d="M53.54,41.73a14,14,0,0,0-1.71,10.56,10.6,10.6,0,0,0,1.81,4.3A8.17,8.17,0,0,0,62,59.38a9.17,9.17,0,0,0,6.33-6.26c.26,3.51,4.68,6.2,8.11,7a14.72,14.72,0,0,0,9.73-1.21A13.51,13.51,0,0,0,92.1,53c.33.73.27,1.14.6,1.87a11.19,11.19,0,0,0,4.79,4.67,13.12,13.12,0,0,0,6.92.08c3.42-.84,4.7-2.89,5.92-7.62-.07,1.31,1.08,2,2.08,2.85a8.59,8.59,0,0,0,3.51,1.71,13.31,13.31,0,0,0,9.92-.88,9,9,0,0,0,4.72-8.41c2.67,1.91,5.53,2.71,8.57,1.5s5-5.17,3.34-8c-1.48-2.55-4.85-3.14-7.79-3.39-24.13-2.13-48.42-.16-72.49,2.52a54.81,54.81,0,0,0-8.06,1.31C53.6,41.38,53,41.64,53.54,41.73Z"/></g><path class="cls-6" d="M176,74c-.2-2,.41-4.2-.38-6.09A20.12,20.12,0,0,0,174,65.26a7.55,7.55,0,0,1-1-3.2,3.31,3.31,0,0,1,.39-2.1,1.57,1.57,0,0,1,1.88-.67,2.26,2.26,0,0,1,.65.51,30,30,0,0,1,2.87,3.4c.51.69,1,1.4,1.45,2.12L183.24,70c.68,1,2.21,2.09,2.23,3.33.05,2.84-3.95,5.16-4.76,8.26q-3.45.24-6.91.2a38.76,38.76,0,0,0,2.35-9.11Z"/><path class="cls-6" d="M202.94,75.6a2.18,2.18,0,0,1-.05,1.38c-1.19,3.78-6.11,5.35-7.43,9.08-.64,1.79-.39,4-1.62,5.39-1.45,1.72-4.21,1.54-6,2.89L186.11,89a3.38,3.38,0,0,1-.23-1.56,3.23,3.23,0,0,1,1.24-1.71L194.78,79a43.07,43.07,0,0,1,4.35-3.51,4.46,4.46,0,0,1,2-.86A1.77,1.77,0,0,1,202.94,75.6Z"/><path class="cls-7" d="M135.91,112.3c1.66-5.81,3.77-11,2.33-18.29-6.62,0-13.22.54-19.82,1-.45,0-.7-.75-1.09-.54-.76.41-1.26,2.16-1.36,3a15.92,15.92,0,0,0,.29,4.35c1.2,7.31,2.2,14.71,3.67,22,.46,2.32.93,4.63,1.4,7a3.62,3.62,0,0,0,.42,1.25,38.14,38.14,0,0,0,9.14-11.47C132.48,117.55,135,115.56,135.91,112.3Z"/><path class="cls-8" d="M116,142.34c-1.87-3.17-2.46-2.93-1.14-6.37s4.43-10.67,6.74-13.54q7.94-9.86,16.22-19.43A12.78,12.78,0,0,1,143,99.46c14.32-5.58,30.7-5.71,43.85-13.66a9.11,9.11,0,0,1,2.73,6,3.52,3.52,0,0,1-.17,1.71c-.23.53-1.26,1-2.63,1-12.23,0-21.17,8.5-32.69,12.63a12.75,12.75,0,0,0-3.76,1.83,12.44,12.44,0,0,0-2.7,3.4q-4.09,6.69-7.55,13.73c-4.06,8.27-7.86,17.38-15.64,22.29a1.81,1.81,0,0,1-.81.34,1.84,1.84,0,0,1-1.07-.34A16.5,16.5,0,0,1,116,142.34Z"/><path class="cls-9" d="M130.38,156.34a19.62,19.62,0,0,0,10-4.3,36.29,36.29,0,0,0,7.31-8.17,63.49,63.49,0,0,0,9.1-20.07c.52-2,1.94-3.15,3.83-4A37.22,37.22,0,0,0,177,103.62a24.7,24.7,0,0,0,2.08-4.85,33.62,33.62,0,0,0,1-7.69l.51-10a8.12,8.12,0,0,0-6-.82c-.19,0-.42.12-.46.31s-13.19,22.16-22.67,30.54a13.75,13.75,0,0,0-2.47,2.53,19.92,19.92,0,0,0-1.41,2.9,22.5,22.5,0,0,1-2.9,4.53,74.17,74.17,0,0,1-6.84,7.12L125.4,140a20,20,0,0,0-3.31,3.75,8.78,8.78,0,0,0-1,6.83,7.28,7.28,0,0,0,4.67,5C127.05,156,129.07,155.9,130.38,156.34Z"/><path class="cls-10" d="M56.77,162.05l3.41-1.41a16.94,16.94,0,0,0,3.6-1.83,8.77,8.77,0,0,0,3.59-6.53,4,4,0,0,0-.19-2.09c-.8-1.54-2-1.81-3.44-2.36-.09,0-3.64-.08-3.58-.15,4.89-5.81,18.45-4.9,25.85-6.55,5.38-1.2,10.49-3.51,15.94-4.41,3.78-.62,8.9-2,12.72-1.66,1.32.12,2.47,1.15,3.57,1.9,4.26,2.89,5.58,3.86,7.76,6,3.8,3.75,6.38,6.89,7.23,12.16-4.65,6.25-11.64,10.15-18.68,13.48l-9.1,4.3c-5.75,2.72-11.53,5.45-17.65,7.19S75.16,182.54,69,181.16a14.71,14.71,0,0,1-5.9-2.51,19.31,19.31,0,0,1-4.39-5.54,19.84,19.84,0,0,1-2.54-5.39A6.79,6.79,0,0,1,56.77,162.05Z"/><path class="cls-11" d="M108.78,146.24a36.68,36.68,0,0,1,2.8-5c1.29-1.92.82-4.36.5-6.65a3.82,3.82,0,0,0-1.27-2.63,3.12,3.12,0,0,0-3.94.73,9,9,0,0,0-1.77,4c-.3,1.14-.59,2.28-.89,3.43l-.66,2.52c-.29,1.11-.51,2.48.35,3.24a3.1,3.1,0,0,0,1.84.58C106.74,146.55,107.78,146.24,108.78,146.24Z"/><path class="cls-12" d="M101.21,122.74c-.1-.86-.26-2.32-.42-3.18-.29-1.54-2.19-14.18-2.67-17a.38.38,0,0,0-.59-.24c-9.61,6.55-20.64,11.34-30.19,17.45A137.47,137.47,0,0,0,74,143.26a11.21,11.21,0,0,0,2.19,3.58c.85.76,1.72.38,2.64-.31a2.51,2.51,0,0,0,.72-.86c4.93-9.23,13.39-14.14,20.67-21.56C100.59,123.74,101.65,123,101.21,122.74Z"/><path class="cls-13" d="M95.44,156.72c1.74-1.25,12.72-18.39,18.31-28.07a4.86,4.86,0,0,0,.83-1.44c-3.69-1.21-6.79-2.65-10.48-3.86-.73-.24-2-1-2.81-.91-1.42.2-2.44,2.27-3.44,3.29-1.32,1.34-16.19,14.84-21.72,20.88,1.44,1.75,7.89,3.66,11.51,6.06C89.63,154,95.22,156.88,95.44,156.72Z"/><path class="cls-11" d="M61.6,162.18a3.94,3.94,0,0,0,4.27-.88c2.38-2,3.18-5.43,2.88-8.54a5.73,5.73,0,0,0-1.83-4.12,11.68,11.68,0,0,0-2.24-1.11,8.87,8.87,0,0,1-3.53-2.95l-5.67,1.75a1.16,1.16,0,0,0-1,1.18,15.8,15.8,0,0,0,1,7.23C56.48,157.91,58.44,161.08,61.6,162.18Z"/><path class="cls-11" d="M105.48,143.78a5.52,5.52,0,0,0-.78-2.66c-1-1.72-2.87-2.82-4.61-3.82a2.08,2.08,0,0,0-1.55-.37,1.62,1.62,0,0,0-.88,2,4.92,4.92,0,0,0,.82,1.55c1.21,1.73,2.51,3.41,3.88,5a2.18,2.18,0,0,0,1.55,1,1.49,1.49,0,0,0,1.28-1A4.53,4.53,0,0,0,105.48,143.78Z"/><path class="cls-7" d="M93.61,183.73c2-.18,4.12-.4,5.74-1.59a9.77,9.77,0,0,0,2.92-4.42c4.06-10.33,3.29-21.9,6.87-32.4a11,11,0,0,0-5-1.21,3.77,3.77,0,0,0-2.44.6c-2.17,8.44-10.9,14.69-10.17,23.37a6.7,6.7,0,0,1-.55,3.31,3.58,3.58,0,0,1-2-1,60.22,60.22,0,0,0-18.49-10.13,31.52,31.52,0,0,0-6.63-1.57c-2-.21-4.25,0-5.38,1.63-1.88,2.7-3.79,5.38-3.3,8.63a12.79,12.79,0,0,0,4.54,7.62,26.38,26.38,0,0,0,7.9,4.35,45,45,0,0,0,5.54,1.73A63.24,63.24,0,0,0,93.61,183.73Z"/><path class="cls-14" d="M60.35,126.21a1.47,1.47,0,0,1,.54-.2c.83-.2,1.64-.47,2.48-.63a15.43,15.43,0,0,1,1.54-.23l4.72-.57a1.25,1.25,0,0,1,.81.07.92.92,0,0,1,.42.74,2.09,2.09,0,0,1-.92,1.81,6.31,6.31,0,0,1-1.93.85l-5.3,1.63a2.43,2.43,0,0,1-1.52.12c-.72-.28-1-1.14-1.15-1.89C59.91,127.31,59.83,126.55,60.35,126.21Z"/><path class="cls-11" d="M47.45,135.35a7.71,7.71,0,0,0,.68,5.63c1.66,3.07,3.61,6.46,7.07,6.94a8.19,8.19,0,0,0,8.44-4.82,16,16,0,0,0,.86-3.48l.42-2.45a1.5,1.5,0,0,1,.35-.88A1.65,1.65,0,0,1,66,136a7,7,0,0,0,2.64-.86c.78-.51,1.84-1.79,1.11-2.37s-2.3-.13-3.15-.85A6.75,6.75,0,0,1,65.09,129a10.53,10.53,0,0,0-7.88-6.64,8.26,8.26,0,0,0-8.79,4.76,13.33,13.33,0,0,0-.74,3.6C47.5,132.47,47.89,133.67,47.45,135.35Z"/><path class="cls-8" d="M49.75,131.15l2.44.07a12.56,12.56,0,0,0,2.81-.15,4.11,4.11,0,0,0,2.4-1.37,3.12,3.12,0,0,0,.13-3.53c2,.07,3.83-.08,5.4-1.31a4.49,4.49,0,0,0-.17-6.85c-1,1.53-3,2-4.85,1.92s-3.64-.51-5.44-.23a10.1,10.1,0,0,0-5.73,3.54,16.07,16.07,0,0,0-4.27,10.5,11.9,11.9,0,0,0,5.07,9.9,3.36,3.36,0,0,0,2.2.7,4,4,0,0,0,1.75-.88,6.51,6.51,0,0,0,3.11-4.52,7.39,7.39,0,0,0-1.08-4.34A12.12,12.12,0,0,0,49.75,131.15Z"/><path class="cls-15" d="M57.78,149.84a32.74,32.74,0,0,1-3.93-3.11l-10-8.76c-1.58-1.38-3.11-4.18-4.44-5.8-2.73-3.32-3-7-7.73-9a3.16,3.16,0,0,0-3.07.79,12.46,12.46,0,0,0-2.35,2.86,37.42,37.42,0,0,0-3.57,7.76,20.07,20.07,0,0,0-.33,9.38c.69,4.16,1.42,8.1,3.67,11.67A71,71,0,0,0,34,165.39c2.49,2.74,5,5.51,7.48,8.21s7.49,6.52,11.19,7c2.1.27,1.54-3.1,2.41-5C58.82,167.22,60.76,158.49,57.78,149.84Z"/><path class="cls-6" d="M45.65,164.16c-.47,2.62.75,10.85,1.49,12.18,1.39,2.49,3.87,4.64,6.72,4.58a7.19,7.19,0,0,0,5.52-3.28,15.6,15.6,0,0,0,2.26-6.22,53.73,53.73,0,0,0,.73-7.91,23.85,23.85,0,0,0-.77-7.81,10,10,0,0,0-4.71-6,6.42,6.42,0,0,0-7.31.92,9.47,9.47,0,0,0-2,3.86,45.9,45.9,0,0,0-2.09,11.79Z"/><path class="cls-15" d="M127,168.44a15.32,15.32,0,0,1-1.23-6.72c0-6.2,1.17-12.75,5.27-17.4,3.3-3.74,8.06-5.82,12.74-7.52a38.52,38.52,0,0,1,9.28-2.39,15.91,15.91,0,0,1,9.32,1.65,21.08,21.08,0,0,1,3.75,2.85,17.06,17.06,0,0,1,3.08,3.44c2,3.21,1.93,7.26,1.72,11a10.55,10.55,0,0,1-2.25,6.37c-1.7,2.21-4.47,2.49-7.2,1.94A63.08,63.08,0,0,1,147.3,157a2.73,2.73,0,0,0-2.33-.34,2.18,2.18,0,0,0-.67.58c-1.35,1.64-1.7,1.4-.67,3.26.55,1,7.38.31,5.78,9.28-.46,2.58-2.58,1.51-4.16,3.6a7.9,7.9,0,0,1-6.95,2.94,14.46,14.46,0,0,1-5.28-1.83,16,16,0,0,1-4.33-3,7,7,0,0,1-2.08-4.73Z"/><path class="cls-16" d="M141.5,153.82a8.06,8.06,0,0,0,.88,5.14,13.65,13.65,0,0,0,3.11,4,7.53,7.53,0,0,0,6.15,1.41,2.51,2.51,0,0,0,2-1.49,2.66,2.66,0,0,0-1.1-2.46,20,20,0,0,1-2.37-2.22,9.7,9.7,0,0,1-1.49-4.29,11.25,11.25,0,0,0-1.36-4.34c-.84-1.27-1.94-2.69-3.9-1.72C141.73,148.67,141.68,152,141.5,153.82Z"/><path class="cls-17" d="M159.31,158.36c-1.15,1.24-3,1.5-4.64,2a5.71,5.71,0,0,0-5.2,1.82c-1.18,1.4-1,3.92.69,4.71a4.92,4.92,0,0,0,1.71.35,16.25,16.25,0,0,0,5.21-.16,18,18,0,0,0,5.06-2.38l2.46-1.49a12.6,12.6,0,0,0,3-2.24,4.13,4.13,0,0,0,1.11-3.43c-.42-2.14-2.89-3.17-5.06-3.37a2.21,2.21,0,0,0-2.43,1.18A11.57,11.57,0,0,1,159.31,158.36Z"/><path class="cls-6" d="M161.87,154.6a7.1,7.1,0,0,1-3.75,5,9.25,9.25,0,0,1-6.32.64,4,4,0,0,1-1.91-.92,3.71,3.71,0,0,1-.67-.95,9.65,9.65,0,0,1-1-6.18,5.63,5.63,0,0,1,4.32-4.77c1-.31,1.51-1.58,1.7-2.57a4.11,4.11,0,0,1,.32-1.25.93.93,0,0,1,1.07-.51c1.3,1,.62,3.21,1.54,4.57a4.45,4.45,0,0,0,.82.86,5.3,5.3,0,0,0,2.54,1.45,5.13,5.13,0,0,0,1.56-.1l1.54-.26a1.45,1.45,0,0,1,1.31.22,1,1,0,0,1,0,1.21,3.29,3.29,0,0,1-1,.76c-.7.4-1.51.81-1.79,1.56A8.48,8.48,0,0,0,161.87,154.6Z"/><path class="cls-6" d="M129.59,172.55a2.68,2.68,0,0,1-.36-3,2.25,2.25,0,0,1,2.29-.68,8.69,8.69,0,0,1,2.3,1,18.4,18.4,0,0,0,16.68.35c4.11-2,7.28-5.52,11-8.16,1.16-.81,2.75-1.55,3.91-.73a2.79,2.79,0,0,1,1,2.11c.19,2.37-1.16,4.59-2.66,6.44a21.82,21.82,0,0,1-3.41,3.45,20.82,20.82,0,0,1-10.82,4.14,38.51,38.51,0,0,1-11.47-.79C135,176.11,131.41,175.15,129.59,172.55Z"/><path class="cls-10" d="M117.32,96.3a7.86,7.86,0,0,0,3,.7,82.11,82.11,0,0,0,8.3.28,31.14,31.14,0,0,0,8.51-1.22c.39-.15,1.29-.38,1.37-1.22A1.49,1.49,0,0,0,137,93.25q-6.79-.42-13.6-.17c-2.1.07-4.3.23-6,1.39-.36.24-.73.6-.69,1A1.15,1.15,0,0,0,117.32,96.3Z"/><path class="cls-8" d="M131,95.83c.14-.1-.56-3.5,1-5,3.45-3.34,7.75-8,10-12.31a13.53,13.53,0,0,0,2-6c.64-4.49,1.51-8.08,1.37-12.61a31.35,31.35,0,0,0-8.75,5.6c-2,2.06-4.05,4.27-5,7a21.79,21.79,0,0,0-.94,6.54l-.27,6.73c-.06,1.35-.33,3.17-1.67,3.29a18,18,0,0,1-.39-6.39q.39-7.24.16-14.51c-.13-4.38-.49-8.95-2.74-12.72A27.8,27.8,0,0,0,121,50l-3.65-3.58a58.67,58.67,0,0,0-.53,15.2c1.63,14.07,9.31,17.87,9.08,26,0,1.32-1.6-3.37-6.31-7a48,48,0,0,1-4.71-3.8c-1.49-1.57-1.75-2-4.12-4.43,0-.19-.29-.25-.44-.13a.78.78,0,0,0-.2.53,18.9,18.9,0,0,0,.5,7.6,11.7,11.7,0,0,0,4.27,6.21,19.39,19.39,0,0,0,3.47,1.81c2.42,1.06,5.07,1.7,7.25,3.18,1,.67.77,1.11.8,1.94s-.12,1.66,0,2.48a7.2,7.2,0,0,0,2,.21A6.54,6.54,0,0,0,131,95.83Z"/><path class="cls-5" d="M79,75.22c1.77,2.21,3.13,4.55,2.35,7.27-.33,1.14-2.73,1.32-3.54.46C76.21,81.24,78.36,76.54,79,75.22Z"/><path class="cls-5" d="M91.09,59.59c1.77,2.21,3.13,4.56,2.34,7.28-.32,1.13-2.73,1.32-3.53.46C88.3,65.62,90.44,60.92,91.09,59.59Z"/><path class="cls-5" d="M101.35,81.37c1.77,2.21,3.13,4.56,2.35,7.28-.33,1.13-2.73,1.32-3.54.46C98.56,87.4,100.71,82.7,101.35,81.37Z"/><path class="cls-5" d="M113.32,104c1.77,2.21,3.13,4.56,2.35,7.28-.33,1.13-2.73,1.32-3.54.45C110.54,110,112.68,105.28,113.32,104Z"/><path class="cls-5" d="M133.74,55.72c1.55,1.93,2.75,4,2.06,6.37-.29,1-2.39,1.16-3.1.4C131.3,61,133.18,56.88,133.74,55.72Z"/><path class="cls-5" d="M80.37,98.36c1.77,2.21,3.13,4.56,2.34,7.28-.32,1.13-2.73,1.32-3.53.46C77.58,104.39,79.72,99.69,80.37,98.36Z"/><path class="cls-5" d="M56.77,87.42c1.77,2.21,3.12,4.55,2.34,7.27-.33,1.14-2.73,1.32-3.54.46C54,93.44,56.12,88.74,56.77,87.42Z"/><path class="cls-5" d="M60.59,64.66c1.49,1.86,2.64,3.84,2,6.13-.28.95-2.3,1.11-3,.39C58.24,69.73,60.05,65.78,60.59,64.66Z"/><path class="cls-5" d="M57.63,109.36c1.49,1.86,2.63,3.84,2,6.13-.27,1-2.3,1.11-3,.38C55.28,114.43,57.08,110.47,57.63,109.36Z"/><path class="cls-9" d="M119.15,50.68c-.23,1.77.6,3.22,1.4,4.74a20.81,20.81,0,0,1,2.31,7.28,27.48,27.48,0,0,1,0,7,7.47,7.47,0,0,0,1.61,4.89.53.53,0,0,0,1-.27,5.44,5.44,0,0,0-.23-2.15,8.17,8.17,0,0,1,0-3.68,18.8,18.8,0,0,0-.27-6,20.91,20.91,0,0,0-1.9-6c-1-2-2.66-3.65-3.32-5.85-.09-.33-.51-.22-.55.08Z"/><path class="cls-9" d="M143.41,62.68a50,50,0,0,0-7.49,7.91c-1.33,1.91-3.86,6.32-2.93,8.71a.85.85,0,0,0,1.62,0c1.19-3.29,2-6.46,4.18-9.29,1.75-2.25,4.53-4.1,5.08-7.06a.28.28,0,0,0-.46-.27Z"/><path class="cls-9" d="M141.92,70.09c-1.45.28-2.47,1.63-3.22,2.8-.56.86-2,3.22-.93,4.15a.54.54,0,0,0,.72,0A2,2,0,0,0,139,76a14.58,14.58,0,0,1,3.22-5.34c.27-.24,0-.61-.32-.55Z"/><path class="cls-9" d="M117.78,83.52a4,4,0,0,0,1.86,3.13c.62.5,2.8,2.25,3.67,1.59s-.77-1.77-1.33-2.06a8.73,8.73,0,0,1-3.67-2.8.29.29,0,0,0-.53.14Z"/><path class="cls-8" d="M61.39,133.16a1.18,1.18,0,0,0,0-2.35,1.18,1.18,0,0,0,0,2.35Z"/><path class="cls-8" d="M58.63,137.49a3.14,3.14,0,0,0,.78,3.86c.87.89,3.06,2.17,4.35,1.66.22-.09.35-.46.07-.59a6.51,6.51,0,0,0-1.46-.29,6,6,0,0,1-2-.86c-1.37-.9-1.61-2.18-1.48-3.7,0-.16-.21-.2-.29-.08Z"/><path class="cls-14" d="M99.25,139.71a1.12,1.12,0,1,0-1.11-1.11,1.13,1.13,0,0,0,1.11,1.11Z"/><path class="cls-8" d="M152.22,149.42c-.71-.23-1.35.94-1.58,1.45a2.26,2.26,0,0,0,.09,2.3,2.08,2.08,0,0,0,2.56.43,3.21,3.21,0,0,0,1.67-2.35.19.19,0,0,0-.23-.17c-.57.24-.86.87-1.34,1.23s-1.45.75-1.89.1c-.28-.41,0-1.07.16-1.47s.73-.82.74-1.28a.23.23,0,0,0-.18-.24Z"/><path class="cls-8" d="M158.42,153c-.78-.38-1.43.59-1.63,1.2a2.87,2.87,0,0,0,.46,2.74,2.08,2.08,0,0,0,2.78.1,3.8,3.8,0,0,0,1.56-2.49.31.31,0,0,0-.39-.29c-1,.19-1.67,2.42-2.87,1.87-.44-.21-.44-.95-.42-1.34a4,4,0,0,1,.59-1.5.22.22,0,0,0-.08-.29Z"/><path class="cls-8" d="M154.12,157.42l-2.77-.73a4,4,0,0,0,.55,2.07c1-.25,1.91-.52,2.85-.83C154.75,157.64,154.4,157.49,154.12,157.42Z"/><path class="cls-8" d="M149.31,157.81a.29.29,0,0,0,0-.57.29.29,0,0,0,0,.57Z"/><path class="cls-8" d="M150,159.35a.34.34,0,0,0,0-.68.34.34,0,0,0,0,.68Z"/><path class="cls-8" d="M150.33,158.4a.31.31,0,0,0,0-.62.31.31,0,0,0,0,.62Z"/><path class="cls-8" d="M154.21,160.14a.34.34,0,0,0,0-.67.34.34,0,0,0,0,.67Z"/><path class="cls-8" d="M154.78,159.22a.33.33,0,0,0,0-.65.33.33,0,0,0,0,.65Z"/><path class="cls-8" d="M155.47,160.31a.28.28,0,0,0,0-.55.28.28,0,0,0,0,.55Z"/><path class="cls-8" d="M147.49,162.26a1.51,1.51,0,0,0,.85.63,2.57,2.57,0,0,0,1.15.23c.2,0,.21-.28.11-.41a1.39,1.39,0,0,0-.87-.36c-.38-.07-.73-.17-1.1-.27a.12.12,0,0,0-.14.18Z"/><path class="cls-8" d="M147.27,164.09a2,2,0,0,0,2.32.22.23.23,0,0,0,0-.34c-.62-.49-1.49-.26-2.22-.26-.22,0-.25.26-.1.38Z"/><path class="cls-8" d="M147.64,165.86c.7.4,2.13.64,2.69-.11a.27.27,0,0,0-.09-.35,2.28,2.28,0,0,0-1.32-.13,2.84,2.84,0,0,0-1.28.34.15.15,0,0,0,0,.25Z"/><path class="cls-6" d="M145,138.58c.38-.12.78-.22,1.17-.32a2.31,2.31,0,0,0,1.1-.39.42.42,0,0,0-.08-.65,1.37,1.37,0,0,0-1.27.1,2.68,2.68,0,0,0-1.13.89c-.13.16,0,.46.21.37Z"/><path class="cls-6" d="M146.53,140.46l.9-.32c.37-.13.75-.17,1-.52a.43.43,0,0,0-.16-.59c-.37-.28-.9-.06-1.25.15a2.23,2.23,0,0,0-.8.87c-.11.2.07.5.31.41Z"/><path class="cls-6" d="M149.62,137.7a1.47,1.47,0,0,0,1.75-.34.28.28,0,0,0-.1-.37c-.47-.3-1.2,0-1.65.22a.29.29,0,0,0,0,.49Z"/><path class="cls-6" d="M152.61,136.34a11.65,11.65,0,0,1,1.67.15c.38.06,1,.08,1.06-.44s-.93-.68-1.32-.67a2.63,2.63,0,0,0-1.53.49.25.25,0,0,0,.12.47Z"/><path class="cls-6" d="M152.84,138.85c.6.06,1.3.34,1.86,0a.3.3,0,0,0,0-.51c-.56-.34-1.26-.05-1.86,0a.26.26,0,0,0,0,.51Z"/><path class="cls-6" d="M150.68,140a.93.93,0,0,0,.44-.08.21.21,0,0,0,0-.35.93.93,0,0,0-.44-.08c-.33,0-.33.53,0,.51Z"/><path class="cls-6" d="M147.94,142.71a5.42,5.42,0,0,1,.9,0,1.46,1.46,0,0,0,.83-.09.27.27,0,0,0,0-.46c-.48-.3-1.3,0-1.79.11-.25.08-.22.51.06.47Z"/><path class="cls-6" d="M142.75,143.78a3.49,3.49,0,0,1,.9-.66c.37-.2.75-.38.9-.8a.28.28,0,0,0-.26-.35,2,2,0,0,0-1.33.51,1.23,1.23,0,0,0-.61,1.2.24.24,0,0,0,.4.1Z"/><path class="cls-6" d="M141.8,140.78c.34-.38,1.29-.26,1.37-.93a.25.25,0,0,0-.12-.22c-.3-.22-.79,0-1.07.16a1.12,1.12,0,0,0-.4.38,1,1,0,0,0-.1.48.19.19,0,0,0,.32.13Z"/><path class="cls-6" d="M136.68,142.16a4.43,4.43,0,0,1,1.15-.63c.44-.17,1-.29,1.15-.77a.42.42,0,0,0-.19-.46c-.49-.35-1.17.08-1.57.37a2,2,0,0,0-.88,1.29.2.2,0,0,0,.34.2Z"/><path class="cls-6" d="M137.8,145.23a3.42,3.42,0,0,1,.91-.78c.38-.27.88-.44,1-.92a.43.43,0,0,0-.2-.49c-.61-.29-1.15.21-1.56.62a2.09,2.09,0,0,0-.68,1.43.27.27,0,0,0,.51.14Z"/><path class="cls-6" d="M135.4,144a2.09,2.09,0,0,0-1.44.64,3.76,3.76,0,0,0-1.18,1.63.65.65,0,0,0,.17.62c.7.73,1.15-.5,1.41-1a8.67,8.67,0,0,1,1.18-1.58.21.21,0,0,0-.14-.36Z"/><path class="cls-6" d="M130.83,147.44c-.35-.05-.73.42-.9.69a1.86,1.86,0,0,0-.37,1.41.38.38,0,0,0,.26.26c.48.09.53-.47.62-.81a4.22,4.22,0,0,1,.33-.8c.09-.19.25-.36.23-.59a.17.17,0,0,0-.17-.16Z"/><path class="cls-6" d="M133,149.42a5.6,5.6,0,0,0-.67,1.8c-.11.58.78.83.88.24s.1-1.24.22-1.86c0-.25-.3-.42-.43-.18Z"/><path class="cls-6" d="M136.17,149.79a7.75,7.75,0,0,1,1.44-1.9c.43-.58-.53-1.12-1-.56a4.41,4.41,0,0,0-.66,2.44c0,.11.14.12.18,0Z"/><path class="cls-6" d="M140.52,147.91a3.24,3.24,0,0,1,.37-.19,3,3,0,0,0,.44-.29,3.08,3.08,0,0,0,.84-.63.41.41,0,0,0-.15-.56,1,1,0,0,0-1.24.35,1.83,1.83,0,0,0-.39.55c-.06.15-.1.32-.17.47s.1.43.3.3Z"/><path class="cls-6" d="M138.49,150.79a4.39,4.39,0,0,0-.56,1.1,1.63,1.63,0,0,0,0,1.3.47.47,0,0,0,.81,0,1.89,1.89,0,0,0,.12-1,6.73,6.73,0,0,1,.05-1.19.24.24,0,0,0-.44-.18Z"/><path class="cls-6" d="M134.93,153.92c-.24.69-.76,1.43-.51,2.19a.62.62,0,0,0,1.2-.33c-.11-.59-.14-1.19-.2-1.79a.25.25,0,0,0-.49-.07Z"/><path class="cls-6" d="M130.34,151.44a3.15,3.15,0,0,0-1.28,2,.55.55,0,0,0,1,.27,14.14,14.14,0,0,0,.62-2c.07-.22-.21-.33-.36-.21Z"/><path class="cls-6" d="M131.57,156a2.7,2.7,0,0,0-.14,1.68.45.45,0,0,0,.86,0,2.77,2.77,0,0,0-.13-1.68.31.31,0,0,0-.59,0Z"/><path class="cls-6" d="M128.18,157c-.1.85-.62,1.83,0,2.58a.45.45,0,0,0,.74-.19,8.83,8.83,0,0,0-.24-2.39.26.26,0,0,0-.52,0Z"/><path class="cls-6" d="M129.93,160.16a1.81,1.81,0,0,0-.17,1.75.57.57,0,0,0,1.1-.3,4.11,4.11,0,0,0-.44-1.39.31.31,0,0,0-.49-.06Z"/><path class="cls-6" d="M127.78,162.93a1.21,1.21,0,0,0-.08,1.29.56.56,0,0,0,1-.28,2.3,2.3,0,0,0-.32-1,.37.37,0,0,0-.64,0Z"/><path class="cls-6" d="M128.23,166.76a2.31,2.31,0,0,0,.2.89c.12.25.41.61.73.52s.22-.45.12-.69-.18-.23-.25-.35a1.89,1.89,0,0,1-.17-.45.32.32,0,0,0-.63.08Z"/><path class="cls-6" d="M130.9,165.32a1.69,1.69,0,0,0,.58,1.83.42.42,0,0,0,.63-.36c0-.56-.47-1-.68-1.54-.1-.24-.48-.16-.53.07Z"/><path class="cls-6" d="M133.74,160.21a2.18,2.18,0,0,0-.23,1.28c0,.42.36,1.06.86,1a.42.42,0,0,0,.4-.3,2,2,0,0,0-.17-1,7.47,7.47,0,0,0-.28-1,.33.33,0,0,0-.58,0Z"/><path class="cls-6" d="M136.8,157.21a2,2,0,0,0,.08,1.45.38.38,0,0,0,.69-.19,1.7,1.7,0,0,0-.07-.55c0-.2-.05-.42-.08-.62a.32.32,0,0,0-.62-.09Z"/><path class="cls-6" d="M136.46,162a2.46,2.46,0,0,0,.2,1.71.49.49,0,0,0,.9-.25,3.18,3.18,0,0,0-.52-1.53.32.32,0,0,0-.58.07Z"/><path class="cls-6" d="M134.39,164.57a7.15,7.15,0,0,0,.29.77c.11.25.25.55.54.62a.24.24,0,0,0,.29-.16.84.84,0,0,0-.14-.65,5.18,5.18,0,0,1-.34-.76.33.33,0,0,0-.64.18Z"/><path class="cls-6" d="M133.93,167.9c0,.72.34,1.64,1.18,1.67a.45.45,0,0,0,.39-.67c-.28-.42-.67-.75-1-1.16-.17-.24-.61-.18-.6.16Z"/><path class="cls-6" d="M136.85,167.34a1.07,1.07,0,0,0,0,.56.89.89,0,0,0,.4.57.5.5,0,0,0,.61-.08.51.51,0,0,0,.07-.6c-.08-.18-.25-.34-.35-.54a.39.39,0,0,0-.7.09Z"/><path class="cls-6" d="M139,165.16s0,0,0,.1a1.23,1.23,0,0,0,0,.2,1.47,1.47,0,0,0,0,.36,2.18,2.18,0,0,0,.25.64.61.61,0,0,0,.69.28.62.62,0,0,0,.42-.75,1.63,1.63,0,0,0-.78-1.07l.13.13,0-.06a.35.35,0,0,0-.65.17Z"/><path class="cls-6" d="M139.76,168.92a1.35,1.35,0,0,0,.14,1.33.54.54,0,0,0,.89-.24,2.43,2.43,0,0,0-.18-1.09.45.45,0,0,0-.85,0Z"/><path class="cls-6" d="M137.71,170.15a.58.58,0,0,0,.86.34.34.34,0,0,0-.08-.62.41.41,0,0,0-.16,0h-.08c-.22-.19-.68,0-.54.31Z"/><path class="cls-6" d="M141.73,167.38a6.56,6.56,0,0,1,.35.76c.15.31.47.66.86.54h-.17a.4.4,0,0,0,.48-.49q-.1.51,0,.21a.5.5,0,0,0,0-.27c0,.11,0,.23,0,.34.17-.39,0-.69-.3-1a2.1,2.1,0,0,0-.73-.56c-.27-.13-.62.14-.44.44Z"/><path class="cls-6" d="M142.85,170.11a.94.94,0,0,0-.22.66.52.52,0,0,0,1,0,.94.94,0,0,0-.22-.66.42.42,0,0,0-.6,0Z"/><path class="cls-6" d="M139.5,161.29c.06.54.14,1.25.64,1.57a.46.46,0,0,0,.69-.4c0-.44-.31-.88-.43-1.29s-1-.41-.9.12Z"/><path class="cls-6" d="M152.24,142.05a2.82,2.82,0,0,1,.64-.14.13.13,0,0,0,0-.23.94.94,0,0,0-.83.08c-.19.09,0,.38.17.29Z"/><path class="cls-6" d="M155.86,140.77a1.75,1.75,0,0,0,1.34.12.26.26,0,0,0,.13-.32.72.72,0,0,0-.69-.47,1.38,1.38,0,0,0-.84.22.25.25,0,0,0,.06.45Z"/><path class="cls-6" d="M157.4,138.38a5.41,5.41,0,0,1,1.07.27c.38.07.77-.31.53-.68a1.12,1.12,0,0,0-1.76,0,.24.24,0,0,0,.16.41Z"/><path class="cls-6" d="M157.06,136.29a2,2,0,0,0,1.79.22.39.39,0,0,0,.08-.6c-.42-.52-1.38-.32-1.87,0a.23.23,0,0,0,0,.4Z"/><path class="cls-6" d="M160.82,137.68a2.71,2.71,0,0,0,.64.47c.12.08.24.16.35.25a1.5,1.5,0,0,0,.45.24c.32.13.71-.08.6-.46a1.27,1.27,0,0,0-.27-.56,2.57,2.57,0,0,0-.49-.38,1.19,1.19,0,0,0-1.22,0,.31.31,0,0,0-.06.48Z"/><path class="cls-6" d="M160,140.12c.14.14-.13-.24,0,0a.47.47,0,0,0,.2.17,1,1,0,0,1,.28.21,1.41,1.41,0,0,0,.86.46.42.42,0,0,0,.4-.3,1,1,0,0,0-.71-1.11,1.47,1.47,0,0,0-.66,0,.58.58,0,0,0-.44.3.23.23,0,0,0,0,.27Z"/><path class="cls-6" d="M159.12,141.87a4.92,4.92,0,0,0,1.1.55.35.35,0,0,0,.39-.51,1.1,1.1,0,0,0-1.49-.43.22.22,0,0,0,0,.39Z"/><path class="cls-6" d="M162,142.75c-.1-.06,0,0,0,.06a2.53,2.53,0,0,0,.13.22,2.2,2.2,0,0,0,.32.51.49.49,0,0,0,.8-.21,1,1,0,0,0-1.15-1.15h.11a.32.32,0,0,0-.25.58Z"/><path class="cls-6" d="M164,140.8a8,8,0,0,1,1,1,3.67,3.67,0,0,0,.84,1.14c.18.13.39,0,.46-.19.48-1.14-1.09-2.56-2.19-2.34a.21.21,0,0,0-.09.36Z"/><path class="cls-6" d="M164.39,139.4c0-.05,0-.05,0,0s.09.12.1.12a.38.38,0,0,0,.71-.19.62.62,0,0,0-.51-.62.37.37,0,0,0-.29.68Z"/><path class="cls-6" d="M167.76,143a12.64,12.64,0,0,0,.13,1.38c.07.43.16.9.61,1.07a.31.31,0,0,0,.29-.07c.33-.28.24-.76.19-1.14a3.69,3.69,0,0,0-.55-1.42.36.36,0,0,0-.67.18Z"/><path class="cls-6" d="M165.39,144.73l.18.69c.09.3.07.57.31.82a.46.46,0,0,0,.63,0c.63-.56,0-1.63-.6-1.91a.36.36,0,0,0-.52.4Z"/><path class="cls-6" d="M163.4,145c-.1.37-.23,1.25.39,1.25s.49-.88.39-1.25a.41.41,0,0,0-.78,0Z"/><path class="cls-6" d="M166.66,151.37a2.23,2.23,0,0,0,.75-1.38.45.45,0,1,0-.88-.12,7,7,0,0,0-.27,1.27c0,.18.23.36.4.23Z"/><path class="cls-6" d="M161.52,144.08a.67.67,0,0,0-.18.52.62.62,0,0,0,.31.47.31.31,0,0,0,.47-.27,1.26,1.26,0,0,0-.12-.66.3.3,0,0,0-.48-.06Z"/><path class="cls-6" d="M162.06,147.64c-.07-.13,0,.14,0,.12a.62.62,0,0,0,.07.19.38.38,0,0,0,.58.08.49.49,0,0,0-.47-.82.29.29,0,0,0-.17.43Z"/><path class="cls-6" d="M165.13,147.42a1.48,1.48,0,0,0,.14,1.09.37.37,0,0,0,.69-.19,1.81,1.81,0,0,0-.39-1,.26.26,0,0,0-.44.12Z"/><path class="cls-6" d="M167.81,147.26a3.53,3.53,0,0,0,0,.46,4.09,4.09,0,0,0,0,.6c.07.42.7.37.81,0a1.47,1.47,0,0,0-.3-1.28.32.32,0,0,0-.54.22Z"/><path class="cls-6" d="M169.49,147.26a2.29,2.29,0,0,0,0,.37.23.23,0,0,0,.46,0,2.29,2.29,0,0,0,0-.37.23.23,0,0,0-.45,0Z"/><path class="cls-6" d="M169.51,149.91a5.66,5.66,0,0,0-.23.9c-.06.23-.18.72.14.8s.57-.32.63-.58a7.23,7.23,0,0,0,.12-1c0-.41-.53-.41-.66-.09Z"/><path class="cls-6" d="M167.77,152.14c-.16.24-.56.91-.05,1.05s.55-.61.57-.91-.38-.36-.52-.14Z"/><path class="cls-6" d="M165.84,153.85c.13-.19.33-.31.4-.54a.36.36,0,0,0-.25-.44c-.43-.1-.77.29-.87.67a.4.4,0,0,0,.72.31Z"/><path class="cls-6" d="M169.13,155.49a.83.83,0,0,0,.33-.34.38.38,0,0,0-.66-.39s0,0,0,0c-.57.2-.2,1.05.32.76Z"/><g class="cls-18"><path class="cls-6" d="M15.5,141.86c-.3,1.11,1,1.78,1.86,2.18a8,8,0,0,0,5.36.39,4.91,4.91,0,0,0,4-3.64c.38-1.95-.38-3.94-.1-5.9.37-2.67,4.19-1.13,5.94-2.1a7.77,7.77,0,0,0,3.84-5.46c.3-2.39.16-4.78-1.51-6.65a5.49,5.49,0,0,0-6.08-1.19c-.49.27-.13.94.36.85,6.55-1.11,7.69,6.43,4.17,10.4-2.08,2.34-6.06.07-7.58,3-1,1.88,0,4.48-.12,6.49-.19,4.62-10.12,3.73-9.77,1.7a.17.17,0,0,0-.33-.09Z"/><path class="cls-6" d="M37.67,125.33c1.61.86,1.22,4.42.66,5.73-.63,1.46-3.25,2.13-4.58,2.73-2.38,1.08-4.45,2.74-4.35,5.57.08,2.37,2.17,4.88,4.71,3.79.89-.39,1.68-.93,2.61-1.24,1.22-.41,1.85,1.47,2.42,2.08A5.78,5.78,0,0,0,43,145.9c3.19.22,5.34-1.78,6.35-4.68s-1.1-5.79-2.5-8a52,52,0,0,0-4.32-6c-.84-1-2.3-2.69-3.75-1.92a.72.72,0,0,0,.56,1.31c.94-.29,3.12,2.94,3.59,3.53,1.13,1.43,2.17,2.94,3.17,4.46A16.06,16.06,0,0,1,48,138.2a4.52,4.52,0,0,1-8.22,3.69,4,4,0,0,0-2-1.64,3.32,3.32,0,0,0-2.31.33c-.67.32-1.31.71-2,1-2.43,1-2.35-2.92-2-3.77.91-2.08,4.24-2.83,6.08-3.77a4.44,4.44,0,0,0,2.52-4.83c-.13-1.65-.55-3.51-2.16-4.26-.26-.12-.49.25-.23.38Z"/><path class="cls-6" d="M41.7,133c0,.12-1.71,1.13-2,1.37a4.51,4.51,0,0,0-1.27,2.85c-.12,1.89,2.18,2.93,3.7,2.21,2.42-1.14,2.63-7-.67-7-.68,0-1,1-.36,1.35a1.93,1.93,0,0,1,1.27,2.06c0,.81-.35,2-1.24,2.28-.7.18-1.22-.66-1.12-1.24A3.15,3.15,0,0,1,41.27,135c.71-.5,1.77-1.54.72-2.26-.13-.09-.36.07-.29.23Z"/><path class="cls-6" d="M15.91,148.63c.14,3,5.33,2.76,7,1.29a8.61,8.61,0,0,0,1.31-2.38c.95-1.81,4.4-2.75,5.24-.4.65,1.81,1.47,3.49,3.67,3.43a8.18,8.18,0,0,0,2.61-1c2.11-.85,4,.89,5.09,2.43,2.53,3.44,0,6.94-1.88,10-1.46,2.36-2.28,4.71-1.71,7.48.4,2,1.35,3.76-1.18,4.49a9.28,9.28,0,0,1-4,.07.36.36,0,0,0-.19.69c1.72.69,3.91,1.22,5.69.43,2.76-1.23,2.15-3.8,1.42-6.18-1.12-3.67,2.81-7.41,4.15-10.54a7.25,7.25,0,0,0-.91-7.49c-1.53-1.93-3.74-3.65-6.38-3-1.69.43-3.81,2-4.77-.6-.33-.91-.65-2.27-1.66-2.71a5.4,5.4,0,0,0-6,1.64c-1,1.16-.81,2.84-2.59,3.37-1.34.4-3.6.26-4.29-1.09a.33.33,0,0,0-.6.16Z"/><path class="cls-6" d="M21.72,155.87c.54,1.3,1.35,1.49,2.61.89a10.36,10.36,0,0,0,2.09-1.64c2.08-1.81,4.65.94,5.53,2.6s-1.09,2.52-1.91,3.81a8.57,8.57,0,0,0-1.21,3c-.36,1.75.42,3.39,2.34,3.23a.54.54,0,0,0,.27-1c-2.79-1.63,1-5,2-6.35,1.27-1.57.13-3.56-.87-4.94s-3.23-2.72-5.05-2.36a3.92,3.92,0,0,0-2.09,1c-.54.53-2.51,3.21-3.33,1.55-.11-.23-.51-.06-.41.17Z"/><path class="cls-6" d="M54.35,137.3c1.22,2.44.47,4.21-1.81,5.56a20.38,20.38,0,0,0-2.93,1.71A7.36,7.36,0,0,0,46.7,150c0,4.5,7.27,6.3,10.61,5.64a.54.54,0,0,0,0-1c-2.31-.56-4.58-.7-6.71-1.88-3.76-2.07-1.76-5.81,1.08-7.54,1.63-1,3.41-1.64,4.21-3.5.69-1.62-.12-3.36-.91-4.76a.37.37,0,0,0-.63.37Z"/><path class="cls-6" d="M50.65,161.51c-2.47-3.5-6.45-2-7.72,1.59a6.25,6.25,0,0,0-.29,2.61c.15,1.68.47,2.77,0,4.49a15.81,15.81,0,0,1-6.4,8.72c-.32.22-.25.88.23.83,4.44-.53,7-6.74,7.86-10.54.43-2-.61-3.76-.05-5.75A4.21,4.21,0,0,1,46.14,161c1.34-.78,3,.35,4.18.88.2.09.48-.1.33-.32Z"/><path class="cls-6" d="M24.25,126a1.5,1.5,0,0,0-.41,2,3.4,3.4,0,0,0,2.37,1.69,3,3,0,0,0,3.7-3.47c-.61-3.68-8-2.89-6.85.82a.49.49,0,0,0,.94,0,2.28,2.28,0,0,1,1.92-1.58,2.45,2.45,0,0,1,2.28.7c.67,1-.45,2.06-1.4,2.08a2.56,2.56,0,0,1-1.62-.61c-.53-.42-.51-1-.69-1.56a.17.17,0,0,0-.24-.1Z"/></g></g></g></svg>